<svg xmlns="http://www.w3.org/2000/svg" viewBox="0 0 1000 620" preserveAspectRatio="xMidYMid meet"><g fill="#eef0f3" stroke="#fff" stroke-width="1.2" stroke-linejoin="round"><path d="M628.4,183.2 625.1,182.6 621.5,183.8 613.6,186.0 607.0,189.4 605.3,189.1 605.3,190.4 603.3,191.0 602.0,193.2 600.4,194.7 600.2,196.3 601.5,198.5 602.9,199.4 603.1,201.0 600.4,201.6 599.1,202.2 596.0,201.9 595.8,199.1 594.1,198.8 591.9,199.4 591.4,198.5 588.1,198.2 588.8,196.3 587.0,193.5 586.2,190.1 584.0,188.2 582.4,189.1 582.0,186.6 581.5,186.0 578.7,186.3 578.9,184.1 573.8,183.5 572.5,182.3 570.8,182.9 567.9,182.9 567.7,184.1 563.5,183.5 563.5,184.8 561.1,186.0 558.2,186.3 557.1,186.9 554.7,186.3 553.4,185.4 552.3,185.4 551.0,183.8 549.2,183.5 547.7,181.9 543.3,182.3 542.6,181.6 542.4,177.0 540.9,174.5 539.3,172.9 539.6,170.4 538.7,169.8 539.3,167.3 537.4,165.1 536.3,161.7 538.0,162.3 539.3,161.1 542.6,160.1 544.8,158.3 545.1,156.1 546.6,153.6 549.5,151.4 549.2,150.5 550.8,148.3 546.4,150.8 545.1,150.2 542.2,150.8 541.3,150.2 542.4,148.0 540.2,145.5 539.6,143.9 540.7,141.4 539.8,138.3 540.2,136.8 538.7,136.5 538.7,135.5 537.4,133.3 538.0,129.3 534.9,128.7 534.1,127.4 531.2,127.7 530.5,126.8 533.4,125.9 534.1,126.5 535.4,125.6 534.5,124.0 536.9,121.2 536.0,118.7 533.2,118.1 533.6,116.8 534.9,117.1 535.4,116.2 534.5,114.7 534.5,112.2 535.8,111.8 534.9,110.0 532.7,109.0 531.6,105.3 533.2,105.0 533.0,101.9 530.8,102.2 530.5,99.1 529.5,96.9 529.9,93.2 531.9,92.5 533.0,92.8 534.3,91.6 534.5,88.2 535.8,87.2 536.9,88.5 537.4,86.3 539.6,85.7 539.6,84.1 540.9,81.9 542.6,81.9 542.0,79.1 542.6,76.0 544.4,75.1 547.0,75.1 551.2,73.5 552.5,73.8 555.6,72.0 557.4,72.0 559.3,70.4 558.2,68.9 556.5,69.8 553.4,70.1 552.1,68.9 552.3,67.3 551.2,65.7 551.0,64.2 553.8,63.9 555.8,61.7 556.0,60.1 559.1,60.4 562.4,59.5 562.2,57.6 564.0,57.6 564.2,54.5 569.2,55.5 569.2,56.7 573.4,57.3 574.3,59.8 576.0,59.8 576.7,61.7 575.2,62.0 574.5,65.1 573.0,66.1 572.3,67.3 571.2,67.3 568.6,69.2 568.1,70.4 568.8,72.0 568.4,72.6 570.8,72.9 569.9,74.5 571.6,77.0 571.6,78.8 573.6,79.8 575.4,77.0 576.7,72.9 578.2,72.0 577.6,70.1 578.0,67.9 581.5,66.1 581.8,63.2 583.3,61.7 583.7,59.8 582.4,57.3 581.5,52.7 584.0,48.6 585.5,49.5 585.7,51.1 583.7,52.0 584.0,53.6 586.8,53.0 589.0,49.8 588.8,48.3 586.8,46.4 584.4,45.2 584.0,43.6 585.7,40.5 586.8,41.7 588.8,40.2 588.1,36.5 592.5,35.8 595.8,38.3 596.5,38.3 597.8,38.6 597.8,41.7 599.6,42.7 600.0,46.4 601.8,48.3 602.0,49.5 604.6,50.5 606.6,52.0 607.7,51.1 609.0,52.3 609.9,51.7 612.3,52.0 614.3,51.7 614.1,52.7 616.9,52.0 619.8,49.2 621.3,49.8 623.5,48.0 624.2,44.6 627.3,44.6 627.7,48.6 632.5,50.5 632.5,53.0 631.0,55.8 629.5,56.4 629.7,58.3 628.8,60.1 627.7,60.8 627.0,64.8 624.2,63.9 623.7,62.3 621.3,60.4 618.2,59.5 616.9,59.8 614.7,58.3 614.7,61.1 613.4,61.4 614.3,64.2 615.4,65.1 615.2,67.3 618.5,67.3 627.9,70.4 628.4,73.8 630.1,74.5 631.4,73.5 633.4,73.2 635.2,74.2 635.2,75.7 637.6,76.3 637.8,77.3 635.8,77.6 634.9,78.2 632.7,78.8 634.1,82.9 635.6,84.7 635.6,86.0 638.9,86.6 642.0,86.6 644.0,87.5 644.8,86.9 648.4,88.8 647.9,93.8 647.0,96.0 647.0,99.7 647.9,100.9 645.3,101.9 645.1,105.6 646.6,105.9 647.7,108.7 650.3,112.2 649.2,113.7 651.0,115.9 653.4,116.5 655.8,116.2 655.4,117.5 651.0,116.8 650.3,118.1 651.4,118.7 651.2,120.3 651.4,123.4 649.2,126.8 653.0,127.4 654.7,129.0 658.0,131.8 657.4,133.7 658.0,134.9 660.0,136.2 660.0,137.4 661.8,141.8 663.1,141.4 664.4,142.7 664.6,146.1 665.9,146.7 665.5,150.2 667.3,152.4 665.1,156.4 661.1,157.0 659.1,161.1 656.5,162.0 657.8,163.9 659.1,164.5 659.1,166.4 657.6,167.3 658.5,167.9 656.5,170.7 650.5,172.6 650.3,172.0 647.0,172.9 642.9,173.5 642.9,174.8 641.3,176.0 638.7,175.7 637.8,173.8 636.5,175.1 634.9,175.1 632.5,173.5 627.0,175.1 625.7,177.6 628.4,183.2Z"/><path d="M279.6,461.1 279.8,454.9 278.9,452.1 281.5,450.8 280.7,449.9 278.5,450.8 276.5,447.4 276.5,445.8 273.4,445.5 273.6,444.0 276.7,438.1 276.5,435.9 277.1,433.7 275.6,432.1 274.9,429.9 273.2,428.7 273.8,426.2 277.6,426.5 280.4,425.3 280.9,422.8 282.0,422.2 280.7,421.2 281.5,418.1 280.2,414.7 280.2,411.9 282.9,411.6 282.0,409.4 284.0,408.8 284.6,407.5 285.7,402.5 285.3,399.7 284.6,397.5 285.1,396.0 283.1,393.2 283.1,391.0 284.6,390.7 287.0,389.1 288.8,386.6 289.7,384.8 292.7,381.7 296.5,383.2 298.7,382.3 299.6,380.1 301.3,379.2 300.2,376.4 300.9,370.8 299.6,369.8 299.8,365.1 301.8,364.8 303.5,363.6 301.5,359.5 306.8,359.2 307.9,360.5 307.9,361.4 309.7,363.0 313.8,358.9 312.1,359.2 313.6,353.3 313.0,351.7 313.8,350.5 313.6,349.3 314.5,348.6 313.8,347.7 311.9,347.7 310.8,345.5 307.3,345.8 307.7,343.6 307.7,341.5 303.3,340.5 299.1,339.9 298.7,340.2 296.0,337.1 296.5,333.1 297.8,331.2 297.6,326.8 296.0,325.3 294.9,322.5 298.0,319.3 297.1,316.5 298.5,315.0 299.1,311.9 301.3,309.4 301.3,305.9 303.5,305.0 303.5,303.5 302.0,301.6 298.5,299.7 297.4,298.2 299.6,296.9 299.6,295.4 302.2,295.4 303.5,296.3 301.8,297.2 302.6,298.2 304.4,297.8 305.3,298.8 307.7,297.5 309.9,294.7 309.7,292.9 308.4,290.4 308.6,287.3 307.5,286.3 302.9,285.1 299.3,285.7 295.8,285.1 293.8,285.4 293.0,286.3 289.5,285.1 288.4,284.1 284.6,282.9 282.9,283.8 281.3,282.0 279.8,282.6 278.7,284.1 277.6,282.6 274.9,282.3 273.8,283.5 272.3,282.9 274.5,282.0 276.7,280.4 276.3,278.5 276.5,275.4 277.6,274.2 275.6,270.4 276.9,270.1 276.7,267.9 277.4,265.4 276.5,264.5 274.9,264.8 274.1,263.3 276.5,263.3 276.5,262.0 278.0,262.3 278.0,261.1 281.1,258.9 282.6,256.1 279.8,254.2 280.0,252.7 278.7,250.2 277.1,250.8 276.0,249.9 275.2,251.4 265.3,256.4 263.7,256.4 251.2,259.5 243.7,259.2 239.8,258.3 236.5,250.2 238.5,246.8 238.5,242.1 239.8,240.5 242.2,238.7 245.3,238.0 247.7,236.2 250.1,233.4 248.6,231.2 248.6,229.0 247.9,228.4 250.1,226.5 250.1,225.3 247.5,222.1 243.5,220.9 239.8,218.1 237.1,219.6 236.0,217.2 237.8,214.7 239.8,213.1 237.8,212.2 236.5,213.4 232.7,213.1 230.1,215.0 224.2,216.2 219.6,216.8 216.9,218.1 215.6,216.8 214.9,218.1 212.3,219.6 207.9,221.8 206.4,223.1 201.5,225.6 202.9,220.0 204.8,218.1 206.6,211.2 204.8,208.4 200.4,200.3 202.9,197.8 204.4,203.8 205.3,205.0 210.3,203.1 212.1,201.3 215.6,199.1 217.4,197.2 218.0,194.4 220.4,193.5 221.3,195.7 224.4,195.3 225.9,197.5 227.9,196.9 229.7,193.8 230.1,191.9 236.0,191.0 237.6,188.8 238.9,185.4 241.3,181.3 244.0,179.8 243.3,177.3 244.2,176.3 248.4,174.8 248.6,176.0 249.7,175.4 250.3,178.2 252.1,178.2 253.6,176.3 255.4,176.7 259.1,175.7 261.5,176.3 265.1,174.8 263.7,172.9 262.4,172.3 263.1,171.0 263.5,168.2 267.9,166.4 268.1,162.9 267.3,162.0 268.1,161.4 266.8,160.5 273.6,159.8 276.9,160.1 276.5,161.4 280.0,162.3 282.0,162.3 284.0,162.9 287.7,162.9 288.4,162.6 291.6,163.3 298.0,162.3 300.4,161.4 302.2,159.8 304.0,158.6 305.1,156.7 306.6,156.7 311.2,155.5 314.3,153.9 314.5,154.2 320.2,154.5 321.5,154.2 321.8,155.5 323.7,156.4 327.7,155.8 331.9,156.4 335.8,156.4 337.8,157.6 340.0,158.0 347.5,153.3 351.9,152.4 353.6,151.4 351.4,153.3 351.2,156.7 349.5,158.0 349.0,159.5 348.1,160.1 345.5,160.5 337.6,163.6 335.4,165.7 334.7,167.9 333.2,169.5 327.9,170.1 322.4,173.5 323.3,176.3 320.7,177.6 318.2,179.5 313.4,181.3 311.2,183.2 309.5,183.2 305.7,184.1 307.3,187.6 308.8,192.2 311.2,191.3 311.9,192.5 314.1,193.8 315.2,195.7 316.9,200.0 314.9,200.6 315.2,201.9 317.4,202.2 318.9,201.3 321.1,201.6 322.4,200.3 322.9,198.8 325.9,197.2 325.7,195.7 326.4,194.1 328.1,196.3 329.7,195.3 329.7,192.9 331.0,193.2 335.4,192.5 335.4,195.0 334.5,195.3 336.0,196.6 336.7,198.5 338.0,197.8 340.2,199.1 338.7,200.3 339.1,201.0 336.9,202.8 336.0,203.8 333.8,204.7 331.0,203.4 329.5,203.8 327.5,205.0 327.5,207.2 324.6,208.1 323.7,209.7 325.5,211.5 326.6,211.2 326.2,212.5 327.3,213.7 325.3,213.1 324.4,214.0 322.0,214.4 319.6,215.3 317.6,214.0 316.7,214.7 316.0,212.8 312.3,214.4 312.1,215.9 315.4,221.8 316.7,223.1 321.5,222.1 323.1,220.9 324.0,221.5 326.2,220.6 327.3,222.8 326.2,224.6 326.6,226.8 327.7,228.7 328.8,229.0 333.8,227.1 335.4,224.9 334.5,223.7 332.3,219.6 332.3,218.4 339.1,215.6 341.8,213.7 344.0,211.5 344.0,210.6 345.9,206.6 347.5,205.6 345.3,202.5 348.6,200.6 350.5,202.2 353.4,200.0 354.7,199.4 356.0,201.3 357.4,200.6 358.7,202.2 359.8,205.9 361.1,204.4 362.4,204.7 365.9,203.8 370.5,204.7 371.4,204.1 372.7,205.6 374.5,204.7 374.1,201.6 376.0,199.4 378.9,199.4 380.0,195.0 378.5,194.4 379.1,192.5 376.5,189.4 373.2,189.1 374.1,187.6 372.7,185.1 373.4,183.8 371.4,182.3 372.5,181.6 371.6,180.4 368.6,181.3 367.0,180.7 365.9,178.2 364.2,177.6 362.0,175.4 362.4,172.9 361.3,168.9 359.8,167.9 358.5,165.7 365.9,164.5 373.4,164.2 376.0,162.6 378.2,162.3 381.5,160.5 382.2,161.4 384.8,162.6 387.7,166.7 388.4,165.7 390.3,167.9 390.3,168.9 392.1,171.4 393.2,171.0 394.7,172.0 397.4,171.7 399.1,168.9 401.3,168.6 401.5,170.4 403.7,172.3 406.8,168.6 407.9,168.6 408.4,170.1 410.1,170.7 412.3,169.2 413.4,172.3 412.5,173.5 413.0,176.3 415.4,178.8 415.4,178.8 414.9,182.6 417.1,184.1 417.6,186.3 418.7,188.8 420.0,190.1 420.9,193.2 423.5,195.0 425.1,198.5 423.5,200.0 423.5,203.4 424.4,205.6 426.6,208.1 426.6,210.9 425.3,212.2 422.0,213.7 421.3,215.6 421.8,217.2 423.3,217.8 422.9,221.5 424.2,222.1 424.8,224.3 423.5,229.3 423.5,229.9 421.3,235.2 423.1,239.0 424.8,239.6 425.3,241.5 427.0,242.4 427.5,244.3 429.0,246.4 428.1,248.0 429.2,249.9 434.3,248.6 436.0,250.5 439.8,249.9 441.1,251.1 439.3,253.9 440.2,258.0 438.5,259.2 438.9,261.7 436.0,263.9 435.8,267.0 433.6,268.6 433.4,270.1 431.4,272.9 428.4,272.3 423.1,275.1 421.5,278.5 424.4,279.8 424.8,282.0 422.9,285.4 422.9,286.3 419.8,287.9 419.1,289.1 419.3,291.9 420.9,292.6 422.0,294.1 421.8,298.8 423.7,302.8 427.9,304.7 433.6,308.1 439.1,312.8 440.7,315.6 440.7,316.9 443.7,319.0 444.8,321.2 447.5,322.2 449.5,320.9 449.9,320.0 451.6,319.7 455.2,317.8 457.6,317.2 460.9,318.4 462.9,317.8 464.0,318.4 465.9,317.8 467.7,318.7 470.5,318.1 470.8,319.0 473.0,321.8 473.2,322.5 475.2,322.5 479.1,324.6 483.1,328.4 485.5,327.1 487.7,325.3 488.6,325.6 492.5,323.4 493.2,324.0 496.5,323.7 499.6,326.5 502.0,326.2 503.3,323.7 507.9,325.6 509.7,328.7 513.2,329.0 517.1,326.2 524.2,320.3 529.9,319.7 531.9,318.1 533.6,318.7 534.9,320.3 536.7,321.2 537.6,323.1 538.0,325.0 542.4,322.5 543.7,323.4 547.0,323.1 549.0,323.4 549.2,325.9 549.0,327.4 547.3,329.3 548.4,330.9 547.7,331.5 547.7,333.7 549.7,336.2 549.0,337.1 549.0,341.2 550.3,342.1 550.1,344.6 550.8,345.8 550.1,348.9 547.7,349.9 542.0,349.3 541.3,348.3 538.7,347.7 538.2,353.6 539.1,355.2 540.4,356.1 540.9,360.2 538.5,359.8 537.4,362.3 536.9,362.7 534.1,366.1 532.5,366.4 531.9,367.6 532.3,372.3 530.1,377.3 530.8,378.9 529.9,381.0 531.0,382.0 528.1,385.4 527.9,386.3 524.8,388.8 520.4,389.4 519.6,391.3 517.6,393.5 513.8,394.4 513.2,396.0 508.4,397.2 507.5,398.5 504.0,399.4 500.2,399.4 492.7,400.7 491.4,401.3 489.0,400.4 489.0,397.9 483.7,397.9 479.8,396.3 478.5,396.3 475.8,393.2 469.5,391.6 467.7,390.4 464.8,391.3 464.2,391.9 462.6,390.4 460.0,390.1 457.6,388.2 454.1,388.2 450.8,389.8 449.2,390.1 447.7,392.9 446.4,392.9 444.2,393.8 442.4,396.3 444.8,400.0 444.2,402.5 441.3,405.0 438.2,405.3 436.5,406.6 436.0,408.5 433.8,409.4 433.8,410.3 432.1,410.6 431.4,411.9 430.1,411.9 427.9,413.1 422.2,414.7 420.4,414.7 415.8,415.0 413.0,416.9 412.3,418.1 406.4,420.6 403.7,422.8 402.0,425.3 399.3,426.5 398.2,427.8 391.9,432.1 389.7,432.4 388.4,434.3 387.0,434.6 384.2,432.8 383.3,431.2 370.5,426.2 368.6,425.0 366.8,427.1 364.8,427.5 365.1,429.9 363.7,431.8 362.6,431.8 362.9,433.7 362.0,435.6 357.6,433.7 354.5,434.9 353.0,434.6 348.6,435.9 347.3,438.7 349.9,440.5 351.2,440.9 353.0,442.4 349.9,444.0 349.5,445.8 346.8,446.8 342.4,446.5 341.3,448.3 337.6,447.7 337.8,446.2 336.7,444.0 334.9,444.0 334.1,445.8 332.7,445.8 331.0,444.3 328.4,444.3 327.3,443.3 324.8,444.9 322.6,444.9 319.6,446.5 318.7,446.2 313.2,451.1 310.8,452.4 309.0,454.3 307.5,454.3 305.3,455.5 300.2,456.4 298.7,453.6 298.7,451.8 299.6,450.2 299.1,446.8 296.7,449.3 294.7,449.3 288.6,452.1 288.4,458.6 286.8,460.5 285.1,461.4 282.2,461.7 279.6,461.1Z"/><path d="M278.2,273.9 278.9,275.4 282.4,273.9 282.6,271.1 278.7,272.9 278.2,273.9Z"/><path d="M379.1,204.1 382.6,204.4 383.5,202.8 384.8,201.6 383.7,201.6 382.2,200.0 380.0,201.6 379.1,204.1Z"/><path d="M353.6,151.4 347.7,152.0 346.8,151.4 348.6,147.7 351.2,145.8 352.3,144.6 354.1,145.2 356.7,149.5 356.0,151.1 353.6,151.4Z"/><path d="M255.8,279.8 256.0,278.2 258.5,277.3 260.4,277.0 260.4,280.7 257.1,282.9 256.7,280.7 255.8,279.8Z"/><path d="M249.2,284.5 251.0,282.0 252.3,283.2 253.6,283.2 250.8,285.7 249.2,285.1 249.2,284.5Z"/><path d="M460.9,318.4 457.6,317.2 455.2,317.8 451.6,319.7 449.9,320.0 449.5,320.9 447.5,322.2 444.8,321.2 443.7,319.0 440.7,316.9 440.7,315.6 439.1,312.8 433.6,308.1 427.9,304.7 423.7,302.8 421.8,298.8 422.0,294.1 420.9,292.6 419.3,291.9 419.1,289.1 419.8,287.9 422.9,286.3 422.9,285.4 424.8,282.0 424.4,279.8 421.5,278.5 423.1,275.1 428.4,272.3 431.4,272.9 433.4,270.1 433.6,268.6 435.8,267.0 436.0,263.9 438.9,261.7 438.5,259.2 440.2,258.0 439.3,253.9 441.1,251.1 439.8,249.9 436.0,250.5 434.3,248.6 429.2,249.9 428.1,248.0 429.0,246.4 427.5,244.3 427.0,242.4 425.3,241.5 424.8,239.6 423.1,239.0 421.3,235.2 423.5,229.9 423.5,229.3 424.8,224.3 424.2,222.1 422.9,221.5 423.3,217.8 421.8,217.2 421.3,215.6 422.0,213.7 425.3,212.2 426.6,210.9 426.6,208.1 424.4,205.6 423.5,203.4 423.5,200.0 425.1,198.5 423.5,195.0 420.9,193.2 420.0,190.1 418.7,188.8 417.6,186.3 417.1,184.1 414.9,182.6 415.4,178.8 415.4,178.8 418.5,179.5 421.5,177.9 427.7,176.3 431.0,176.0 433.4,177.9 436.0,178.5 438.9,176.3 442.4,172.9 440.0,169.2 439.6,167.0 441.1,165.7 444.4,166.1 444.8,166.4 447.9,166.1 449.7,164.2 451.9,166.4 451.9,167.9 454.5,171.0 454.3,176.0 457.1,177.0 457.4,176.7 462.0,175.7 464.6,174.8 463.3,172.3 464.6,172.0 466.4,172.6 467.9,171.0 470.1,170.1 472.5,170.7 474.1,173.2 474.7,175.7 476.9,176.0 478.2,177.0 480.7,175.1 482.9,174.8 486.8,174.2 489.2,172.9 490.1,173.8 490.3,175.4 489.5,177.0 486.4,177.0 485.1,177.6 486.4,178.5 485.9,179.5 487.3,180.7 489.0,181.0 489.5,182.9 491.6,182.6 493.2,181.3 495.8,181.6 495.4,180.4 495.6,176.3 496.5,174.8 498.9,173.5 500.9,166.7 504.0,167.0 504.6,164.5 505.3,164.5 505.7,162.9 507.9,162.6 508.4,163.9 510.3,163.6 510.3,164.5 512.1,164.2 513.4,164.8 515.8,167.0 516.7,167.3 515.4,169.2 515.8,171.0 516.7,173.2 517.8,173.2 519.1,175.4 520.4,181.9 521.1,182.9 521.1,184.8 522.2,185.1 523.3,190.7 524.8,192.9 525.3,196.6 526.4,198.2 527.3,200.6 529.5,203.1 530.3,206.6 533.2,207.5 533.4,208.4 536.5,208.4 538.2,209.1 540.2,209.1 541.3,208.1 542.4,211.2 541.8,212.5 542.6,213.7 546.2,213.1 547.7,211.9 549.7,211.5 550.5,216.5 553.2,215.6 556.5,212.5 559.1,216.5 559.1,220.6 555.4,219.0 555.2,217.5 552.7,217.5 549.7,216.2 549.5,217.5 546.8,218.1 546.8,219.0 543.7,219.6 540.7,223.1 541.1,225.3 540.2,227.1 536.3,229.9 536.7,233.0 538.7,233.4 545.3,231.8 547.7,232.4 548.8,234.0 550.3,234.6 552.7,236.8 554.1,237.1 556.0,239.6 557.1,240.2 560.9,244.3 563.7,245.2 563.7,248.0 562.6,250.5 560.9,251.7 556.9,253.0 553.6,253.0 553.8,248.9 544.8,246.8 544.4,252.7 542.0,252.4 537.8,251.7 535.6,252.4 535.2,246.4 531.9,245.8 524.4,255.5 520.9,252.1 519.1,252.7 515.4,252.7 514.3,253.6 511.9,252.7 509.2,252.4 506.8,253.9 504.4,256.4 503.1,254.5 500.9,254.2 498.7,258.3 500.9,260.5 500.9,261.4 495.2,262.3 491.9,260.8 486.8,263.0 483.7,265.1 484.0,266.7 486.8,271.1 480.4,276.0 477.8,280.1 475.2,285.4 474.3,284.8 474.1,282.6 474.7,280.7 471.6,279.5 470.3,280.4 469.0,283.5 466.2,284.5 465.3,286.9 466.4,291.3 465.1,293.5 465.1,296.0 464.0,296.0 463.7,297.5 461.8,300.3 460.7,300.7 460.0,302.8 460.9,305.0 465.1,311.9 464.8,313.4 462.9,314.7 463.3,315.9 460.9,318.4Z"/><path d="M555.8,399.1 554.5,398.5 552.7,396.6 551.4,397.2 549.2,396.6 544.8,394.1 542.4,385.7 540.9,383.8 540.0,381.0 540.9,377.9 540.2,376.7 542.2,374.5 543.1,371.7 543.3,367.3 543.1,365.1 543.5,361.7 542.6,360.2 540.9,360.2 540.4,356.1 539.1,355.2 538.2,353.6 538.7,347.7 541.3,348.3 542.0,349.3 547.7,349.9 550.1,348.9 550.8,345.8 550.1,344.6 550.3,342.1 549.0,341.2 549.0,337.1 549.7,336.2 547.7,333.7 547.7,331.5 548.4,330.9 547.3,329.3 549.0,327.4 549.2,325.9 552.1,324.0 556.3,324.0 558.9,322.8 558.2,320.3 556.0,317.8 556.5,314.7 554.7,315.6 552.7,314.1 554.5,314.7 556.9,312.8 556.9,311.6 555.8,310.3 557.1,308.1 557.1,305.9 558.7,302.8 560.9,301.9 562.2,300.0 560.2,297.8 558.2,297.5 556.3,296.3 554.3,297.2 553.4,295.4 554.5,293.2 553.4,291.3 556.0,288.5 553.4,283.8 551.4,283.5 552.7,281.6 556.5,280.4 557.6,277.3 560.2,277.3 561.3,278.5 564.8,277.0 565.1,276.0 567.5,275.7 570.3,274.5 571.2,272.6 570.5,270.7 573.0,270.7 572.7,263.6 573.8,262.6 574.3,260.5 575.4,259.8 577.1,257.3 576.3,255.2 578.9,253.9 582.0,255.2 583.3,256.1 582.9,259.8 583.3,261.7 583.5,267.0 587.9,266.7 588.8,267.6 592.7,267.9 595.2,268.9 597.8,269.5 603.1,268.6 604.0,269.8 604.6,272.9 604.0,274.2 604.6,276.0 606.2,277.6 609.2,276.7 611.0,274.2 615.4,272.6 620.2,270.1 621.8,272.9 624.8,273.5 625.7,272.0 628.8,270.1 629.7,271.1 632.5,272.0 633.2,273.2 632.5,277.0 634.5,280.7 637.4,279.2 637.6,283.2 637.1,286.0 638.2,287.9 640.2,285.7 640.0,284.8 642.9,284.8 646.2,282.3 647.5,282.3 649.5,280.4 650.3,280.7 656.3,277.0 658.0,281.3 660.2,283.8 661.1,286.9 660.9,290.7 658.0,292.2 655.8,293.8 652.1,295.7 650.5,295.4 647.7,298.8 645.9,299.4 642.6,301.3 642.9,303.5 644.6,305.3 644.2,308.1 643.3,309.4 643.5,310.3 641.8,312.2 639.8,312.5 638.2,314.4 636.9,315.0 637.1,316.2 634.1,315.9 632.7,316.5 632.5,318.4 633.2,323.4 634.1,324.6 633.4,325.6 632.1,325.0 630.8,325.9 629.7,328.4 629.7,330.3 628.8,331.5 629.5,334.0 626.4,335.5 624.6,335.9 622.6,336.8 621.5,335.2 620.0,331.5 619.1,331.5 614.9,334.3 614.3,336.5 615.4,339.0 610.5,343.0 608.4,343.6 608.4,344.6 606.6,345.8 604.6,344.3 603.1,344.9 601.8,347.4 600.4,347.1 598.9,348.0 599.1,350.5 598.9,354.6 599.8,356.4 597.1,359.2 596.0,359.2 594.5,361.1 595.4,361.7 595.4,363.6 593.8,366.1 595.2,366.7 595.4,368.6 597.6,370.4 599.6,370.4 599.8,371.7 600.2,375.1 599.6,377.0 600.4,378.2 600.7,380.1 599.8,383.2 598.7,383.2 595.8,384.8 595.4,386.3 591.4,387.9 589.5,387.3 589.0,384.8 587.0,383.5 585.1,384.5 580.4,384.8 578.5,383.8 576.9,381.7 574.9,382.6 572.3,382.6 569.2,381.0 566.6,382.3 565.3,383.8 565.3,387.0 563.7,389.1 564.0,391.9 565.3,394.4 564.8,395.7 561.5,396.9 556.9,397.5 555.8,399.1Z"/><path d="M656.3,277.0 650.3,280.7 649.5,280.4 647.5,282.3 646.2,282.3 642.9,284.8 640.0,284.8 640.2,285.7 638.2,287.9 637.1,286.0 637.6,283.2 637.4,279.2 634.5,280.7 632.5,277.0 633.2,273.2 632.5,272.0 629.7,271.1 628.8,270.1 625.7,272.0 624.8,273.5 621.8,272.9 620.2,270.1 615.4,272.6 611.0,274.2 609.2,276.7 606.2,277.6 604.6,276.0 604.0,274.2 604.6,272.9 604.0,269.8 603.1,268.6 597.8,269.5 595.2,268.9 592.7,267.9 588.8,267.6 587.9,266.7 583.5,267.0 583.3,261.7 582.9,259.8 583.3,256.1 582.0,255.2 578.9,253.9 576.3,255.2 569.9,258.3 564.8,258.3 560.0,259.2 553.0,256.7 553.6,253.0 556.9,253.0 560.9,251.7 562.6,250.5 563.7,248.0 563.7,245.2 560.9,244.3 557.1,240.2 556.0,239.6 554.1,237.1 552.7,236.8 550.3,234.6 548.8,234.0 547.7,232.4 545.3,231.8 538.7,233.4 536.7,233.0 536.3,229.9 540.2,227.1 541.1,225.3 540.7,223.1 543.7,219.6 546.8,219.0 546.8,218.1 549.5,217.5 549.7,216.2 552.7,217.5 555.2,217.5 555.4,219.0 559.1,220.6 565.3,224.0 566.2,223.4 571.2,222.8 574.3,222.8 574.9,226.8 576.9,226.2 580.4,224.9 581.8,223.4 584.4,223.4 585.3,222.5 590.8,222.8 592.5,222.1 592.7,220.9 594.5,218.4 595.8,217.2 595.8,216.2 598.5,215.9 598.5,214.7 600.4,213.1 601.3,209.1 601.3,207.8 602.6,205.9 604.8,204.7 604.2,204.4 603.7,201.3 603.1,201.0 602.9,199.4 601.5,198.5 600.2,196.3 600.4,194.7 602.0,193.2 603.3,191.0 605.3,190.4 605.3,189.1 607.0,189.4 613.6,186.0 621.5,183.8 625.1,182.6 628.4,183.2 631.4,186.0 634.9,186.9 636.9,186.9 657.8,184.1 660.7,184.8 663.5,184.1 664.8,185.7 663.7,186.3 663.1,190.4 661.1,189.7 662.2,196.0 664.2,196.3 666.4,194.7 668.8,195.7 671.6,197.8 669.0,201.0 665.1,207.2 663.3,209.4 663.7,211.5 662.9,214.0 664.8,216.2 663.7,218.1 664.2,219.6 661.8,220.6 660.4,223.4 664.6,225.6 662.9,227.7 659.3,234.3 659.1,236.5 657.6,237.1 656.7,238.3 653.6,239.9 651.6,239.6 648.6,240.5 649.5,243.6 647.0,244.6 651.0,246.8 651.2,249.2 652.3,250.8 654.9,253.0 655.6,254.9 657.6,256.7 655.6,257.7 658.7,262.3 659.6,262.3 661.1,263.9 664.4,264.8 662.2,266.7 662.0,268.3 660.7,271.1 662.2,274.8 659.1,275.1 656.3,277.0Z"/><path d="M531.9,318.1 529.9,319.7 524.2,320.3 517.1,326.2 513.2,329.0 509.7,328.7 507.9,325.6 503.3,323.7 502.0,326.2 499.6,326.5 496.5,323.7 493.2,324.0 492.5,323.4 488.6,325.6 487.7,325.3 485.5,327.1 483.1,328.4 479.1,324.6 475.2,322.5 473.2,322.5 473.0,321.8 470.8,319.0 470.5,318.1 467.7,318.7 465.9,317.8 464.0,318.4 462.9,317.8 460.9,318.4 463.3,315.9 462.9,314.7 464.8,313.4 465.1,311.9 460.9,305.0 460.0,302.8 460.7,300.7 461.8,300.3 463.7,297.5 464.0,296.0 465.1,296.0 465.1,293.5 466.4,291.3 465.3,286.9 466.2,284.5 469.0,283.5 470.3,280.4 471.6,279.5 474.7,280.7 474.1,282.6 474.3,284.8 475.2,285.4 477.8,280.1 480.4,276.0 486.8,271.1 484.0,266.7 483.7,265.1 486.8,263.0 491.9,260.8 495.2,262.3 500.9,261.4 500.9,260.5 504.4,259.8 506.6,258.3 510.1,258.6 514.3,259.5 516.7,258.9 518.2,259.5 519.1,261.7 518.0,265.8 518.9,267.0 517.1,267.9 514.7,270.7 514.1,272.6 516.7,273.9 518.9,275.4 521.8,275.1 525.1,273.9 525.7,274.8 525.3,277.3 526.2,278.5 524.6,282.3 525.3,284.8 524.8,286.3 523.1,290.1 523.1,291.9 524.2,292.9 524.4,295.4 523.5,296.6 522.9,299.7 523.1,301.3 524.4,303.8 524.4,305.6 521.8,307.5 522.4,309.7 525.5,312.5 526.6,314.4 530.3,316.2 531.9,318.1Z"/><path d="M549.2,325.9 549.0,323.4 547.0,323.1 543.7,323.4 542.4,322.5 538.0,325.0 537.6,323.1 542.4,320.9 544.6,322.2 544.2,320.3 543.1,317.8 540.4,317.2 538.9,315.6 538.0,315.6 535.4,313.1 536.0,310.3 533.0,309.1 533.6,307.5 532.3,303.5 532.3,295.7 530.8,295.7 530.8,293.2 531.9,293.2 532.5,291.0 534.1,291.0 535.2,293.5 533.4,295.7 533.2,299.4 534.5,296.6 535.2,297.2 538.5,294.1 540.0,293.8 541.5,292.6 542.6,294.7 542.9,298.2 545.3,298.8 547.3,297.5 554.3,297.2 556.3,296.3 558.2,297.5 560.2,297.8 562.2,300.0 560.9,301.9 558.7,302.8 557.1,305.9 557.1,308.1 555.8,310.3 556.9,311.6 556.9,312.8 554.5,314.7 552.7,314.1 554.7,315.6 556.5,314.7 556.0,317.8 558.2,320.3 558.9,322.8 556.3,324.0 552.1,324.0 549.2,325.9Z"/><path d="M537.6,323.1 536.7,321.2 534.9,320.3 533.6,318.7 531.9,318.1 530.3,316.2 526.6,314.4 525.5,312.5 522.4,309.7 521.8,307.5 524.4,305.6 524.4,303.8 523.1,301.3 522.9,299.7 523.5,296.6 524.4,295.4 524.2,292.9 523.1,291.9 523.1,290.1 524.8,286.3 525.3,284.8 524.6,282.3 526.2,278.5 525.3,277.3 525.7,274.8 525.1,273.9 521.8,275.1 518.9,275.4 516.7,273.9 514.1,272.6 514.7,270.7 517.1,267.9 518.9,267.0 518.0,265.8 519.1,261.7 518.2,259.5 516.7,258.9 514.3,259.5 510.1,258.6 506.6,258.3 504.4,259.8 500.9,260.5 498.7,258.3 500.9,254.2 503.1,254.5 504.4,256.4 506.8,253.9 509.2,252.4 511.9,252.7 514.3,253.6 515.4,252.7 519.1,252.7 520.9,252.1 524.4,255.5 531.9,245.8 535.2,246.4 535.6,252.4 537.8,251.7 542.0,252.4 544.4,252.7 544.8,246.8 553.8,248.9 553.6,253.0 553.0,256.7 560.0,259.2 564.8,258.3 569.9,258.3 576.3,255.2 577.1,257.3 575.4,259.8 574.3,260.5 573.8,262.6 572.7,263.6 573.0,270.7 570.5,270.7 571.2,272.6 570.3,274.5 567.5,275.7 565.1,276.0 564.8,277.0 561.3,278.5 560.2,277.3 557.6,277.3 556.5,280.4 552.7,281.6 551.4,283.5 553.4,283.8 556.0,288.5 553.4,291.3 554.5,293.2 553.4,295.4 554.3,297.2 547.3,297.5 545.3,298.8 542.9,298.2 542.6,294.7 541.5,292.6 540.0,293.8 538.5,294.1 535.2,297.2 534.5,296.6 533.2,299.4 533.4,295.7 535.2,293.5 534.1,291.0 532.5,291.0 531.9,293.2 530.8,293.2 530.8,295.7 532.3,295.7 532.3,303.5 533.6,307.5 533.0,309.1 536.0,310.3 535.4,313.1 538.0,315.6 538.9,315.6 540.4,317.2 543.1,317.8 544.2,320.3 544.6,322.2 542.4,320.9 537.6,323.1Z"/><path d="M643.5,310.3 643.3,309.4 644.2,308.1 644.6,305.3 642.9,303.5 642.6,301.3 645.9,299.4 647.7,298.8 650.5,295.4 652.1,295.7 655.8,293.8 658.0,292.2 660.9,290.7 661.1,286.9 660.2,283.8 658.0,281.3 656.3,277.0 659.1,275.1 662.2,274.8 660.7,271.1 662.0,268.3 662.2,266.7 664.4,264.8 661.1,263.9 659.6,262.3 658.7,262.3 655.6,257.7 657.6,256.7 655.6,254.9 654.9,253.0 652.3,250.8 651.2,249.2 651.0,246.8 647.0,244.6 649.5,243.6 648.6,240.5 651.6,239.6 653.6,239.9 656.7,238.3 657.6,237.1 659.1,236.5 659.3,234.3 662.9,227.7 664.6,225.6 660.4,223.4 661.8,220.6 664.2,219.6 663.7,218.1 664.8,216.2 662.9,214.0 663.7,211.5 663.3,209.4 665.1,207.2 669.0,201.0 671.6,197.8 672.3,198.2 683.3,209.4 685.7,211.5 691.4,210.9 693.0,210.6 694.5,211.2 696.0,210.6 700.4,210.9 703.1,211.9 712.3,213.4 712.3,217.8 711.4,221.8 712.3,223.7 712.1,225.6 712.7,229.3 711.0,233.4 707.5,236.5 704.4,237.4 700.9,239.9 705.1,242.7 707.5,243.6 708.8,243.0 710.1,243.9 714.9,241.1 716.0,240.8 718.9,241.8 721.1,243.9 722.6,244.6 723.7,247.1 723.7,249.2 725.5,252.7 724.6,254.5 724.8,256.1 724.0,257.7 724.8,258.6 724.0,263.0 724.8,264.8 722.6,266.1 722.6,269.2 723.1,270.7 725.7,272.3 725.9,274.8 725.3,278.2 723.3,280.7 720.2,281.3 719.3,283.5 717.6,285.7 715.8,287.3 714.5,289.1 711.9,290.4 709.5,289.7 704.2,289.4 705.1,291.3 703.3,291.9 701.5,295.0 698.7,296.0 695.4,298.5 693.6,297.8 693.4,295.7 691.4,293.2 691.4,292.2 687.3,290.7 684.8,290.7 682.6,293.2 680.7,293.8 680.2,296.9 680.7,298.5 679.1,299.7 677.8,302.2 678.0,303.5 676.5,305.0 674.9,308.8 672.5,310.9 668.6,311.6 660.2,312.8 657.4,314.7 654.9,315.0 652.3,314.7 651.4,313.7 651.6,310.9 650.3,311.2 648.4,310.0 643.5,310.3Z"/><path d="M559.1,220.6 559.1,216.5 556.5,212.5 553.2,215.6 550.5,216.5 549.7,211.5 547.7,211.9 546.2,213.1 542.6,213.7 541.8,212.5 542.4,211.2 541.3,208.1 542.0,207.2 541.3,203.8 542.0,202.8 542.0,200.3 540.9,197.5 539.1,196.9 538.7,195.0 538.9,192.9 539.8,191.6 538.7,187.6 538.9,185.1 538.0,183.5 537.8,180.7 540.0,178.2 540.9,174.5 542.4,177.0 542.6,181.6 543.3,182.3 547.7,181.9 549.2,183.5 551.0,183.8 552.3,185.4 553.4,185.4 554.7,186.3 557.1,186.9 558.2,186.3 561.1,186.0 563.5,184.8 563.5,183.5 567.7,184.1 567.9,182.9 570.8,182.9 572.5,182.3 573.8,183.5 578.9,184.1 578.7,186.3 581.5,186.0 582.0,186.6 582.4,189.1 584.0,188.2 586.2,190.1 587.0,193.5 588.8,196.3 588.1,198.2 591.4,198.5 591.9,199.4 594.1,198.8 595.8,199.1 596.0,201.9 599.1,202.2 600.4,201.6 603.1,201.0 603.7,201.3 604.2,204.4 604.8,204.7 602.6,205.9 601.3,207.8 601.3,209.1 600.4,213.1 598.5,214.7 598.5,215.9 595.8,216.2 595.8,217.2 594.5,218.4 592.7,220.9 592.5,222.1 590.8,222.8 585.3,222.5 584.4,223.4 581.8,223.4 580.4,224.9 576.9,226.2 574.9,226.8 574.3,222.8 571.2,222.8 566.2,223.4 565.3,224.0 559.1,220.6Z"/><path d="M283.1,391.0 280.4,392.6 278.2,395.7 276.5,397.5 275.2,394.7 273.2,393.2 271.0,396.0 265.9,399.4 263.5,398.8 261.8,401.6 260.9,405.0 258.0,408.1 255.2,409.4 254.1,411.3 250.5,411.9 247.9,411.3 246.8,411.9 245.3,411.3 242.2,413.4 239.6,415.6 235.4,420.3 234.9,424.3 233.6,424.3 229.9,426.5 227.3,426.8 229.2,423.7 228.6,422.5 226.4,420.0 226.2,415.9 226.8,415.3 225.1,413.7 224.8,410.6 223.3,410.0 220.9,407.2 216.3,407.2 214.5,405.3 211.2,404.1 209.2,403.8 207.9,405.3 208.6,403.2 208.1,401.3 205.1,403.8 201.1,408.1 200.7,409.7 197.6,409.7 195.4,407.8 194.1,406.3 193.6,404.1 192.3,404.1 189.2,400.0 190.8,397.9 191.0,396.3 192.5,394.7 192.5,396.0 195.8,396.0 198.5,394.7 200.0,396.6 199.8,398.2 202.0,394.7 206.2,390.1 209.5,388.8 208.6,385.7 206.4,386.6 205.5,388.5 204.4,387.0 203.3,387.6 202.0,384.2 200.0,382.9 197.1,381.7 194.5,384.2 192.1,383.8 191.4,381.7 190.1,381.0 189.9,383.5 188.1,383.5 187.7,384.5 185.7,384.2 186.8,382.0 187.0,379.2 186.6,376.7 187.3,376.4 187.7,373.9 187.7,370.1 187.0,367.3 186.4,366.4 186.8,364.2 187.7,362.3 186.8,361.7 188.6,360.8 191.0,361.7 192.7,358.3 194.3,357.0 196.7,357.7 196.3,358.3 198.9,359.2 200.0,358.0 202.0,357.7 201.1,356.4 202.9,353.9 201.1,352.7 200.7,351.4 202.0,349.9 203.1,350.8 204.8,348.6 206.6,347.4 207.7,345.2 207.3,344.6 209.9,341.2 212.7,339.6 215.6,336.2 218.0,331.2 215.8,328.7 213.6,329.3 212.7,328.7 210.8,328.4 210.8,327.8 212.1,325.9 213.4,326.8 216.7,323.1 216.0,322.2 217.4,320.0 219.1,319.0 220.0,319.7 221.5,318.1 221.3,316.2 223.5,313.4 221.5,310.9 221.5,308.1 223.3,305.3 224.8,306.9 227.7,307.5 229.2,304.7 227.9,303.5 228.6,300.7 227.0,300.0 225.9,298.8 226.8,296.3 225.9,295.4 226.4,293.8 228.6,291.3 225.1,287.3 221.5,288.8 224.2,293.2 223.1,293.8 219.1,288.5 218.0,288.2 217.4,286.3 214.1,284.8 215.6,283.2 213.6,281.3 208.1,275.1 215.2,266.7 222.2,274.2 223.1,275.4 225.3,276.4 226.2,275.7 228.1,277.6 227.0,278.8 226.8,280.1 230.1,283.8 233.0,286.6 229.5,289.7 231.0,291.3 232.7,291.6 234.3,290.4 234.5,289.1 235.6,290.4 236.5,290.1 238.7,291.6 237.6,293.5 239.3,296.0 238.2,296.6 237.6,298.8 239.1,300.0 240.2,299.7 241.8,297.2 242.6,296.9 244.6,293.5 246.4,291.9 246.2,290.4 244.4,289.4 244.4,288.2 249.2,284.5 249.2,285.1 250.8,285.7 253.6,283.2 252.3,283.2 251.0,282.0 250.3,280.4 243.7,271.1 244.4,270.1 244.2,265.8 243.5,264.5 244.6,261.1 242.2,258.9 239.8,258.3 239.8,258.3 243.7,259.2 251.2,259.5 263.7,256.4 265.3,256.4 275.2,251.4 276.0,249.9 277.1,250.8 278.7,250.2 280.0,252.7 279.8,254.2 282.6,256.1 281.1,258.9 278.0,261.1 278.0,262.3 276.5,262.0 276.5,263.3 274.1,263.3 274.9,264.8 276.5,264.5 277.4,265.4 276.7,267.9 276.9,270.1 275.6,270.4 277.6,274.2 276.5,275.4 276.3,278.5 276.7,280.4 274.5,282.0 272.3,282.9 273.8,283.5 274.9,282.3 277.6,282.6 278.7,284.1 279.8,282.6 281.3,282.0 282.9,283.8 284.6,282.9 288.4,284.1 289.5,285.1 293.0,286.3 293.8,285.4 295.8,285.1 299.3,285.7 302.9,285.1 307.5,286.3 308.6,287.3 308.4,290.4 309.7,292.9 309.9,294.7 307.7,297.5 305.3,298.8 304.4,297.8 302.6,298.2 301.8,297.2 303.5,296.3 302.2,295.4 299.6,295.4 299.6,296.9 297.4,298.2 298.5,299.7 302.0,301.6 303.5,303.5 303.5,305.0 301.3,305.9 301.3,309.4 299.1,311.9 298.5,315.0 297.1,316.5 298.0,319.3 294.9,322.5 296.0,325.3 297.6,326.8 297.8,331.2 296.5,333.1 296.0,337.1 298.7,340.2 299.1,339.9 303.3,340.5 307.7,341.5 307.7,343.6 307.3,345.8 310.8,345.5 311.9,347.7 313.8,347.7 314.5,348.6 313.6,349.3 313.8,350.5 313.0,351.7 313.6,353.3 312.1,359.2 313.8,358.9 309.7,363.0 307.9,361.4 307.9,360.5 306.8,359.2 301.5,359.5 303.5,363.6 301.8,364.8 299.8,365.1 299.6,369.8 300.9,370.8 300.2,376.4 301.3,379.2 299.6,380.1 298.7,382.3 296.5,383.2 292.7,381.7 289.7,384.8 288.8,386.6 287.0,389.1 284.6,390.7 283.1,391.0Z"/><path d="M255.8,279.8 256.7,280.7 257.1,282.9 260.4,280.7 260.4,277.0 258.5,277.3 256.0,278.2 255.8,279.8Z"/><path d="M201.3,280.1 206.6,286.9 210.5,289.7 211.4,289.1 213.6,292.2 211.4,293.5 211.0,292.6 207.0,294.1 208.1,295.4 211.9,293.8 214.9,297.2 215.8,297.5 213.4,299.4 210.5,303.8 210.1,306.6 211.4,310.3 210.1,312.5 211.4,313.4 213.4,310.9 216.0,312.8 213.6,315.3 212.5,317.8 212.7,319.0 211.4,320.6 210.5,319.3 207.7,321.5 206.4,321.2 204.4,322.2 201.1,320.3 199.8,318.1 197.8,319.3 196.5,320.9 195.6,320.3 194.3,322.2 193.2,321.5 192.5,322.8 190.1,320.9 188.1,318.7 186.4,319.7 183.3,316.2 182.0,317.8 182.2,316.2 184.2,314.4 183.5,313.4 182.4,314.1 174.3,305.6 182.6,297.8 201.3,280.1Z"/><path d="M184.2,336.5 185.5,334.3 186.4,334.9 190.5,333.7 190.3,332.7 193.6,328.7 193.4,328.1 196.9,325.0 197.8,322.2 198.5,322.5 200.7,325.6 204.0,328.1 205.1,329.9 201.3,335.2 202.0,336.5 201.1,337.7 197.1,336.8 194.1,334.6 190.8,334.9 189.5,336.8 185.5,337.4 184.2,336.5Z"/><path d="M175.6,335.5 176.5,334.0 177.8,333.7 180.2,331.2 181.1,329.3 183.7,330.6 183.3,335.2 182.0,336.5 182.0,337.4 180.4,339.0 178.7,340.2 177.8,337.4 175.6,335.5Z"/><path d="M278.2,273.9 278.7,272.9 282.6,271.1 282.4,273.9 278.9,275.4 278.2,273.9Z"/><path d="M353.6,151.4 356.0,151.1 356.7,149.5 354.1,145.2 352.3,144.6 349.5,143.6 349.9,141.4 349.7,139.6 345.5,138.3 346.2,136.2 341.5,136.2 338.0,136.8 336.3,136.2 332.3,136.5 327.3,133.3 327.5,131.8 328.4,130.9 327.9,127.1 329.9,127.4 329.7,126.2 331.4,126.8 333.0,126.5 335.8,126.8 335.8,129.9 336.7,130.9 338.9,131.8 341.8,131.8 343.1,130.9 344.8,130.9 347.7,126.5 346.4,123.7 350.3,123.1 355.4,123.1 358.7,122.8 356.0,120.9 355.6,119.6 356.0,115.9 358.2,116.5 358.7,118.4 361.1,117.1 363.3,117.8 366.2,117.1 366.4,113.1 367.7,109.7 367.7,108.1 368.6,107.8 367.0,106.2 363.7,105.3 364.6,104.1 364.4,99.4 365.9,99.4 369.2,100.9 371.9,101.6 372.5,100.6 375.2,100.0 373.4,98.8 374.3,97.5 377.4,97.2 377.1,98.8 377.8,100.6 384.8,102.2 387.0,105.6 384.8,108.1 384.4,110.3 383.3,110.3 381.5,112.5 381.1,115.3 381.8,116.8 380.4,121.8 376.9,124.3 375.4,124.6 370.1,124.3 371.0,131.8 370.5,133.3 371.9,133.3 372.5,137.7 385.3,135.8 390.8,137.1 392.3,140.5 394.1,143.0 396.7,144.9 399.3,145.2 400.0,146.4 405.5,146.4 405.7,142.4 407.3,139.3 411.6,138.6 414.1,137.7 414.9,135.8 417.8,134.0 420.7,133.0 422.0,133.3 424.4,131.2 422.9,130.2 422.0,128.7 424.0,126.8 425.3,126.8 425.3,125.6 426.6,125.2 429.0,127.1 429.7,126.5 431.0,127.7 436.0,125.6 436.5,123.7 440.0,122.1 442.4,120.6 439.8,117.5 439.1,113.1 441.5,110.9 441.3,110.3 443.7,107.8 445.1,108.7 445.3,111.2 446.6,112.2 447.9,118.7 447.3,118.7 442.6,120.6 446.8,123.1 448.4,123.1 449.0,124.0 452.3,125.2 453.2,129.0 456.5,128.7 457.6,132.7 456.5,137.1 453.2,140.8 453.2,143.0 451.4,144.6 452.3,146.1 451.0,147.7 448.8,148.3 447.9,149.5 445.7,151.1 442.0,152.0 439.3,153.0 439.3,148.3 433.0,148.0 430.5,145.8 427.9,149.9 428.4,152.4 426.4,154.8 423.3,154.8 420.0,156.7 418.2,161.7 416.5,164.2 416.3,165.7 414.3,168.2 412.3,169.2 410.1,170.7 408.4,170.1 407.9,168.6 406.8,168.6 403.7,172.3 401.5,170.4 401.3,168.6 399.1,168.9 397.4,171.7 394.7,172.0 393.2,171.0 392.1,171.4 390.3,168.9 390.3,167.9 388.4,165.7 387.7,166.7 384.8,162.6 382.2,161.4 381.5,160.5 378.2,162.3 376.0,162.6 373.4,164.2 365.9,164.5 358.5,165.7 359.8,167.9 361.3,168.9 362.4,172.9 362.0,175.4 364.2,177.6 365.9,178.2 367.0,180.7 368.6,181.3 371.6,180.4 372.5,181.6 371.4,182.3 373.4,183.8 372.7,185.1 374.1,187.6 373.2,189.1 376.5,189.4 379.1,192.5 378.5,194.4 380.0,195.0 378.9,199.4 376.0,199.4 374.1,201.6 374.5,204.7 372.7,205.6 371.4,204.1 370.5,204.7 365.9,203.8 362.4,204.7 361.1,204.4 359.8,205.9 358.7,202.2 357.4,200.6 356.0,201.3 354.7,199.4 353.4,200.0 350.5,202.2 348.6,200.6 345.3,202.5 347.5,205.6 345.9,206.6 344.0,210.6 344.0,211.5 341.8,213.7 339.1,215.6 332.3,218.4 332.3,219.6 334.5,223.7 335.4,224.9 333.8,227.1 328.8,229.0 327.7,228.7 326.6,226.8 326.2,224.6 327.3,222.8 326.2,220.6 324.0,221.5 323.1,220.9 321.5,222.1 316.7,223.1 315.4,221.8 312.1,215.9 312.3,214.4 316.0,212.8 316.7,214.7 317.6,214.0 319.6,215.3 322.0,214.4 324.4,214.0 325.3,213.1 327.3,213.7 326.2,212.5 326.6,211.2 325.5,211.5 323.7,209.7 324.6,208.1 327.5,207.2 327.5,205.0 329.5,203.8 331.0,203.4 333.8,204.7 336.0,203.8 336.9,202.8 339.1,201.0 338.7,200.3 340.2,199.1 338.0,197.8 336.7,198.5 336.0,196.6 334.5,195.3 335.4,195.0 335.4,192.5 331.0,193.2 329.7,192.9 329.7,195.3 328.1,196.3 326.4,194.1 325.7,195.7 325.9,197.2 322.9,198.8 322.4,200.3 321.1,201.6 318.9,201.3 317.4,202.2 315.2,201.9 314.9,200.6 316.9,200.0 315.2,195.7 314.1,193.8 311.9,192.5 311.2,191.3 308.8,192.2 307.3,187.6 305.7,184.1 309.5,183.2 311.2,183.2 313.4,181.3 318.2,179.5 320.7,177.6 323.3,176.3 322.4,173.5 327.9,170.1 333.2,169.5 334.7,167.9 335.4,165.7 337.6,163.6 345.5,160.5 348.1,160.1 349.0,159.5 349.5,158.0 351.2,156.7 351.4,153.3 353.6,151.4Z"/><path d="M328.8,108.1 331.0,104.4 325.3,101.6 323.5,102.2 323.7,101.3 326.6,96.9 331.4,99.7 332.5,99.7 334.5,102.2 335.8,102.5 338.0,101.9 339.3,100.0 341.3,99.1 341.1,98.1 343.3,97.2 343.1,95.3 343.5,96.6 345.5,97.2 347.9,96.9 348.1,99.1 348.8,98.8 348.8,101.3 346.8,104.4 347.5,108.1 344.6,108.4 343.1,109.0 340.4,108.7 336.7,110.0 333.8,110.6 331.4,111.8 329.2,109.7 328.8,108.1Z"/><path d="M314.7,117.5 317.4,116.5 319.6,116.2 319.6,115.3 323.3,113.1 324.0,113.7 327.3,112.8 329.5,115.6 331.0,118.7 329.2,122.8 327.3,123.4 325.1,122.8 323.3,124.0 321.8,124.0 316.3,123.1 313.6,123.1 314.7,117.5Z"/><path d="M379.1,204.1 380.0,201.6 382.2,200.0 383.7,201.6 384.8,201.6 383.5,202.8 382.6,204.4 379.1,204.1Z"/><path d="M353.0,76.0 353.8,74.5 353.4,73.5 355.4,72.0 359.6,72.6 359.6,71.0 360.4,68.2 364.0,69.8 364.0,72.0 367.0,72.3 369.0,70.7 370.8,68.9 372.3,67.6 372.7,66.1 377.6,67.6 379.3,67.6 380.4,66.1 382.4,65.4 378.5,69.2 380.4,70.4 381.3,73.2 382.6,73.8 381.8,75.7 381.1,74.2 378.9,76.3 378.2,75.7 375.6,76.0 373.4,77.6 370.8,76.3 370.3,77.3 368.8,77.0 366.8,77.9 366.8,79.1 367.9,81.0 367.7,83.8 365.7,84.1 363.3,88.2 361.8,90.0 360.7,90.0 360.7,87.9 358.9,86.3 360.0,83.2 358.7,82.6 354.9,81.9 353.2,82.3 353.8,79.8 355.2,78.2 353.0,76.0Z"/><path d="M313.6,123.1 316.3,123.1 321.8,124.0 323.3,124.0 325.1,122.8 327.3,123.4 329.2,122.8 331.0,118.7 329.5,115.6 327.3,112.8 324.0,113.7 323.3,113.1 323.7,111.5 325.3,110.6 325.1,109.7 328.8,108.1 329.2,109.7 331.4,111.8 333.8,110.6 336.7,110.0 340.4,108.7 343.1,109.0 344.6,108.4 347.5,108.1 346.8,104.4 348.8,101.3 348.8,98.8 348.1,99.1 347.9,96.9 345.5,97.2 343.5,96.6 343.1,95.3 342.9,93.2 341.3,91.6 344.0,90.7 345.1,91.6 347.7,87.2 346.8,86.0 345.1,85.4 343.1,87.2 341.3,87.2 340.4,85.1 341.8,82.6 344.6,81.9 347.5,79.1 349.7,78.2 353.0,76.0 355.2,78.2 353.8,79.8 353.2,82.3 354.9,81.9 358.7,82.6 360.0,83.2 358.9,86.3 360.7,87.9 360.7,90.0 361.8,90.0 363.3,88.2 365.7,84.1 367.7,83.8 367.9,81.0 366.8,79.1 366.8,77.9 368.8,77.0 370.3,77.3 372.1,78.5 373.2,81.0 375.8,81.9 377.1,84.1 378.5,85.4 380.7,86.0 384.0,86.0 387.7,83.8 388.4,85.1 390.1,84.7 390.5,85.7 392.1,86.0 393.0,87.5 398.5,88.5 404.6,90.4 404.2,94.1 405.1,95.0 405.3,97.5 408.4,97.2 410.1,95.0 413.8,91.6 414.3,89.4 414.3,85.7 417.1,86.0 418.2,85.1 419.6,86.0 420.9,89.1 422.0,90.0 423.5,89.1 423.3,91.9 425.3,93.5 427.5,94.1 428.6,97.5 429.9,98.5 429.9,100.9 432.7,101.6 436.0,101.9 439.1,100.9 437.6,108.1 439.3,107.5 441.3,109.0 441.3,110.3 441.5,110.9 439.1,113.1 439.8,117.5 442.4,120.6 440.0,122.1 436.5,123.7 436.0,125.6 431.0,127.7 429.7,126.5 429.0,127.1 426.6,125.2 425.3,125.6 425.3,126.8 424.0,126.8 422.0,128.7 422.9,130.2 424.4,131.2 422.0,133.3 420.7,133.0 417.8,134.0 414.9,135.8 414.1,137.7 411.6,138.6 407.3,139.3 405.7,142.4 405.5,146.4 400.0,146.4 399.3,145.2 396.7,144.9 394.1,143.0 392.3,140.5 390.8,137.1 385.3,135.8 372.5,137.7 371.9,133.3 370.5,133.3 371.0,131.8 370.1,124.3 375.4,124.6 376.9,124.3 380.4,121.8 381.8,116.8 381.1,115.3 381.5,112.5 383.3,110.3 384.4,110.3 384.8,108.1 387.0,105.6 384.8,102.2 377.8,100.6 377.1,98.8 377.4,97.2 374.3,97.5 373.4,98.8 375.2,100.0 372.5,100.6 371.9,101.6 369.2,100.9 365.9,99.4 364.4,99.4 364.6,104.1 363.7,105.3 367.0,106.2 368.6,107.8 367.7,108.1 367.7,109.7 366.4,113.1 366.2,117.1 363.3,117.8 361.1,117.1 358.7,118.4 358.2,116.5 356.0,115.9 355.6,119.6 356.0,120.9 358.7,122.8 355.4,123.1 350.3,123.1 346.4,123.7 347.7,126.5 344.8,130.9 343.1,130.9 341.8,131.8 338.9,131.8 336.7,130.9 335.8,129.9 335.8,126.8 333.0,126.5 331.4,126.8 329.7,126.2 329.9,127.4 327.9,127.1 328.4,130.9 327.5,131.8 327.3,133.3 326.2,133.7 321.5,133.3 322.4,132.1 321.8,129.0 318.7,128.4 318.0,126.2 316.3,126.5 315.4,123.4 313.6,123.1Z"/><path d="M302.9,115.0 305.5,114.7 306.8,116.2 308.8,116.8 312.1,116.5 314.7,117.5 313.6,123.1 309.5,122.8 309.0,121.5 305.9,119.0 305.5,118.1 302.6,117.5 302.9,115.0Z"/><path d="M584.0,43.6 584.0,42.7 582.2,42.4 581.3,44.2 579.8,44.2 578.0,45.8 574.9,44.6 574.7,43.0 572.5,43.3 569.5,44.9 569.7,47.0 567.9,46.4 567.9,45.2 566.6,46.1 568.1,49.5 567.7,50.8 565.7,51.1 563.7,50.2 559.1,50.5 559.1,51.7 556.9,51.4 556.5,49.5 554.7,49.5 555.8,51.1 554.3,51.7 555.8,52.7 554.7,53.0 553.4,52.0 552.7,49.8 553.2,47.4 551.2,48.6 550.3,48.0 548.6,48.3 546.6,47.0 545.7,45.5 543.7,44.2 541.3,44.2 540.0,42.1 540.7,40.5 542.4,40.2 543.3,38.9 541.3,35.5 539.6,34.6 542.4,30.5 544.4,30.2 548.6,26.8 550.8,26.8 551.0,24.3 550.1,24.0 549.7,22.1 551.0,20.6 551.0,18.7 553.4,16.8 554.5,14.0 558.2,11.2 559.6,11.8 562.9,10.3 565.1,11.8 566.4,9.7 567.9,9.7 572.3,7.5 574.3,8.7 574.5,9.7 577.6,8.4 577.1,5.9 574.3,5.0 574.3,2.2 575.6,0.0 576.7,0.9 577.1,2.8 580.0,1.9 581.1,3.1 582.6,1.9 585.7,2.2 587.5,4.4 587.0,6.2 585.9,7.8 587.7,10.0 586.8,12.8 589.5,15.6 594.3,11.2 593.2,10.9 593.6,8.4 592.7,6.9 593.4,3.1 595.2,2.5 596.0,5.3 597.6,6.5 600.4,6.9 600.9,10.0 602.2,10.9 600.9,11.8 603.3,16.5 606.2,14.0 607.7,13.4 610.5,14.3 611.0,15.9 613.6,17.8 613.4,19.3 609.7,19.6 607.9,21.8 607.3,24.3 608.4,27.1 611.9,28.0 612.5,29.0 611.6,30.2 610.5,34.9 610.8,36.1 608.4,36.8 608.4,35.5 607.3,34.9 607.3,33.3 605.9,30.2 604.8,29.3 600.9,31.2 600.4,29.9 598.5,30.5 596.9,29.6 597.1,31.5 598.9,32.4 599.6,34.3 597.6,36.5 595.6,36.5 596.5,38.3 595.8,38.3 592.5,35.8 588.1,36.5 588.8,40.2 586.8,41.7 585.7,40.5 584.0,43.6Z"/><path d="M625.7,41.4 625.1,39.9 626.6,36.5 628.8,35.8 627.9,34.9 626.2,34.6 626.2,33.3 620.0,31.8 620.7,28.4 622.4,27.1 623.3,25.2 624.8,24.9 626.4,25.5 625.7,23.1 628.1,21.8 629.2,24.9 627.7,25.9 629.5,26.5 630.8,28.4 632.1,28.7 630.8,29.9 631.9,30.5 633.8,29.3 636.5,30.2 637.1,32.7 638.5,32.4 641.8,32.1 643.3,34.9 642.2,35.8 640.4,36.1 640.4,34.3 637.8,34.6 637.6,35.5 639.1,36.5 637.6,38.6 637.6,39.9 639.8,39.9 641.5,41.4 642.9,43.0 643.1,48.0 640.9,47.7 639.3,49.5 637.6,49.2 637.1,48.3 638.5,46.1 635.6,44.9 634.5,42.7 630.3,40.8 627.0,40.5 625.7,41.4Z"/><path d="M574.5,65.1 578.9,66.4 579.3,65.1 581.8,63.2 581.5,66.1 578.0,67.9 577.6,70.1 578.2,72.0 576.7,72.9 575.4,77.0 573.6,79.8 571.6,78.8 571.6,77.0 569.9,74.5 570.8,72.9 568.4,72.6 568.8,72.0 568.1,70.4 568.6,69.2 571.2,67.3 572.3,67.3 573.0,66.1 574.5,65.1Z"/><path d="M746.2,174.2 743.7,174.2 741.8,175.1 740.4,174.8 738.2,172.3 738.2,171.0 735.8,171.7 734.3,170.7 733.0,169.2 731.0,168.2 729.2,168.2 727.0,170.1 725.9,169.2 721.5,169.2 719.3,167.9 715.8,165.7 716.0,165.1 718.2,163.6 719.8,160.5 718.2,158.6 718.2,156.1 716.9,151.7 719.6,150.5 721.8,148.9 720.2,145.5 716.9,145.8 714.3,143.9 715.6,140.5 713.8,141.4 712.7,139.0 714.3,139.3 717.4,138.3 717.4,137.1 719.1,135.8 719.3,134.3 718.7,132.1 719.6,131.2 721.5,130.9 721.5,128.1 722.6,128.4 724.4,127.4 726.8,127.1 727.3,127.7 730.1,127.1 737.4,129.0 740.9,128.1 743.1,126.8 744.4,127.4 753.6,124.9 756.3,126.2 756.7,126.8 758.2,127.1 764.4,124.9 765.1,124.3 766.2,119.6 765.7,117.8 766.4,116.5 768.1,116.8 769.5,117.8 772.5,116.2 773.4,115.3 776.7,115.0 781.1,113.1 782.4,111.8 785.7,111.2 786.6,110.6 786.2,108.1 787.5,106.2 789.9,105.9 790.8,106.2 790.5,107.8 793.2,107.2 794.1,107.8 798.0,107.8 801.5,109.0 802.0,110.0 805.3,112.2 807.0,112.5 808.8,113.4 808.8,115.0 806.4,115.6 803.3,115.9 800.9,116.8 795.8,116.5 795.6,115.3 793.4,116.8 794.3,118.4 795.8,118.4 796.9,119.3 795.6,120.9 798.7,121.2 798.2,122.8 799.3,122.8 798.7,124.3 797.1,126.2 792.5,128.4 792.5,128.4 789.9,124.6 794.5,124.9 794.7,125.6 796.7,124.9 797.1,122.4 794.5,122.1 792.7,121.2 792.5,119.0 789.0,117.5 788.6,119.3 785.9,120.6 786.4,122.4 785.7,123.4 787.7,124.0 785.5,125.2 784.2,125.6 782.9,127.1 782.4,129.0 781.8,130.5 781.1,135.2 780.2,136.8 780.2,138.6 781.1,143.6 777.6,142.7 775.8,143.9 773.0,143.9 768.4,140.8 766.8,140.8 765.3,137.7 765.1,136.5 763.3,137.4 761.1,137.1 759.3,135.8 759.1,134.6 756.9,133.3 756.5,134.3 753.8,133.3 753.8,131.5 752.1,132.4 749.7,132.1 747.5,132.7 749.5,134.3 749.0,136.2 749.7,138.6 750.8,140.5 746.8,141.4 746.2,142.4 746.6,144.6 743.7,145.8 742.9,148.9 738.9,150.8 740.2,153.3 740.4,155.5 739.8,156.4 740.2,158.0 739.3,159.5 739.3,161.1 741.8,163.9 743.7,167.9 743.7,169.8 746.2,174.2Z"/><path d="M746.2,174.2 743.7,169.8 743.7,167.9 741.8,163.9 739.3,161.1 739.3,159.5 740.2,158.0 739.8,156.4 740.4,155.5 740.2,153.3 738.9,150.8 742.9,148.9 743.7,145.8 746.6,144.6 746.2,142.4 746.8,141.4 750.8,140.5 749.7,138.6 749.0,136.2 749.5,134.3 747.5,132.7 749.7,132.1 752.1,132.4 753.8,131.5 753.8,133.3 756.5,134.3 756.9,133.3 759.1,134.6 759.3,135.8 761.1,137.1 763.3,137.4 765.1,136.5 765.3,137.7 766.8,140.8 768.4,140.8 773.0,143.9 775.8,143.9 777.6,142.7 781.1,143.6 780.9,149.2 780.2,152.7 778.9,153.9 779.8,156.7 778.5,158.3 777.1,163.6 776.3,164.2 774.5,167.6 770.3,170.7 766.8,173.8 764.4,175.1 762.6,174.8 760.7,175.7 758.9,177.9 756.7,178.2 754.5,179.1 752.7,177.6 749.5,175.7 747.7,175.7 746.2,174.2Z"/><path d="M782.4,129.0 782.9,127.1 784.2,125.6 785.5,125.2 787.7,124.0 785.7,123.4 786.4,122.4 785.9,120.6 788.6,119.3 789.0,117.5 792.5,119.0 792.7,121.2 794.5,122.1 797.1,122.4 796.7,124.9 794.7,125.6 794.5,124.9 789.9,124.6 792.5,128.4 792.5,128.4 791.0,129.6 790.5,127.7 788.6,127.4 782.4,129.0Z"/><path d="M806.4,115.6 804.0,117.5 800.0,119.3 800.0,120.9 803.5,122.8 801.8,123.7 798.7,124.3 799.3,122.8 798.2,122.8 798.7,121.2 795.6,120.9 796.9,119.3 795.8,118.4 794.3,118.4 793.4,116.8 795.6,115.3 795.8,116.5 800.9,116.8 803.3,115.9 806.4,115.6Z"/><path d="M725.3,278.2 725.9,274.8 725.7,272.3 723.1,270.7 722.6,269.2 722.6,266.1 724.8,264.8 724.0,263.0 724.8,258.6 724.0,257.7 724.8,256.1 724.6,254.5 725.5,252.7 723.7,249.2 723.7,247.1 722.6,244.6 721.1,243.9 718.9,241.8 716.0,240.8 714.9,241.1 710.1,243.9 708.8,243.0 707.5,243.6 705.1,242.7 700.9,239.9 704.4,237.4 707.5,236.5 711.0,233.4 712.7,229.3 712.1,225.6 712.3,223.7 711.4,221.8 712.3,217.8 712.3,213.4 703.1,211.9 700.4,210.9 696.0,210.6 694.5,211.2 693.0,210.6 691.4,210.9 685.7,211.5 683.3,209.4 672.3,198.2 671.6,197.8 668.8,195.7 666.4,194.7 664.2,196.3 662.2,196.0 661.1,189.7 663.1,190.4 663.7,186.3 664.8,185.7 663.5,184.1 660.7,184.8 657.8,184.1 636.9,186.9 634.9,186.9 631.4,186.0 628.4,183.2 625.7,177.6 627.0,175.1 632.5,173.5 634.9,175.1 636.5,175.1 637.8,173.8 638.7,175.7 641.3,176.0 642.9,174.8 642.9,173.5 647.0,172.9 650.3,172.0 650.5,172.6 656.5,170.7 658.5,167.9 657.6,167.3 659.1,166.4 659.1,164.5 657.8,163.9 656.5,162.0 659.1,161.1 661.1,157.0 665.1,156.4 667.3,152.4 665.5,150.2 665.9,146.7 664.6,146.1 664.4,142.7 663.1,141.4 661.8,141.8 660.0,137.4 660.0,136.2 658.0,134.9 660.4,133.3 661.1,131.5 662.9,132.1 664.4,129.9 665.3,127.4 664.4,126.2 665.5,124.0 668.1,124.0 669.0,120.3 668.1,118.1 670.5,117.5 670.1,116.5 672.7,116.2 673.2,116.8 675.6,114.7 676.5,115.9 678.9,114.3 680.0,115.0 680.9,113.4 683.5,114.0 684.4,112.8 682.6,112.2 681.8,110.9 676.5,109.4 676.9,106.6 672.3,104.7 672.5,102.5 671.4,102.2 673.0,100.6 673.2,99.4 676.7,99.7 679.8,97.5 681.8,98.5 682.9,100.0 684.4,98.5 684.8,99.1 688.6,97.5 689.2,99.7 690.3,101.6 692.3,100.6 694.9,101.3 696.0,102.5 697.6,102.2 698.0,100.9 700.7,100.6 701.8,100.9 704.8,100.0 706.4,97.2 705.7,96.3 707.0,95.0 708.6,97.8 710.3,96.9 710.8,98.8 712.1,98.1 716.3,99.7 716.5,102.2 718.5,101.3 721.5,101.3 721.5,102.2 724.4,102.2 724.8,103.7 728.4,104.1 731.9,102.5 732.3,101.6 736.0,103.4 738.5,101.9 740.7,99.1 740.9,97.2 740.4,96.0 738.5,96.9 739.1,92.8 737.4,91.3 734.7,94.1 732.3,94.4 730.1,93.8 729.7,92.5 732.1,91.9 733.2,90.4 732.5,89.7 736.7,88.8 737.1,87.9 739.3,89.1 739.6,87.2 740.4,86.3 742.9,87.2 745.1,87.2 745.1,88.5 746.4,90.0 748.8,90.0 747.5,91.3 746.2,94.1 745.1,94.1 744.4,95.6 745.5,95.0 748.8,96.0 748.8,95.0 752.7,96.0 752.7,97.5 751.6,98.1 752.5,99.1 751.2,100.6 753.8,100.6 756.0,101.9 757.8,104.1 760.0,97.8 761.5,96.9 763.3,97.5 764.0,96.0 766.8,93.8 780.9,81.3 783.7,84.7 787.5,85.1 791.6,84.7 793.8,94.7 793.8,96.6 794.5,98.1 798.7,101.6 801.3,107.5 802.6,108.1 803.5,107.5 803.7,105.6 804.6,105.3 806.4,108.1 808.1,109.7 812.5,110.0 814.7,110.6 815.2,112.5 812.7,114.7 812.1,116.5 813.4,120.9 813.8,125.9 815.4,127.7 818.5,129.9 818.5,133.3 815.8,136.8 813.2,137.4 807.7,138.0 803.3,142.7 802.4,144.6 800.0,153.0 798.7,154.8 794.9,157.0 792.7,159.2 791.6,162.9 790.5,165.1 787.7,167.0 787.3,167.9 787.3,170.1 784.8,176.7 781.5,181.9 780.4,186.3 778.0,191.3 777.4,195.7 778.5,201.3 780.2,204.7 782.0,207.5 783.3,211.5 784.6,219.0 784.8,221.8 783.7,224.9 778.5,229.3 774.9,231.2 774.3,233.4 775.2,235.8 776.0,238.0 781.8,246.1 782.9,248.9 784.6,251.7 790.5,259.2 789.7,259.8 785.5,260.5 784.2,261.7 784.6,265.8 781.8,266.4 780.4,267.6 779.8,270.4 777.6,272.0 777.4,273.9 775.4,276.7 775.8,278.2 777.8,279.2 775.2,281.0 773.2,283.2 773.8,285.7 773.2,287.6 770.3,287.6 770.8,289.4 769.2,291.6 766.8,289.4 765.7,287.9 761.5,286.0 757.1,285.1 754.3,283.8 751.0,284.1 746.8,283.2 745.9,283.5 745.1,282.6 741.3,282.9 738.7,281.3 734.9,281.0 733.6,281.6 730.8,281.0 729.2,282.3 727.0,280.4 725.3,278.2Z"/><path d="M806.4,115.6 808.8,115.0 808.8,113.4 807.0,112.5 805.3,112.2 802.0,110.0 801.5,109.0 798.0,107.8 794.1,107.8 793.2,107.2 790.5,107.8 790.8,106.2 789.9,105.9 787.5,106.2 786.2,108.1 786.6,110.6 785.7,111.2 782.4,111.8 781.1,113.1 776.7,115.0 773.4,115.3 772.5,116.2 769.5,117.8 768.1,116.8 766.4,116.5 765.7,117.8 766.2,119.6 765.1,124.3 764.4,124.9 758.2,127.1 756.7,126.8 756.3,126.2 753.6,124.9 744.4,127.4 743.1,126.8 740.9,128.1 737.4,129.0 730.1,127.1 727.3,127.7 726.8,127.1 724.4,127.4 722.6,128.4 721.5,128.1 721.5,130.9 719.6,131.2 718.7,132.1 719.3,134.3 719.1,135.8 717.4,137.1 717.4,138.3 714.3,139.3 712.7,139.0 713.8,141.4 715.6,140.5 714.3,143.9 716.9,145.8 720.2,145.5 721.8,148.9 719.6,150.5 716.9,151.7 718.2,156.1 718.2,158.6 719.8,160.5 718.2,163.6 716.0,165.1 715.8,165.7 719.3,167.9 721.5,169.2 725.9,169.2 727.0,170.1 729.2,168.2 731.0,168.2 733.0,169.2 734.3,170.7 735.8,171.7 738.2,171.0 738.2,172.3 740.4,174.8 741.8,175.1 743.7,174.2 746.2,174.2 747.7,175.7 749.5,175.7 752.7,177.6 754.5,179.1 756.7,178.2 758.9,177.9 760.7,175.7 762.6,174.8 764.4,175.1 766.8,173.8 770.3,170.7 774.5,167.6 776.3,164.2 777.1,163.6 778.5,158.3 779.8,156.7 778.9,153.9 780.2,152.7 780.9,149.2 781.1,143.6 780.2,138.6 780.2,136.8 781.1,135.2 781.8,130.5 782.4,129.0 788.6,127.4 790.5,127.7 791.0,129.6 792.5,128.4 792.5,128.4 797.1,126.2 798.7,124.3 801.8,123.7 803.5,122.8 800.0,120.9 800.0,119.3 804.0,117.5 806.4,115.6Z"/><path d="M769.0,98.1 770.1,99.4 773.0,100.0 772.7,100.9 775.4,99.4 773.2,97.5 769.5,96.0 769.0,98.1Z"/><path d="M599.8,383.2 600.7,380.1 600.4,378.2 599.6,377.0 600.2,375.1 599.8,371.7 599.6,370.4 597.6,370.4 595.4,368.6 595.2,366.7 593.8,366.1 595.4,363.6 595.4,361.7 594.5,361.1 596.0,359.2 597.1,359.2 599.8,356.4 598.9,354.6 599.1,350.5 598.9,348.0 600.4,347.1 601.8,347.4 603.1,344.9 604.6,344.3 606.6,345.8 608.4,344.6 608.4,343.6 610.5,343.0 615.4,339.0 614.3,336.5 614.9,334.3 619.1,331.5 620.0,331.5 621.5,335.2 622.6,336.8 624.6,335.9 626.4,335.5 629.5,334.0 628.8,331.5 629.7,330.3 629.7,328.4 630.8,325.9 632.1,325.0 633.4,325.6 634.1,324.6 633.2,323.4 632.5,318.4 632.7,316.5 634.1,315.9 637.1,316.2 636.9,315.0 638.2,314.4 639.8,312.5 641.8,312.2 643.5,310.3 648.4,310.0 650.3,311.2 651.6,310.9 651.4,313.7 652.3,314.7 654.9,315.0 657.4,314.7 660.2,312.8 668.6,311.6 672.5,310.9 674.9,308.8 676.5,305.0 678.0,303.5 677.8,302.2 679.1,299.7 680.7,298.5 680.2,296.9 680.7,293.8 682.6,293.2 684.8,290.7 687.3,290.7 691.4,292.2 691.4,293.2 693.4,295.7 693.6,297.8 695.4,298.5 698.7,296.0 701.5,295.0 703.3,291.9 705.1,291.3 704.2,289.4 709.5,289.7 711.9,290.4 714.5,289.1 715.8,287.3 717.6,285.7 719.3,283.5 720.2,281.3 723.3,280.7 725.3,278.2 727.0,280.4 729.2,282.3 730.8,281.0 733.6,281.6 734.9,281.0 738.7,281.3 741.3,282.9 745.1,282.6 745.9,283.5 746.8,283.2 751.0,284.1 754.3,283.8 757.1,285.1 761.5,286.0 765.7,287.9 766.8,289.4 769.2,291.6 770.8,289.4 770.3,287.6 773.2,287.6 773.8,285.7 773.2,283.2 775.2,281.0 777.8,279.2 775.8,278.2 775.4,276.7 777.4,273.9 777.6,272.0 779.8,270.4 780.4,267.6 781.8,266.4 784.6,265.8 784.2,261.7 785.5,260.5 789.7,259.8 790.5,259.2 784.6,251.7 782.9,248.9 781.8,246.1 776.0,238.0 775.2,235.8 776.5,234.3 777.4,236.8 778.5,234.3 780.4,234.9 783.1,234.3 784.2,233.4 789.2,231.8 792.3,234.3 793.0,236.8 797.1,235.2 798.5,235.5 802.4,233.7 803.3,232.7 807.5,235.5 809.7,236.2 811.4,235.2 812.3,233.4 815.4,234.0 820.4,232.7 820.4,233.7 824.0,235.5 826.2,235.2 826.2,237.1 828.6,238.3 830.3,238.3 834.3,239.0 834.9,240.5 841.1,239.9 844.2,241.1 844.4,242.1 849.2,245.2 849.9,244.9 854.3,248.0 855.4,247.4 858.0,247.1 859.6,244.9 863.3,245.5 864.2,246.8 862.0,248.0 862.6,249.9 865.7,251.7 866.6,255.5 864.8,257.3 865.1,258.0 862.9,260.2 862.9,262.3 862.0,263.6 863.7,265.8 862.9,267.3 863.3,270.4 864.2,270.4 863.1,272.3 867.0,273.2 868.4,274.5 870.1,275.4 871.0,275.1 873.4,277.6 876.7,278.8 878.7,279.2 881.3,278.2 882.2,279.2 885.5,278.2 886.6,281.3 891.0,283.5 894.5,282.6 896.0,284.5 898.0,287.3 899.3,288.2 899.8,289.1 901.8,290.4 901.5,294.4 902.6,295.0 906.8,295.0 909.7,295.4 910.8,296.3 910.5,298.5 913.4,301.6 916.5,300.7 917.6,299.4 921.1,299.7 922.2,298.5 925.3,299.4 927.5,298.5 928.1,297.5 929.5,297.5 933.0,293.5 936.5,294.1 938.2,293.2 941.5,293.5 941.3,291.0 942.0,287.9 940.2,286.0 940.2,284.1 941.8,282.3 942.4,278.2 943.5,277.3 943.3,273.5 949.0,274.2 954.1,276.0 955.6,277.0 956.5,275.4 959.8,275.1 960.0,273.9 957.6,270.4 958.5,267.6 961.8,267.0 962.9,264.8 962.9,263.0 964.0,260.5 966.2,257.3 966.6,255.2 968.4,254.5 972.3,254.9 974.9,252.1 976.0,251.7 978.0,253.0 978.7,254.9 981.1,257.3 984.4,259.8 983.3,264.5 984.6,265.8 989.7,267.0 993.2,268.3 995.2,270.4 997.8,271.4 997.1,273.2 997.8,275.1 997.4,278.5 995.4,279.8 994.9,282.6 994.9,285.1 992.5,288.2 993.6,289.1 994.1,291.6 993.2,295.0 994.1,299.1 992.3,301.3 993.0,303.1 990.8,304.7 991.4,306.6 990.5,307.5 991.0,309.1 989.5,313.1 986.8,315.0 984.8,315.3 984.4,316.9 983.3,318.1 985.7,320.0 987.5,323.1 988.1,326.8 987.5,329.3 986.2,329.0 980.9,333.4 978.5,334.9 980.0,336.5 981.3,339.0 982.4,339.6 981.8,342.7 980.4,344.0 978.9,343.6 976.9,348.9 974.7,349.3 974.9,350.8 976.7,354.6 976.3,355.5 976.7,359.5 978.5,362.3 978.7,365.1 980.2,365.8 982.6,364.5 987.7,364.2 988.6,363.6 992.1,366.4 998.5,372.6 996.7,375.1 997.4,376.4 996.9,379.5 997.6,379.8 996.5,382.3 996.9,383.8 995.2,385.4 994.7,388.2 995.2,389.4 994.1,392.6 994.1,394.1 991.2,395.1 991.2,396.3 989.9,398.2 986.4,396.0 985.7,395.1 982.4,391.9 980.2,392.6 978.0,394.1 970.1,390.4 967.7,390.4 967.0,392.6 965.7,394.1 964.4,394.4 962.0,391.6 959.1,393.2 958.2,392.6 956.3,392.6 955.2,391.6 955.4,389.4 954.3,387.9 953.4,385.7 951.0,385.1 949.7,383.5 948.4,383.8 945.7,385.4 944.2,383.5 943.5,380.1 945.1,376.4 947.3,373.2 944.2,369.8 943.3,368.3 943.3,365.8 940.7,366.7 939.3,367.9 937.8,371.4 935.6,370.1 933.0,369.5 932.7,368.6 930.5,369.2 926.2,371.7 924.2,372.0 920.4,374.2 918.5,375.1 916.5,374.8 912.7,373.2 912.1,374.8 912.7,376.4 911.6,378.9 912.5,380.1 912.5,382.0 911.4,383.8 907.7,384.5 909.0,386.6 907.5,388.8 905.9,389.8 905.3,392.3 904.0,393.5 900.7,394.1 900.0,395.4 900.4,396.9 902.0,397.5 901.5,399.1 902.2,402.2 901.5,403.8 899.8,404.7 900.0,406.6 901.1,407.8 900.2,410.6 901.1,411.6 899.8,414.4 901.5,416.6 902.0,420.0 900.7,421.2 898.9,424.3 900.0,425.9 902.0,426.5 902.6,426.2 903.3,429.6 904.6,430.9 906.6,429.9 907.9,430.6 907.9,432.4 910.1,431.8 912.7,432.1 914.3,430.3 916.0,430.9 916.5,429.9 918.7,429.0 919.6,429.9 921.5,430.3 922.9,431.8 923.1,434.9 924.8,434.0 927.0,436.8 925.9,438.7 926.4,441.8 925.3,443.3 921.5,443.3 918.5,445.8 918.0,447.7 918.7,451.1 916.7,452.1 915.2,453.6 914.5,453.6 914.3,456.4 913.6,457.1 913.4,459.9 915.4,463.6 916.0,465.8 920.7,468.6 920.7,469.8 922.4,471.4 924.0,472.0 924.8,473.6 924.2,474.5 926.2,475.4 926.4,478.9 928.4,480.7 929.2,482.9 928.8,484.2 923.5,488.8 922.4,491.9 919.3,493.5 917.6,493.8 914.3,493.2 913.0,492.3 909.9,492.6 908.1,493.2 905.9,496.0 904.2,495.1 903.3,493.5 900.0,491.9 902.2,490.1 902.2,488.2 903.7,486.3 902.6,480.7 900.2,479.5 897.1,477.3 892.5,476.1 889.7,474.8 888.6,471.1 889.7,470.8 890.8,469.2 889.7,467.6 890.1,465.8 889.2,465.8 887.3,463.6 885.9,463.0 887.3,459.5 889.5,457.1 889.0,453.6 887.0,453.9 885.5,452.4 882.4,450.2 880.7,447.1 881.1,445.5 880.0,445.2 876.0,446.8 874.9,447.7 875.4,449.0 874.1,449.6 873.4,448.3 872.1,448.3 869.9,444.9 865.5,447.4 864.2,448.6 861.5,450.8 860.9,449.9 856.5,450.8 853.8,451.1 850.5,454.6 848.4,454.9 846.6,456.4 843.1,457.4 841.8,459.2 839.8,458.9 838.0,457.7 836.7,455.8 834.7,455.2 834.1,453.9 832.5,454.3 829.5,457.4 830.3,459.9 828.4,462.4 828.4,463.3 830.3,463.9 829.9,467.0 828.4,468.3 827.7,472.3 824.8,472.9 822.0,472.0 820.2,471.1 819.1,469.2 817.8,470.1 817.8,471.1 815.6,471.4 813.4,472.6 813.4,473.3 810.1,474.5 807.7,473.9 806.6,474.2 804.8,472.3 802.4,471.4 797.6,471.4 796.5,470.5 792.7,468.0 791.2,469.5 787.3,465.8 783.5,459.9 782.4,456.1 782.2,453.9 780.4,452.1 779.3,449.9 776.5,449.0 772.7,447.1 771.9,446.2 772.5,444.3 773.4,442.4 773.0,441.5 772.7,437.4 772.1,435.2 770.3,433.1 771.0,427.1 771.9,425.9 771.4,421.2 771.4,419.0 773.0,417.2 772.1,413.7 769.5,414.1 769.2,412.5 771.9,412.5 772.1,408.5 771.4,405.0 770.5,406.3 765.9,408.5 764.0,411.3 764.0,415.0 761.3,418.1 760.4,418.1 756.5,416.2 755.2,413.1 753.6,412.8 751.9,410.6 751.6,409.4 752.7,408.1 752.7,406.6 750.1,404.7 748.6,406.6 745.1,406.6 744.8,406.0 739.1,406.6 734.5,408.5 732.7,408.8 731.9,411.6 730.8,412.8 731.4,414.1 730.8,416.9 731.0,419.4 731.6,419.7 730.1,422.2 728.4,423.4 725.9,423.4 724.8,424.3 725.3,429.3 729.9,433.4 730.5,432.8 732.1,434.3 732.5,437.4 732.3,439.0 731.2,440.5 733.0,444.0 731.6,445.5 731.0,447.4 732.7,452.1 735.6,452.7 735.6,454.6 736.5,456.4 734.7,458.9 735.2,460.2 736.5,461.4 735.6,462.7 735.4,464.5 733.2,465.8 732.3,467.3 733.2,471.1 730.3,473.3 729.5,475.7 727.5,477.0 727.0,479.5 725.9,480.4 725.9,482.3 725.3,483.8 725.9,485.1 725.3,490.7 722.6,491.0 719.3,492.3 719.6,493.8 718.7,496.9 717.6,497.9 715.2,498.5 713.4,503.2 714.1,505.3 713.2,507.8 710.3,511.0 708.1,510.0 705.5,510.6 704.4,510.6 701.8,508.2 700.4,507.5 699.3,504.7 696.7,501.3 694.3,499.4 690.1,497.2 689.0,494.8 688.1,491.0 687.0,491.3 686.2,490.1 687.3,489.5 687.7,482.3 686.6,480.1 684.4,478.2 683.3,476.1 682.2,472.3 683.7,470.8 685.7,467.6 686.4,467.3 687.0,465.5 684.6,462.4 685.9,459.9 685.3,458.9 685.9,456.4 688.6,454.9 689.9,454.9 691.4,450.2 691.0,448.0 691.6,447.4 690.3,443.0 689.7,442.4 691.6,439.0 690.3,437.4 693.0,435.9 693.2,434.6 691.4,430.9 690.1,429.0 689.7,425.3 690.8,423.7 691.4,420.0 689.2,416.9 689.2,415.3 686.8,414.1 684.0,415.3 682.6,415.0 680.7,413.4 681.1,412.8 679.6,410.9 679.6,409.7 677.6,407.2 675.8,405.3 675.4,404.1 675.6,401.9 675.2,399.4 674.3,397.9 675.2,397.2 674.7,392.9 675.8,390.7 675.6,389.8 676.9,386.0 678.2,384.5 678.7,382.3 680.2,381.7 679.6,379.8 677.8,378.5 678.0,376.7 676.5,377.0 674.1,375.4 671.4,373.2 669.5,372.9 666.8,373.9 664.6,375.7 662.2,375.7 661.8,373.2 662.4,371.1 661.3,367.3 660.2,366.7 659.8,369.2 657.8,370.8 654.1,369.5 651.2,370.8 649.9,372.0 650.1,374.5 652.3,377.6 652.1,378.9 649.5,381.7 646.2,383.2 644.0,383.5 643.5,384.5 640.4,385.1 636.3,388.2 633.2,387.3 633.2,385.4 626.8,388.2 618.0,384.8 615.6,384.2 614.3,385.4 610.5,383.8 608.4,385.7 605.7,384.8 604.2,382.6 599.8,383.2Z"/><path d="M412.3,169.2 414.3,168.2 416.3,165.7 416.5,164.2 418.2,161.7 420.0,156.7 423.3,154.8 426.4,154.8 428.4,152.4 427.9,149.9 430.5,145.8 433.0,148.0 439.3,148.3 439.3,153.0 442.0,152.0 445.7,151.1 447.9,149.5 448.8,148.3 451.0,147.7 452.3,146.1 451.4,144.6 453.2,143.0 453.2,140.8 456.5,137.1 457.6,132.7 456.5,128.7 453.2,129.0 452.3,125.2 449.0,124.0 448.4,123.1 446.8,123.1 442.6,120.6 447.3,118.7 447.9,118.7 446.6,112.2 445.3,111.2 445.1,108.7 443.7,107.8 441.3,110.3 441.3,109.0 439.3,107.5 437.6,108.1 439.1,100.9 436.0,101.9 432.7,101.6 429.9,100.9 429.9,98.5 428.6,97.5 427.5,94.1 425.3,93.5 423.3,91.9 423.5,89.1 422.0,90.0 420.9,89.1 419.6,86.0 418.2,85.1 417.1,86.0 414.3,85.7 414.3,89.4 413.8,91.6 410.1,95.0 408.4,97.2 405.3,97.5 405.1,95.0 404.2,94.1 404.6,90.4 398.5,88.5 393.0,87.5 392.1,86.0 390.5,85.7 390.1,84.7 388.4,85.1 387.7,83.8 389.0,83.2 396.0,82.3 397.6,81.0 400.9,80.1 403.1,79.4 405.7,78.2 407.5,76.0 409.2,74.8 410.1,71.3 411.2,69.2 414.3,69.2 414.9,70.4 416.5,70.7 420.4,68.9 425.3,68.5 427.5,69.2 429.5,71.0 431.2,74.5 430.3,77.3 431.4,80.4 432.7,81.3 435.4,81.6 438.2,82.6 439.3,81.9 440.2,79.4 442.2,78.2 445.7,78.8 450.3,78.5 452.5,79.1 453.8,80.1 455.8,80.4 460.9,78.8 463.5,77.0 466.4,76.0 467.9,77.6 470.5,78.2 472.1,77.3 473.0,75.4 473.4,72.6 474.1,71.0 476.0,70.1 480.2,70.1 481.1,68.2 483.3,66.4 485.9,67.0 487.7,66.4 488.8,64.8 491.9,62.9 492.7,60.4 494.1,59.2 496.3,58.6 498.0,58.9 499.6,60.1 500.0,62.9 501.5,62.9 503.3,61.1 504.6,61.1 507.9,60.4 509.5,62.0 513.2,61.4 516.0,63.2 515.8,67.3 516.5,68.9 519.8,70.7 521.1,72.9 522.9,73.8 524.6,74.2 529.5,74.5 535.4,75.7 536.9,72.9 538.0,72.0 540.0,72.6 544.4,75.1 542.6,76.0 542.0,79.1 542.6,81.9 540.9,81.9 539.6,84.1 539.6,85.7 537.4,86.3 536.9,88.5 535.8,87.2 534.5,88.2 534.3,91.6 533.0,92.8 531.9,92.5 529.9,93.2 529.5,96.9 530.5,99.1 530.8,102.2 533.0,101.9 533.2,105.0 531.6,105.3 532.7,109.0 534.9,110.0 535.8,111.8 534.5,112.2 534.5,114.7 535.4,116.2 534.9,117.1 533.6,116.8 533.2,118.1 536.0,118.7 536.9,121.2 534.5,124.0 535.4,125.6 534.1,126.5 533.4,125.9 530.5,126.8 531.2,127.7 534.1,127.4 534.9,128.7 538.0,129.3 537.4,133.3 538.7,135.5 538.7,136.5 540.2,136.8 539.8,138.3 540.7,141.4 539.6,143.9 540.2,145.5 542.4,148.0 541.3,150.2 542.2,150.8 545.1,150.2 546.4,150.8 550.8,148.3 549.2,150.5 549.5,151.4 546.6,153.6 545.1,156.1 544.8,158.3 542.6,160.1 539.3,161.1 538.0,162.3 536.3,161.7 537.4,165.1 539.3,167.3 538.7,169.8 539.6,170.4 539.3,172.9 540.9,174.5 540.0,178.2 537.8,180.7 538.0,183.5 538.9,185.1 538.7,187.6 539.8,191.6 538.9,192.9 538.7,195.0 539.1,196.9 540.9,197.5 542.0,200.3 542.0,202.8 541.3,203.8 542.0,207.2 541.3,208.1 540.2,209.1 538.2,209.1 536.5,208.4 533.4,208.4 533.2,207.5 530.3,206.6 529.5,203.1 527.3,200.6 526.4,198.2 525.3,196.6 524.8,192.9 523.3,190.7 522.2,185.1 521.1,184.8 521.1,182.9 520.4,181.9 519.1,175.4 517.8,173.2 516.7,173.2 515.8,171.0 515.4,169.2 516.7,167.3 515.8,167.0 513.4,164.8 512.1,164.2 510.3,164.5 510.3,163.6 508.4,163.9 507.9,162.6 505.7,162.9 505.3,164.5 504.6,164.5 504.0,167.0 500.9,166.7 498.9,173.5 496.5,174.8 495.6,176.3 495.4,180.4 495.8,181.6 493.2,181.3 491.6,182.6 489.5,182.9 489.0,181.0 487.3,180.7 485.9,179.5 486.4,178.5 485.1,177.6 486.4,177.0 489.5,177.0 490.3,175.4 490.1,173.8 489.2,172.9 486.8,174.2 482.9,174.8 480.7,175.1 478.2,177.0 476.9,176.0 474.7,175.7 474.1,173.2 472.5,170.7 470.1,170.1 467.9,171.0 466.4,172.6 464.6,172.0 463.3,172.3 464.6,174.8 462.0,175.7 457.4,176.7 457.1,177.0 454.3,176.0 454.5,171.0 451.9,167.9 451.9,166.4 449.7,164.2 447.9,166.1 444.8,166.4 444.4,166.1 441.1,165.7 439.6,167.0 440.0,169.2 442.4,172.9 438.9,176.3 436.0,178.5 433.4,177.9 431.0,176.0 427.7,176.3 421.5,177.9 418.5,179.5 415.4,178.8 415.4,178.8 413.0,176.3 412.5,173.5 413.4,172.3 412.3,169.2Z"/><path d="M658.0,134.9 657.4,133.7 658.0,131.8 654.7,129.0 653.0,127.4 649.2,126.8 651.4,123.4 651.2,120.3 651.4,118.7 650.3,118.1 651.0,116.8 655.4,117.5 655.8,116.2 653.4,116.5 651.0,115.9 649.2,113.7 650.3,112.2 647.7,108.7 646.6,105.9 645.1,105.6 645.3,101.9 647.9,100.9 647.0,99.7 647.0,96.0 647.9,93.8 648.4,88.8 644.8,86.9 644.0,87.5 642.0,86.6 638.9,86.6 635.6,86.0 635.6,84.7 634.1,82.9 632.7,78.8 634.9,78.2 635.8,77.6 637.8,77.3 637.6,76.3 635.2,75.7 635.2,74.2 633.4,73.2 631.4,73.5 630.1,74.5 628.4,73.8 627.9,70.4 618.5,67.3 615.2,67.3 615.4,65.1 614.3,64.2 613.4,61.4 614.7,61.1 614.7,58.3 616.9,59.8 618.2,59.5 621.3,60.4 623.7,62.3 624.2,63.9 627.0,64.8 627.7,60.8 628.8,60.1 629.7,58.3 629.5,56.4 631.0,55.8 632.5,53.0 632.5,50.5 627.7,48.6 627.3,44.6 624.2,44.6 623.5,48.0 621.3,49.8 619.8,49.2 616.9,52.0 614.1,52.7 614.3,51.7 612.3,52.0 609.9,51.7 609.0,52.3 607.7,51.1 606.6,52.0 604.6,50.5 602.0,49.5 601.8,48.3 600.0,46.4 599.6,42.7 597.8,41.7 597.8,38.6 599.8,37.7 602.6,35.2 605.9,37.1 608.4,36.8 610.8,36.1 616.0,36.8 619.1,38.0 620.7,39.9 623.3,41.1 625.7,41.4 627.0,40.5 630.3,40.8 634.5,42.7 635.6,44.9 638.5,46.1 637.1,48.3 637.6,49.2 639.3,49.5 640.9,47.7 643.1,48.0 644.8,48.3 648.4,50.2 654.9,48.0 658.0,47.4 659.1,46.1 663.3,44.6 667.0,41.4 673.0,38.6 674.9,38.0 677.4,38.3 683.5,39.9 690.5,40.5 693.4,41.1 696.0,43.3 701.5,45.2 703.5,43.9 705.3,44.6 708.1,48.0 709.2,48.3 711.9,47.0 715.2,47.7 722.2,47.4 725.1,46.4 726.8,46.4 729.5,47.7 741.5,53.3 768.4,66.7 770.1,67.9 780.9,81.3 766.8,93.8 764.0,96.0 763.3,97.5 761.5,96.9 760.0,97.8 757.8,104.1 756.0,101.9 753.8,100.6 751.2,100.6 752.5,99.1 751.6,98.1 752.7,97.5 752.7,96.0 748.8,95.0 748.8,96.0 745.5,95.0 744.4,95.6 745.1,94.1 746.2,94.1 747.5,91.3 748.8,90.0 746.4,90.0 745.1,88.5 745.1,87.2 742.9,87.2 740.4,86.3 739.6,87.2 739.3,89.1 737.1,87.9 736.7,88.8 732.5,89.7 733.2,90.4 732.1,91.9 729.7,92.5 730.1,93.8 732.3,94.4 734.7,94.1 737.4,91.3 739.1,92.8 738.5,96.9 740.4,96.0 740.9,97.2 740.7,99.1 738.5,101.9 736.0,103.4 732.3,101.6 731.9,102.5 728.4,104.1 724.8,103.7 724.4,102.2 721.5,102.2 721.5,101.3 718.5,101.3 716.5,102.2 716.3,99.7 712.1,98.1 710.8,98.8 710.3,96.9 708.6,97.8 707.0,95.0 705.7,96.3 706.4,97.2 704.8,100.0 701.8,100.9 700.7,100.6 698.0,100.9 697.6,102.2 696.0,102.5 694.9,101.3 692.3,100.6 690.3,101.6 689.2,99.7 688.6,97.5 684.8,99.1 684.4,98.5 682.9,100.0 681.8,98.5 679.8,97.5 676.7,99.7 673.2,99.4 673.0,100.6 671.4,102.2 672.5,102.5 672.3,104.7 676.9,106.6 676.5,109.4 681.8,110.9 682.6,112.2 684.4,112.8 683.5,114.0 680.9,113.4 680.0,115.0 678.9,114.3 676.5,115.9 675.6,114.7 673.2,116.8 672.7,116.2 670.1,116.5 670.5,117.5 668.1,118.1 669.0,120.3 668.1,124.0 665.5,124.0 664.4,126.2 665.3,127.4 664.4,129.9 662.9,132.1 661.1,131.5 660.4,133.3 658.0,134.9Z"/><path d="M769.0,98.1 769.5,96.0 773.2,97.5 775.4,99.4 772.7,100.9 773.0,100.0 770.1,99.4 769.0,98.1Z"/><path d="M555.8,399.1 556.9,397.5 561.5,396.9 564.8,395.7 565.3,394.4 564.0,391.9 563.7,389.1 565.3,387.0 565.3,383.8 566.6,382.3 569.2,381.0 572.3,382.6 574.9,382.6 576.9,381.7 578.5,383.8 580.4,384.8 585.1,384.5 587.0,383.5 589.0,384.8 589.5,387.3 591.4,387.9 595.4,386.3 595.8,384.8 598.7,383.2 599.8,383.2 604.2,382.6 605.7,384.8 608.4,385.7 610.5,383.8 614.3,385.4 615.6,384.2 618.0,384.8 626.8,388.2 633.2,385.4 633.2,387.3 636.3,388.2 640.4,385.1 643.5,384.5 644.0,383.5 646.2,383.2 649.5,381.7 652.1,378.9 652.3,377.6 650.1,374.5 649.9,372.0 651.2,370.8 654.1,369.5 657.8,370.8 659.8,369.2 660.2,366.7 661.3,367.3 662.4,371.1 661.8,373.2 662.2,375.7 664.6,375.7 666.8,373.9 669.5,372.9 671.4,373.2 674.1,375.4 676.5,377.0 678.0,376.7 677.8,378.5 679.6,379.8 680.2,381.7 678.7,382.3 678.2,384.5 676.9,386.0 675.6,389.8 675.8,390.7 674.7,392.9 675.2,397.2 674.3,397.9 675.2,399.4 675.6,401.9 675.4,404.1 675.8,405.3 677.6,407.2 679.6,409.7 679.6,410.9 681.1,412.8 680.7,413.4 682.6,415.0 684.0,415.3 686.8,414.1 689.2,415.3 689.2,416.9 691.4,420.0 690.8,423.7 689.7,425.3 690.1,429.0 691.4,430.9 693.2,434.6 693.0,435.9 690.3,437.4 691.6,439.0 689.7,442.4 690.3,443.0 691.6,447.4 691.0,448.0 691.4,450.2 689.9,454.9 688.6,454.9 685.9,456.4 685.3,458.9 685.9,459.9 684.6,462.4 687.0,465.5 686.4,467.3 685.7,467.6 683.7,470.8 682.2,472.3 683.3,476.1 684.4,478.2 686.6,480.1 687.7,482.3 687.3,489.5 686.2,490.1 687.0,491.3 688.1,491.0 689.0,494.8 690.1,497.2 694.3,499.4 696.7,501.3 699.3,504.7 700.4,507.5 701.8,508.2 704.4,510.6 705.5,510.6 705.1,512.8 703.5,513.4 701.5,515.3 700.0,515.9 697.1,521.5 695.4,521.5 692.1,524.0 689.9,524.7 686.6,526.5 688.4,531.8 690.3,535.6 690.3,536.8 689.0,539.3 687.9,540.2 687.9,543.4 686.8,544.3 684.0,544.6 681.5,544.3 679.3,545.2 677.1,546.8 675.6,547.1 674.3,548.0 674.3,550.2 672.7,552.1 672.1,554.3 672.7,555.2 675.6,558.3 675.8,563.3 676.9,565.5 675.6,565.8 674.5,567.3 673.0,567.3 673.0,568.9 671.0,570.2 669.5,569.8 669.9,571.4 668.1,573.0 669.2,573.9 673.6,575.8 674.3,579.5 673.2,581.1 675.6,583.2 674.9,585.7 678.7,586.7 680.0,586.0 681.3,588.2 683.7,588.2 683.5,589.5 687.7,592.0 687.0,592.9 687.5,595.1 689.7,593.8 689.9,595.7 688.4,597.3 687.0,600.1 685.3,602.2 682.6,602.9 681.3,606.3 681.8,609.7 679.6,611.3 678.5,613.1 678.9,614.7 677.4,618.4 677.6,619.4 675.6,619.1 674.5,620.3 669.2,619.1 670.1,615.9 667.9,614.1 666.6,614.7 665.5,614.4 664.0,615.9 662.0,614.4 662.0,613.5 659.3,612.2 657.1,613.1 655.6,614.1 654.9,615.6 652.5,615.3 651.2,616.3 651.6,612.8 655.6,606.9 658.7,605.0 657.8,604.1 656.7,604.7 655.8,601.9 655.6,599.4 654.7,597.3 653.4,596.0 654.1,594.5 653.8,592.9 651.6,589.2 650.3,589.2 647.7,586.0 647.0,584.5 647.9,581.7 647.9,577.3 647.3,576.4 644.0,577.0 641.5,575.8 637.6,572.0 635.2,568.6 633.4,567.3 630.8,567.3 629.7,566.7 624.8,566.1 623.5,567.0 625.1,561.1 627.9,556.8 631.0,555.5 632.5,553.3 633.2,550.5 634.3,549.9 633.2,549.0 634.1,547.4 636.5,548.3 638.5,544.3 638.0,539.9 633.6,537.4 631.2,534.3 627.9,532.1 626.6,534.0 622.9,534.3 619.8,532.1 617.1,531.5 613.8,525.6 609.9,529.3 607.7,533.4 604.0,531.8 602.2,531.8 600.4,530.6 600.2,529.3 597.8,529.6 595.4,528.4 594.9,527.5 592.7,525.0 587.0,525.6 585.3,525.6 584.8,522.2 581.8,519.1 581.3,517.8 582.6,516.9 582.9,515.0 580.2,514.7 579.3,512.8 578.0,513.1 576.7,511.9 576.0,508.5 574.7,506.3 572.5,505.7 572.5,503.8 569.7,502.2 568.6,500.1 567.9,495.7 565.3,494.4 562.9,494.4 558.9,492.3 555.8,491.9 553.4,490.7 552.7,487.6 548.1,485.4 548.1,484.5 549.2,482.3 551.0,481.4 549.5,477.6 546.2,473.9 546.2,472.6 544.8,470.5 547.7,468.9 547.3,467.3 548.4,463.9 550.3,463.6 551.0,461.7 553.2,459.5 552.5,458.9 552.7,455.5 552.3,453.3 554.1,450.8 553.4,449.0 553.4,445.2 552.1,443.0 554.3,440.2 552.7,438.1 552.5,437.1 553.6,435.2 551.4,432.8 551.2,431.2 552.1,429.9 551.2,428.1 553.4,425.6 552.3,424.7 552.3,423.1 550.1,421.8 550.3,420.9 548.8,419.0 547.0,419.0 541.3,420.6 537.1,422.8 535.4,422.8 534.7,420.6 535.4,418.4 536.9,417.8 535.6,415.3 537.4,412.2 536.9,409.4 538.7,410.0 542.6,410.0 546.4,408.8 548.1,409.4 550.1,405.3 551.9,404.4 555.8,399.1Z"/><path d="M663.5,575.1 665.3,575.4 665.9,572.6 665.5,571.1 665.5,568.9 663.3,568.6 661.5,574.5 663.5,575.1Z"/><path d="M191.4,430.6 161.1,422.2 125.3,421.5 104.6,434.0 84.6,437.7 66.8,451.4 64.2,456.4 56.7,453.0 55.2,452.7 54.3,451.1 52.3,451.4 50.8,449.9 48.8,451.8 49.5,453.3 52.1,454.6 53.8,454.9 53.6,456.4 62.0,460.5 59.3,466.4 54.7,474.8 48.6,471.7 44.8,470.5 42.0,468.6 38.7,464.8 41.8,459.9 41.5,457.7 44.0,456.7 45.7,454.6 45.9,452.4 48.4,449.0 46.6,446.8 45.9,445.2 44.0,445.8 40.9,442.4 35.8,439.0 36.3,439.9 34.3,439.0 32.5,436.2 26.4,434.3 25.1,433.7 27.7,429.0 29.9,426.2 29.7,424.3 27.5,422.2 27.9,420.9 27.3,420.3 27.3,418.4 27.9,418.1 32.3,413.4 35.8,404.7 41.5,398.2 42.6,399.1 44.8,396.3 43.7,395.7 45.7,393.5 35.4,383.8 38.0,381.7 38.9,379.8 43.7,376.1 44.8,375.4 46.6,373.6 47.5,373.6 50.3,371.7 50.5,370.4 54.3,367.9 56.0,365.5 56.7,365.5 59.3,362.7 61.1,361.4 62.2,359.5 67.5,354.9 70.5,352.1 70.3,350.8 73.2,348.3 76.5,347.4 80.4,344.6 86.2,342.4 88.4,340.8 90.3,338.4 91.2,338.7 93.0,338.0 92.5,335.9 95.2,335.9 97.4,333.4 96.5,331.8 98.0,330.3 103.3,329.0 105.7,327.8 107.7,325.9 107.5,324.6 110.5,322.5 110.3,320.9 111.9,317.8 106.8,313.7 105.9,310.6 108.1,309.4 107.7,306.9 108.4,304.1 112.3,298.5 113.8,299.4 116.9,299.7 121.3,298.2 126.2,296.6 127.7,295.7 129.2,293.5 131.0,292.9 132.1,291.9 134.3,291.0 137.6,289.1 140.4,288.2 142.6,288.2 146.2,286.6 149.0,286.6 153.0,281.3 153.4,279.8 158.0,276.7 169.7,272.0 170.1,273.5 168.8,278.2 168.6,281.3 173.8,284.8 173.4,288.2 174.1,288.5 172.3,293.2 174.1,291.9 177.1,292.2 182.6,297.8 174.3,305.6 182.4,314.1 183.5,313.4 184.2,314.4 182.2,316.2 182.0,317.8 183.3,316.2 186.4,319.7 188.1,318.7 190.1,320.9 192.5,322.8 193.2,321.5 194.3,322.2 195.6,320.3 196.5,320.9 197.8,319.3 199.8,318.1 201.1,320.3 204.4,322.2 206.4,321.2 207.7,321.5 210.5,319.3 211.4,320.6 212.7,319.0 212.5,317.8 213.6,315.3 216.0,312.8 213.4,310.9 211.4,313.4 210.1,312.5 211.4,310.3 210.1,306.6 210.5,303.8 213.4,299.4 215.8,297.5 214.9,297.2 211.9,293.8 208.1,295.4 207.0,294.1 211.0,292.6 211.4,293.5 213.6,292.2 211.4,289.1 210.5,289.7 206.6,286.9 201.3,280.1 208.1,275.1 213.6,281.3 215.6,283.2 214.1,284.8 217.4,286.3 218.0,288.2 219.1,288.5 223.1,293.8 224.2,293.2 221.5,288.8 225.1,287.3 228.6,291.3 226.4,293.8 225.9,295.4 226.8,296.3 225.9,298.8 227.0,300.0 228.6,300.7 227.9,303.5 229.2,304.7 227.7,307.5 224.8,306.9 223.3,305.3 221.5,308.1 221.5,310.9 223.5,313.4 221.3,316.2 221.5,318.1 220.0,319.7 219.1,319.0 217.4,320.0 216.0,322.2 216.7,323.1 213.4,326.8 212.1,325.9 210.8,327.8 210.8,328.4 212.7,328.7 213.6,329.3 215.8,328.7 218.0,331.2 215.6,336.2 212.7,339.6 209.9,341.2 207.3,344.6 207.7,345.2 206.6,347.4 204.8,348.6 203.1,350.8 202.0,349.9 200.7,351.4 201.1,352.7 202.9,353.9 201.1,356.4 202.0,357.7 200.0,358.0 198.9,359.2 196.3,358.3 196.7,357.7 194.3,357.0 192.7,358.3 191.0,361.7 188.6,360.8 186.8,361.7 187.7,362.3 186.8,364.2 186.4,366.4 187.0,367.3 187.7,370.1 187.7,373.9 187.3,376.4 186.6,376.7 187.0,379.2 186.8,382.0 185.7,384.2 187.7,384.5 188.1,383.5 189.9,383.5 190.1,381.0 191.4,381.7 192.1,383.8 194.5,384.2 197.1,381.7 200.0,382.9 202.0,384.2 203.3,387.6 204.4,387.0 205.5,388.5 206.4,386.6 208.6,385.7 209.5,388.8 206.2,390.1 202.0,394.7 199.8,398.2 200.0,396.6 198.5,394.7 195.8,396.0 192.5,396.0 192.5,394.7 191.0,396.3 190.8,397.9 189.2,400.0 192.3,404.1 193.6,404.1 194.1,406.3 195.4,407.8 197.6,409.7 200.7,409.7 201.1,408.1 205.1,403.8 208.1,401.3 208.6,403.2 207.9,405.3 209.2,403.8 211.2,404.1 214.5,405.3 216.3,407.2 220.9,407.2 223.3,410.0 224.8,410.6 225.1,413.7 226.8,415.3 226.2,415.9 226.4,420.0 228.6,422.5 229.2,423.7 227.3,426.8 229.9,426.5 233.6,424.3 234.9,424.3 235.4,420.3 239.6,415.6 242.2,413.4 245.3,411.3 246.8,411.9 247.9,411.3 250.5,411.9 254.1,411.3 255.2,409.4 258.0,408.1 260.9,405.0 261.8,401.6 263.5,398.8 265.9,399.4 271.0,396.0 273.2,393.2 275.2,394.7 276.5,397.5 278.2,395.7 280.4,392.6 283.1,391.0 283.1,393.2 285.1,396.0 284.6,397.5 285.3,399.7 285.7,402.5 284.6,407.5 284.0,408.8 282.0,409.4 282.9,411.6 280.2,411.9 280.2,414.7 281.5,418.1 280.7,421.2 282.0,422.2 280.9,422.8 280.4,425.3 277.6,426.5 273.8,426.2 273.2,428.7 274.9,429.9 275.6,432.1 277.1,433.7 276.5,435.9 276.7,438.1 273.6,444.0 273.4,445.5 276.5,445.8 276.5,447.4 278.5,450.8 280.7,449.9 281.5,450.8 278.9,452.1 279.8,454.9 279.6,461.1 272.3,468.9 272.5,471.7 274.3,473.6 273.8,474.5 271.9,475.4 272.5,478.2 271.2,479.8 270.1,479.8 266.4,484.8 265.1,484.8 264.2,487.6 262.0,489.5 258.7,489.8 257.6,492.3 257.6,493.8 255.2,496.9 252.1,498.8 250.3,500.7 249.0,501.3 246.6,501.0 245.1,501.3 240.4,504.4 238.0,505.0 235.4,500.7 233.4,499.4 232.7,494.8 231.4,493.5 231.4,491.6 228.6,487.6 228.1,484.8 225.5,482.6 222.9,479.2 222.4,475.7 220.2,473.3 217.1,470.8 216.9,468.6 216.0,465.2 216.3,463.3 215.4,460.5 212.7,457.7 209.9,458.0 207.7,457.1 206.4,454.9 204.8,453.3 206.2,449.9 205.7,446.5 203.5,444.9 199.8,440.2 191.4,430.6Z"/><path d="M47.9,456.7 48.8,457.4 49.5,455.5 51.0,456.4 51.6,455.8 49.7,453.9 47.9,456.7Z"/><path d="M175.6,335.5 177.8,337.4 178.7,340.2 180.4,339.0 182.0,337.4 182.0,336.5 183.3,335.2 183.7,330.6 181.1,329.3 180.2,331.2 177.8,333.7 176.5,334.0 175.6,335.5Z"/><path d="M184.2,336.5 185.5,337.4 189.5,336.8 190.8,334.9 194.1,334.6 197.1,336.8 201.1,337.7 202.0,336.5 201.3,335.2 205.1,329.9 204.0,328.1 200.7,325.6 198.5,322.5 197.8,322.2 196.9,325.0 193.4,328.1 193.6,328.7 190.3,332.7 190.5,333.7 186.4,334.9 185.5,334.3 184.2,336.5Z"/><path d="M215.2,266.7 230.3,256.7 231.4,256.1 239.8,258.3 242.2,258.9 244.6,261.1 243.5,264.5 244.2,265.8 244.4,270.1 243.7,271.1 250.3,280.4 251.0,282.0 249.2,284.5 244.4,288.2 244.4,289.4 246.2,290.4 246.4,291.9 244.6,293.5 242.6,296.9 241.8,297.2 240.2,299.7 239.1,300.0 237.6,298.8 238.2,296.6 239.3,296.0 237.6,293.5 238.7,291.6 236.5,290.1 235.6,290.4 234.5,289.1 234.3,290.4 232.7,291.6 231.0,291.3 229.5,289.7 233.0,286.6 230.1,283.8 226.8,280.1 227.0,278.8 228.1,277.6 226.2,275.7 225.3,276.4 223.1,275.4 222.2,274.2 215.2,266.7Z"/><path d="M201.3,280.1 182.6,297.8 177.1,292.2 174.1,291.9 172.3,293.2 174.1,288.5 173.4,288.2 173.8,284.8 168.6,281.3 168.8,278.2 170.1,273.5 169.7,272.0 158.0,276.7 153.4,279.8 153.0,281.3 149.0,286.6 146.2,286.6 142.6,288.2 140.4,288.2 137.6,289.1 134.3,291.0 132.1,291.9 131.0,292.9 129.2,293.5 127.7,295.7 126.2,296.6 121.3,298.2 116.9,299.7 113.8,299.4 112.3,298.5 113.2,286.0 111.9,282.9 108.1,277.6 106.8,276.4 106.2,274.2 108.8,272.9 112.3,269.5 112.7,268.6 116.0,264.2 120.2,260.2 122.2,262.6 126.2,260.8 129.2,260.2 132.5,258.9 134.7,258.6 138.5,256.7 142.0,254.2 145.3,254.9 146.8,254.5 150.3,252.4 151.9,251.1 153.4,248.3 154.9,244.6 156.7,243.0 160.2,240.8 162.0,240.2 164.2,240.5 166.2,238.0 169.2,236.2 166.6,234.0 165.1,233.7 163.3,230.9 165.1,230.2 166.6,228.7 166.6,227.1 165.5,226.5 166.8,226.2 168.4,224.3 174.3,223.4 175.2,220.9 174.1,219.3 173.8,217.8 175.2,217.8 177.4,215.6 179.6,214.4 182.0,214.0 182.4,213.4 188.4,211.2 189.0,209.7 190.3,209.7 191.2,208.1 195.6,205.3 195.8,204.1 197.8,203.1 199.8,200.3 200.4,200.3 204.8,208.4 206.6,211.2 204.8,218.1 202.9,220.0 201.5,225.6 206.4,223.1 207.9,221.8 212.3,219.6 214.9,218.1 215.6,216.8 216.9,218.1 219.6,216.8 224.2,216.2 230.1,215.0 232.7,213.1 236.5,213.4 237.8,212.2 239.8,213.1 237.8,214.7 236.0,217.2 237.1,219.6 239.8,218.1 243.5,220.9 247.5,222.1 250.1,225.3 250.1,226.5 247.9,228.4 248.6,229.0 248.6,231.2 250.1,233.4 247.7,236.2 245.3,238.0 242.2,238.7 239.8,240.5 238.5,242.1 238.5,246.8 236.5,250.2 239.8,258.3 239.8,258.3 231.4,256.1 230.3,256.7 215.2,266.7 208.1,275.1 201.3,280.1Z"/><path d="M59.3,466.4 65.9,469.5 65.7,472.0 66.4,473.9 64.2,474.8 63.3,477.6 64.6,478.6 65.9,482.0 68.6,484.2 68.4,485.1 69.7,486.3 72.5,485.1 76.0,481.0 76.0,483.8 77.6,484.2 79.3,483.5 78.2,485.4 79.1,485.7 79.3,487.6 75.8,493.5 72.1,496.3 67.3,498.2 65.5,499.7 62.9,499.1 59.1,501.6 57.8,503.5 56.3,503.8 54.5,506.6 52.5,506.9 52.1,509.1 52.5,511.9 49.5,514.4 48.1,514.7 43.7,516.9 43.1,518.4 39.6,520.0 37.1,519.1 32.7,518.7 31.4,516.3 27.7,517.2 27.0,516.9 22.4,516.3 21.1,520.0 20.4,519.4 18.7,521.5 18.5,520.3 14.9,519.1 11.6,519.4 9.9,518.4 7.5,519.1 7.0,520.6 5.9,522.2 1.8,523.4 1.8,521.9 3.5,520.9 3.1,518.4 6.8,511.6 7.5,509.4 8.6,510.3 9.0,508.2 10.1,506.9 9.5,505.3 7.3,504.1 3.1,502.2 5.3,500.4 4.4,499.1 5.5,496.6 6.8,496.0 9.5,496.6 9.0,494.4 11.0,495.1 12.5,493.8 12.5,492.9 13.8,491.6 16.7,491.0 18.5,489.1 21.1,491.6 23.1,488.5 25.1,487.0 25.9,488.2 27.3,488.5 30.3,486.7 33.4,489.5 35.2,488.8 38.5,485.4 38.0,483.2 35.2,479.2 36.0,478.6 33.8,476.7 33.6,474.8 36.3,471.7 37.4,471.7 37.4,466.1 38.7,464.8 38.7,464.8 42.0,468.6 44.8,470.5 48.6,471.7 54.7,474.8 59.3,466.4Z"/><path d="M48.8,451.8 50.8,449.9 52.5,451.4 54.3,451.1 55.2,452.7 56.7,453.0 64.2,456.4 62.0,460.5 53.6,456.4 53.8,454.9 52.1,454.6 49.5,453.3 48.8,451.8Z"/><path d="M47.9,456.7 49.7,453.9 51.6,455.8 51.0,456.4 49.5,455.5 48.8,457.4 47.9,456.7Z"/><path d="M200.4,200.3 199.8,200.3 196.5,200.0 195.8,198.5 201.1,195.7 201.8,194.1 203.3,194.1 203.3,192.5 204.8,189.4 210.5,185.1 211.2,184.1 213.6,183.2 216.3,180.1 218.0,179.8 218.2,177.9 221.3,176.3 219.3,173.8 219.1,172.9 220.2,171.0 220.4,167.9 217.8,162.6 219.8,161.1 225.7,160.8 225.7,159.5 230.1,159.8 231.9,158.0 232.7,158.3 234.5,153.6 233.2,150.8 238.7,149.5 240.9,150.2 243.5,147.7 242.9,146.7 244.2,146.1 244.6,144.9 242.0,143.6 242.6,142.4 241.5,139.0 240.2,138.3 238.7,138.6 238.5,136.8 235.4,136.8 233.4,135.8 232.5,137.4 230.1,138.6 227.5,138.6 225.3,139.6 223.5,140.2 220.4,139.9 218.5,140.5 215.8,140.5 214.3,141.1 209.2,139.9 206.2,141.8 204.4,142.1 204.4,140.5 205.7,137.4 205.3,135.8 207.9,133.7 210.1,132.7 211.9,131.2 211.0,128.7 212.3,128.1 212.7,126.5 211.9,125.9 217.4,125.6 218.0,122.4 217.8,117.8 218.0,116.8 221.1,116.2 221.5,116.8 223.5,115.6 224.4,112.8 226.8,111.8 228.8,112.5 231.4,110.6 230.3,109.7 231.2,108.1 231.2,106.6 229.0,106.6 229.5,105.3 227.9,103.4 228.4,100.3 227.9,98.1 231.9,96.0 235.4,94.7 236.5,95.0 238.9,96.9 240.7,96.6 242.4,97.5 244.2,97.5 246.6,98.5 247.5,100.0 251.6,97.5 253.0,97.8 255.8,97.5 258.7,95.3 261.3,95.6 264.4,97.2 266.6,99.4 267.9,99.4 271.6,98.8 275.2,97.8 275.6,98.8 273.0,99.7 270.8,105.0 270.1,106.2 270.3,108.4 268.4,114.0 273.2,115.3 273.8,116.2 276.3,116.5 281.3,115.0 283.3,116.8 283.3,118.4 285.1,119.0 285.1,121.2 287.0,119.6 290.3,118.7 292.7,116.5 295.2,116.8 297.6,115.3 299.6,115.6 302.9,115.0 302.6,117.5 305.5,118.1 305.9,119.0 309.0,121.5 309.5,122.8 313.6,123.1 315.4,123.4 316.3,126.5 318.0,126.2 318.7,128.4 321.8,129.0 322.4,132.1 321.5,133.3 326.2,133.7 327.3,133.3 332.3,136.5 336.3,136.2 338.0,136.8 341.5,136.2 346.2,136.2 345.5,138.3 349.7,139.6 349.9,141.4 349.5,143.6 352.3,144.6 351.2,145.8 348.6,147.7 346.8,151.4 347.7,152.0 353.6,151.4 351.9,152.4 347.5,153.3 340.0,158.0 337.8,157.6 335.8,156.4 331.9,156.4 327.7,155.8 323.7,156.4 321.8,155.5 321.5,154.2 320.2,154.5 314.5,154.2 314.3,153.9 311.2,155.5 306.6,156.7 305.1,156.7 304.0,158.6 302.2,159.8 300.4,161.4 298.0,162.3 291.6,163.3 288.4,162.6 287.7,162.9 284.0,162.9 282.0,162.3 280.0,162.3 276.5,161.4 276.9,160.1 273.6,159.8 266.8,160.5 268.1,161.4 267.3,162.0 268.1,162.9 267.9,166.4 263.5,168.2 263.1,171.0 262.4,172.3 263.7,172.9 265.1,174.8 261.5,176.3 259.1,175.7 255.4,176.7 253.6,176.3 252.1,178.2 250.3,178.2 249.7,175.4 248.6,176.0 248.4,174.8 244.2,176.3 243.3,177.3 244.0,179.8 241.3,181.3 238.9,185.4 237.6,188.8 236.0,191.0 230.1,191.9 229.7,193.8 227.9,196.9 225.9,197.5 224.4,195.3 221.3,195.7 220.4,193.5 218.0,194.4 217.4,197.2 215.6,199.1 212.1,201.3 210.3,203.1 205.3,205.0 204.4,203.8 202.9,197.8 200.4,200.3Z"/></g><g fill="rgba(234,183,191,0.65)" stroke="#fff" stroke-width="1.2" stroke-linejoin="round"><path d="M535.4,422.8 531.4,422.8 529.0,424.3 528.4,425.9 525.5,428.4 522.9,429.9 522.2,431.2 519.6,431.5 518.5,430.9 516.5,433.4 516.5,434.3 514.5,436.8 518.0,438.4 518.9,438.1 520.2,439.3 519.8,441.8 520.9,443.0 519.6,446.2 516.7,447.1 514.5,448.6 513.4,450.2 510.8,449.3 508.8,450.2 508.1,451.4 509.2,453.6 507.9,454.9 507.9,456.1 506.4,455.5 505.7,457.4 502.6,457.4 500.0,459.2 499.6,460.8 500.2,462.0 498.0,463.9 497.4,467.0 494.3,469.5 493.4,468.9 490.1,470.8 485.9,471.4 483.1,469.5 481.1,469.5 479.1,471.7 477.4,472.6 475.8,476.1 473.8,476.4 472.7,478.2 469.5,480.4 469.7,482.0 468.4,482.3 470.3,484.5 472.5,484.8 473.0,485.7 474.9,485.7 475.4,488.5 476.0,490.1 477.1,490.1 478.7,492.6 481.3,493.2 482.4,497.6 483.7,500.1 484.4,504.1 487.0,506.6 487.0,508.5 485.5,509.4 484.0,511.9 483.7,514.7 484.8,517.5 483.7,519.7 482.0,521.2 480.4,520.9 478.5,521.2 476.0,523.1 475.8,526.8 474.5,528.7 468.4,530.9 464.8,530.9 462.6,532.1 460.0,532.5 458.7,532.1 457.1,535.6 457.1,538.1 455.6,540.2 455.8,544.0 457.6,547.4 458.2,549.9 456.3,551.1 453.2,553.9 454.5,555.8 453.2,557.7 453.4,559.9 451.0,559.9 450.8,561.1 448.4,564.9 446.2,563.9 441.5,564.9 438.0,564.2 436.0,564.9 430.5,564.5 429.5,567.0 427.9,568.9 427.5,570.2 424.4,571.4 424.0,572.3 424.6,574.8 423.3,576.4 423.7,579.5 422.2,579.8 422.0,583.2 423.7,586.4 422.4,588.5 420.9,589.5 419.6,588.2 414.9,587.9 413.6,587.0 411.0,586.4 406.8,589.5 405.5,588.5 403.7,586.0 402.2,585.7 400.0,583.2 395.4,582.0 394.7,584.2 392.7,586.0 392.5,587.3 389.2,587.6 386.4,584.2 387.0,579.5 385.3,578.3 380.7,577.0 377.6,571.7 375.4,570.8 371.4,573.0 366.8,572.3 364.6,573.3 359.8,572.6 358.7,571.4 358.9,570.2 358.2,568.0 355.4,567.3 354.3,568.0 351.2,568.3 349.9,571.1 351.0,575.4 349.2,577.6 348.6,577.0 345.9,576.7 344.4,575.1 343.1,576.4 340.7,575.1 340.0,577.0 336.0,578.3 334.5,579.8 335.4,583.5 334.1,584.2 331.9,583.5 331.4,584.8 328.1,585.4 326.4,588.5 323.5,590.7 320.7,592.3 319.3,591.0 316.9,595.1 315.2,596.0 311.2,593.5 310.3,593.8 309.2,591.3 306.6,590.1 303.7,591.3 300.9,591.0 300.4,589.5 297.4,589.5 295.6,587.9 293.6,590.1 291.6,594.5 290.5,594.8 287.3,598.5 286.2,596.9 283.1,597.9 281.5,597.3 278.5,598.5 278.2,599.7 276.3,601.0 274.3,604.1 275.2,606.3 273.0,607.5 270.1,606.0 269.5,606.3 266.6,603.8 267.0,602.2 266.4,601.6 264.4,601.6 260.4,603.2 260.4,604.4 256.9,607.5 253.2,607.5 252.3,606.3 251.2,603.5 251.6,602.2 248.4,599.1 247.7,596.3 245.1,594.8 245.1,592.3 244.2,590.4 242.6,589.8 240.7,587.9 240.0,584.8 238.7,582.9 239.3,579.8 239.1,577.6 235.8,576.7 233.0,573.3 233.2,572.0 235.6,570.8 236.0,569.8 234.5,567.7 233.6,567.7 233.2,564.2 232.1,563.3 231.2,563.9 227.7,562.4 226.8,557.4 224.4,555.5 223.5,553.9 222.9,553.9 220.9,550.5 220.0,547.4 218.5,547.7 216.5,546.2 217.1,543.7 216.5,543.0 214.3,543.4 210.8,548.0 207.9,548.3 206.6,550.5 204.2,549.0 202.9,547.7 204.4,541.8 207.0,540.6 206.4,539.0 207.0,537.1 205.1,534.0 207.5,530.9 207.9,529.6 207.5,528.1 208.8,525.0 207.0,524.4 205.1,525.3 203.1,524.4 200.0,524.4 197.6,523.7 196.3,522.5 193.6,522.2 190.3,523.1 188.6,520.9 186.4,521.2 185.7,517.5 184.8,515.6 185.1,512.8 188.1,509.7 188.4,508.2 189.7,506.9 189.0,503.5 187.7,500.4 189.0,496.9 191.9,493.8 191.4,491.3 194.1,490.1 195.2,488.5 195.6,486.3 198.5,485.1 198.9,482.6 200.0,480.4 199.8,478.2 201.3,476.4 199.8,472.9 197.6,473.3 194.5,470.1 193.4,469.8 193.4,468.0 192.5,466.4 188.6,463.6 187.0,463.9 186.2,459.9 183.5,459.9 182.4,456.1 180.7,454.3 180.7,451.1 182.6,449.3 185.3,449.0 186.8,447.1 188.1,445.5 188.4,444.3 187.3,443.3 188.1,440.9 191.4,430.6 199.8,440.2 203.5,444.9 205.7,446.5 206.2,449.9 204.8,453.3 206.4,454.9 207.7,457.1 209.9,458.0 212.7,457.7 215.4,460.5 216.3,463.3 216.0,465.2 216.9,468.6 217.1,470.8 220.2,473.3 222.4,475.7 222.9,479.2 225.5,482.6 228.1,484.8 228.6,487.6 231.4,491.6 231.4,493.5 232.7,494.8 233.4,499.4 235.4,500.7 238.0,505.0 240.4,504.4 245.1,501.3 246.6,501.0 249.0,501.3 250.3,500.7 252.1,498.8 255.2,496.9 257.6,493.8 257.6,492.3 258.7,489.8 262.0,489.5 264.2,487.6 265.1,484.8 266.4,484.8 270.1,479.8 271.2,479.8 272.5,478.2 271.9,475.4 273.8,474.5 274.3,473.6 272.5,471.7 272.3,468.9 279.6,461.1 282.2,461.7 285.1,461.4 286.8,460.5 288.4,458.6 288.6,452.1 294.7,449.3 296.7,449.3 299.1,446.8 299.6,450.2 298.7,451.8 298.7,453.6 300.2,456.4 305.3,455.5 307.5,454.3 309.0,454.3 310.8,452.4 313.2,451.1 318.7,446.2 319.6,446.5 322.6,444.9 324.8,444.9 327.3,443.3 328.4,444.3 331.0,444.3 332.7,445.8 334.1,445.8 334.9,444.0 336.7,444.0 337.8,446.2 337.6,447.7 341.3,448.3 342.4,446.5 346.8,446.8 349.5,445.8 349.9,444.0 353.0,442.4 351.2,440.9 349.9,440.5 347.3,438.7 348.6,435.9 353.0,434.6 354.5,434.9 357.6,433.7 362.0,435.6 362.9,433.7 362.6,431.8 363.7,431.8 365.1,429.9 364.8,427.5 366.8,427.1 368.6,425.0 370.5,426.2 383.3,431.2 384.2,432.8 387.0,434.6 388.4,434.3 389.7,432.4 391.9,432.1 398.2,427.8 399.3,426.5 402.0,425.3 403.7,422.8 406.4,420.6 412.3,418.1 413.0,416.9 415.8,415.0 420.4,414.7 422.2,414.7 427.9,413.1 430.1,411.9 431.4,411.9 432.1,410.6 433.8,410.3 433.8,409.4 436.0,408.5 436.5,406.6 438.2,405.3 441.3,405.0 444.2,402.5 444.8,400.0 442.4,396.3 444.2,393.8 446.4,392.9 447.7,392.9 449.2,390.1 450.8,389.8 454.1,388.2 457.6,388.2 460.0,390.1 462.6,390.4 464.2,391.9 464.8,391.3 467.7,390.4 469.5,391.6 475.8,393.2 478.5,396.3 479.8,396.3 483.7,397.9 489.0,397.9 489.0,400.4 491.4,401.3 492.7,400.7 500.2,399.4 504.0,399.4 507.5,398.5 508.4,397.2 513.2,396.0 513.8,394.4 517.6,393.5 519.6,391.3 520.4,389.4 524.8,388.8 527.9,386.3 528.1,385.4 531.0,382.0 529.9,381.0 530.8,378.9 530.1,377.3 532.3,372.3 531.9,367.6 532.5,366.4 534.1,366.1 536.9,362.7 537.4,362.3 538.5,359.8 540.9,360.2 542.6,360.2 543.5,361.7 543.1,365.1 543.3,367.3 543.1,371.7 542.2,374.5 540.2,376.7 540.9,377.9 540.0,381.0 540.9,383.8 542.4,385.7 544.8,394.1 549.2,396.6 551.4,397.2 552.7,396.6 554.5,398.5 555.8,399.1 551.9,404.4 550.1,405.3 548.1,409.4 546.4,408.8 542.6,410.0 538.7,410.0 536.9,409.4 537.4,412.2 535.6,415.3 536.9,417.8 535.4,418.4 534.7,420.6 535.4,422.8Z"/></g><g><circle cx="398.3" cy="569.1" r="7" fill="rgb(234,183,191)" stroke="#fff" stroke-width="2.5"/><circle cx="395.4" cy="557.5" r="7" fill="rgb(234,183,191)" stroke="#fff" stroke-width="2.5"/><circle cx="395.7" cy="563.6" r="7" fill="rgb(234,183,191)" stroke="#fff" stroke-width="2.5"/><circle cx="405.9" cy="574.2" r="7" fill="rgb(234,183,191)" stroke="#fff" stroke-width="2.5"/><circle cx="391.7" cy="561.9" r="7" fill="rgb(234,183,191)" stroke="#fff" stroke-width="2.5"/><circle cx="462.2" cy="411.7" r="7" fill="rgb(234,183,191)" stroke="#fff" stroke-width="2.5"/><circle cx="339.5" cy="566.4" r="7" fill="rgb(234,183,191)" stroke="#fff" stroke-width="2.5"/><circle cx="344.2" cy="512.8" r="7" fill="rgb(234,183,191)" stroke="#fff" stroke-width="2.5"/><circle cx="362.3" cy="540.7" r="7" fill="rgb(234,183,191)" stroke="#fff" stroke-width="2.5"/><circle cx="362.3" cy="540.7" r="7" fill="rgb(234,183,191)" stroke="#fff" stroke-width="2.5"/><circle cx="357.5" cy="557.7" r="7" fill="rgb(234,183,191)" stroke="#fff" stroke-width="2.5"/><circle cx="395.4" cy="557.5" r="7" fill="rgb(234,183,191)" stroke="#fff" stroke-width="2.5"/><circle cx="483.7" cy="436.0" r="7" fill="rgb(234,183,191)" stroke="#fff" stroke-width="2.5"/><circle cx="403.1" cy="532.4" r="7" fill="rgb(234,183,191)" stroke="#fff" stroke-width="2.5"/><circle cx="392.7" cy="517.3" r="7" fill="rgb(234,183,191)" stroke="#fff" stroke-width="2.5"/><circle cx="423.9" cy="539.1" r="7" fill="rgb(234,183,191)" stroke="#fff" stroke-width="2.5"/><circle cx="252.5" cy="584.7" r="7" fill="rgb(234,183,191)" stroke="#fff" stroke-width="2.5"/><circle cx="293.7" cy="460.6" r="7" fill="rgb(234,183,191)" stroke="#fff" stroke-width="2.5"/><circle cx="246.5" cy="542.2" r="7" fill="rgb(234,183,191)" stroke="#fff" stroke-width="2.5"/><circle cx="234.8" cy="520.5" r="7" fill="rgb(234,183,191)" stroke="#fff" stroke-width="2.5"/><circle cx="323.0" cy="494.7" r="7" fill="rgb(234,183,191)" stroke="#fff" stroke-width="2.5"/><circle cx="336.4" cy="466.5" r="7" fill="rgb(234,183,191)" stroke="#fff" stroke-width="2.5"/><circle cx="325.3" cy="454.6" r="7" fill="rgb(234,183,191)" stroke="#fff" stroke-width="2.5"/><circle cx="221.3" cy="520.0" r="7" fill="rgb(234,183,191)" stroke="#fff" stroke-width="2.5"/><circle cx="282.0" cy="518.7" r="7" fill="rgb(234,183,191)" stroke="#fff" stroke-width="2.5"/><circle cx="351.4" cy="529.8" r="7" fill="rgb(234,183,191)" stroke="#fff" stroke-width="2.5"/></g></svg>