<svg xmlns="http://www.w3.org/2000/svg" viewBox="0 0 1000 620" preserveAspectRatio="xMidYMid meet"><g fill="#eef0f3" stroke="#fff" stroke-width="1.2" stroke-linejoin="round"><path d="M628 183 625 183 622 184 614 186 607 189 605 189 605 190 603 191 602 193 600 195 600 196 602 199 603 199 603 201 600 202 599 202 596 202 596 199 594 199 592 199 591 199 588 198 589 196 587 194 586 190 584 188 582 189 582 187 582 186 579 186 579 184 574 184 573 182 571 183 568 183 568 184 564 184 564 185 561 186 558 186 557 187 555 186 553 185 552 185 551 184 549 184 548 182 543 182 543 182 542 177 541 175 539 173 540 170 539 170 539 167 537 165 536 162 538 162 539 161 543 160 545 158 545 156 547 154 550 151 549 151 551 148 546 151 545 150 542 151 541 150 542 148 540 146 540 144 541 141 540 138 540 137 539 137 539 136 537 133 538 129 535 129 534 127 531 128 531 127 533 126 534 127 535 126 535 124 537 121 536 119 533 118 534 117 535 117 535 116 535 115 535 112 536 112 535 110 533 109 532 105 533 105 533 102 531 102 531 99 530 97 530 93 532 93 533 93 534 92 535 88 536 87 537 89 537 86 540 86 540 84 541 82 543 82 542 79 543 76 544 75 547 75 551 74 553 74 556 72 557 72 559 70 558 69 557 70 553 70 552 69 552 67 551 66 551 64 554 64 556 62 556 60 559 60 562 60 562 58 564 58 564 55 569 56 569 57 573 57 574 60 576 60 577 62 575 62 575 65 573 66 572 67 571 67 569 69 568 70 569 72 568 73 571 73 570 75 572 77 572 79 574 80 575 77 577 73 578 72 578 70 578 68 582 66 582 63 583 62 584 60 582 57 582 53 584 49 586 50 586 51 584 52 584 54 587 53 589 50 589 48 587 46 584 45 584 44 586 41 587 42 589 40 588 37 593 36 596 38 597 38 598 39 598 42 600 43 600 46 602 48 602 50 605 51 607 52 608 51 609 52 610 52 612 52 614 52 614 53 617 52 620 49 621 50 624 48 624 45 627 45 628 49 633 51 633 53 631 56 630 56 630 58 629 60 628 61 627 65 624 64 624 62 621 60 618 60 617 60 615 58 615 61 613 61 614 64 615 65 615 67 619 67 628 70 628 74 630 75 631 74 633 73 635 74 635 76 638 76 638 77 636 78 635 78 633 79 634 83 636 85 636 86 639 87 642 87 644 88 645 87 648 89 648 94 647 96 647 100 648 101 645 102 645 106 647 106 648 109 650 112 649 114 651 116 653 117 656 116 655 118 651 117 650 118 651 119 651 120 651 123 649 127 653 127 655 129 658 132 657 134 658 135 660 136 660 137 662 142 663 141 664 143 665 146 666 147 666 150 667 152 665 156 661 157 659 161 657 162 658 164 659 165 659 166 658 167 659 168 657 171 651 173 650 172 647 173 643 174 643 175 641 176 639 176 638 174 637 175 635 175 633 174 627 175 626 178 628 183Z"/><path d="M644 310 643 309 644 308 645 305 643 304 643 301 646 299 648 299 651 295 652 296 656 294 658 292 661 291 661 287 660 284 658 281 656 277 659 275 662 275 661 271 662 268 662 267 664 265 661 264 660 262 659 262 656 258 658 257 656 255 655 253 652 251 651 249 651 247 647 245 650 244 649 241 652 240 654 240 657 238 658 237 659 237 659 234 663 228 665 226 660 223 662 221 664 220 664 218 665 216 663 214 664 212 663 209 665 207 669 201 672 198 672 198 683 209 686 212 691 211 693 211 695 211 696 211 700 211 703 212 712 213 712 218 711 222 712 224 712 226 713 229 711 233 708 237 704 237 701 240 705 243 708 244 709 243 710 244 715 241 716 241 719 242 721 244 723 245 724 247 724 249 726 253 725 255 725 256 724 258 725 259 724 263 725 265 723 266 723 269 723 271 726 272 726 275 725 278 723 281 720 281 719 284 718 286 716 287 715 289 712 290 710 290 704 289 705 291 703 292 702 295 699 296 695 299 694 298 693 296 691 293 691 292 687 291 685 291 683 293 681 294 680 297 681 299 679 300 678 302 678 304 677 305 675 309 673 311 669 312 660 313 657 315 655 315 652 315 651 314 652 311 650 311 648 310 644 310Z"/><path d="M283 391 280 393 278 396 277 398 275 395 273 393 271 396 266 399 264 399 262 402 261 405 258 408 255 409 254 411 251 412 248 411 247 412 245 411 242 413 240 416 235 420 235 424 234 424 230 427 227 427 229 424 229 423 226 420 226 416 227 415 225 414 225 411 223 410 221 407 216 407 215 405 211 404 209 404 208 405 209 403 208 401 205 404 201 408 201 410 198 410 195 408 194 406 194 404 192 404 189 400 191 398 191 396 193 395 193 396 196 396 199 395 200 397 200 398 202 395 206 390 210 389 209 386 206 387 206 389 204 387 203 388 202 384 200 383 197 382 195 384 192 384 191 382 190 381 190 384 188 384 188 385 186 384 187 382 187 379 187 377 187 376 188 374 188 370 187 367 186 366 187 364 188 362 187 362 189 361 191 362 193 358 194 357 197 358 196 358 199 359 200 358 202 358 201 356 203 354 201 353 201 351 202 350 203 351 205 349 207 347 208 345 207 345 210 341 213 340 216 336 218 331 216 329 214 329 213 329 211 328 211 328 212 326 213 327 217 323 216 322 217 320 219 319 220 320 222 318 221 316 224 313 222 311 222 308 223 305 225 307 228 308 229 305 228 304 229 301 227 300 226 299 227 296 226 295 226 294 229 291 225 287 222 289 224 293 223 294 219 289 218 288 217 286 214 285 216 283 214 281 208 275 215 267 222 274 223 275 225 276 226 276 228 278 227 279 227 280 230 284 233 287 230 290 231 291 233 292 234 290 235 289 236 290 237 290 239 292 238 294 239 296 238 297 238 299 239 300 240 300 242 297 243 297 245 294 246 292 246 290 244 289 244 288 249 285 249 285 251 286 254 283 252 283 251 282 250 280 244 271 244 270 244 266 244 265 245 261 242 259 240 258 240 258 244 259 251 260 264 256 265 256 275 251 276 250 277 251 279 250 280 253 280 254 283 256 281 259 278 261 278 262 277 262 277 263 274 263 275 265 277 265 277 265 277 268 277 270 276 270 278 274 277 275 276 279 277 280 275 282 272 283 274 284 275 282 278 283 279 284 280 283 281 282 283 284 285 283 288 284 290 285 293 286 294 285 296 285 299 286 303 285 308 286 309 287 308 290 310 293 310 295 308 298 305 299 304 298 303 298 302 297 304 296 302 295 300 295 300 297 297 298 299 300 302 302 304 304 304 305 301 306 301 309 299 312 299 315 297 317 298 319 295 323 296 325 298 327 298 331 297 333 296 337 299 340 299 340 303 341 308 342 308 344 307 346 311 346 312 348 314 348 315 349 314 349 314 351 313 352 314 353 312 359 314 359 310 363 308 361 308 361 307 359 302 360 304 364 302 365 300 365 300 370 301 371 300 376 301 379 300 380 299 382 297 383 293 382 290 385 289 387 287 389 285 391 283 391Z"/><path d="M256 280 257 281 257 283 260 281 260 277 259 277 256 278 256 280Z"/><path d="M201 280 207 287 211 290 211 289 214 292 211 294 211 293 207 294 208 295 212 294 215 297 216 298 213 299 211 304 210 307 211 310 210 313 211 313 213 311 216 313 214 315 213 318 213 319 211 321 211 319 208 322 206 321 204 322 201 320 200 318 198 319 197 321 196 320 194 322 193 322 193 323 190 321 188 319 186 320 183 316 182 318 182 316 184 314 184 313 182 314 174 306 183 298 201 280Z"/><path d="M184 337 186 334 186 335 191 334 190 333 194 329 193 328 197 325 198 322 199 323 201 326 204 328 205 330 201 335 202 337 201 338 197 337 194 335 191 335 190 337 186 337 184 337Z"/><path d="M176 336 177 334 178 334 180 331 181 329 184 331 183 335 182 337 182 337 180 339 179 340 178 337 176 336Z"/><path d="M278 274 279 273 283 271 282 274 279 275 278 274Z"/><path d="M354 151 356 151 357 150 354 145 352 145 350 144 350 141 350 140 346 138 346 136 342 136 338 137 336 136 332 137 327 133 328 132 328 131 328 127 330 127 330 126 331 127 333 127 336 127 336 130 337 131 339 132 342 132 343 131 345 131 348 127 346 124 350 123 355 123 359 123 356 121 356 120 356 116 358 117 359 118 361 117 363 118 366 117 366 113 368 110 368 108 369 108 367 106 364 105 365 104 364 99 366 99 369 101 372 102 373 101 375 100 373 99 374 98 377 97 377 99 378 101 385 102 387 106 385 108 384 110 383 110 382 113 381 115 382 117 380 122 377 124 375 125 370 124 371 132 371 133 372 133 373 138 385 136 391 137 392 141 394 143 397 145 399 145 400 146 406 146 406 142 407 139 412 139 414 138 415 136 418 134 421 133 422 133 424 131 423 130 422 129 424 127 425 127 425 126 427 125 429 127 430 127 431 128 436 126 437 124 440 122 442 121 440 118 439 113 442 111 441 110 444 108 445 109 445 111 447 112 448 119 447 119 443 121 447 123 448 123 449 124 452 125 453 129 457 129 458 133 457 137 453 141 453 143 451 145 452 146 451 148 449 148 448 150 446 151 442 152 439 153 439 148 433 148 431 146 428 150 428 152 426 155 423 155 420 157 418 162 417 164 416 166 414 168 412 169 410 171 408 170 408 169 407 169 404 172 402 170 401 169 399 169 397 172 395 172 393 171 392 171 390 169 390 168 388 166 388 167 385 163 382 161 382 161 378 162 376 163 373 164 366 165 359 166 360 168 361 169 362 173 362 175 364 178 366 178 367 181 369 181 372 180 373 182 371 182 373 184 373 185 374 188 373 189 377 189 379 193 379 194 380 195 379 199 376 199 374 202 375 205 373 206 371 204 371 205 366 204 362 205 361 204 360 206 359 202 357 201 356 201 355 199 353 200 351 202 349 201 345 203 348 206 346 207 344 211 344 212 342 214 339 216 332 218 332 220 335 224 335 225 334 227 329 229 328 229 327 227 326 225 327 223 326 221 324 222 323 221 322 222 317 223 315 222 312 216 312 214 316 213 317 215 318 214 320 215 322 214 324 214 325 213 327 214 326 213 327 211 326 212 324 210 325 208 328 207 328 205 330 204 331 203 334 205 336 204 337 203 339 201 339 200 340 199 338 198 337 199 336 197 335 195 335 195 335 193 331 193 330 193 330 195 328 196 326 194 326 196 326 197 323 199 322 200 321 202 319 201 317 202 315 202 315 201 317 200 315 196 314 194 312 193 311 191 309 192 307 188 306 184 310 183 311 183 313 181 318 180 321 178 323 176 322 174 328 170 333 170 335 168 335 166 338 164 346 161 348 160 349 160 350 158 351 157 351 153 354 151Z"/><path d="M329 108 331 104 325 102 324 102 324 101 327 97 331 100 333 100 335 102 336 103 338 102 339 100 341 99 341 98 343 97 343 95 344 97 346 97 348 97 348 99 349 99 349 101 347 104 348 108 345 108 343 109 340 109 337 110 334 111 331 112 329 110 329 108Z"/><path d="M315 118 317 117 320 116 320 115 323 113 324 114 327 113 330 116 331 119 329 123 327 123 325 123 323 124 322 124 316 123 314 123 315 118Z"/><path d="M379 204 380 202 382 200 384 202 385 202 384 203 383 204 379 204Z"/><path d="M353 76 354 75 353 74 355 72 360 73 360 71 360 68 364 70 364 72 367 72 369 71 371 69 372 68 373 66 378 68 379 68 380 66 382 65 379 69 380 70 381 73 383 74 382 76 381 74 379 76 378 76 376 76 373 78 371 76 370 77 369 77 367 78 367 79 368 81 368 84 366 84 363 88 362 90 361 90 361 88 359 86 360 83 359 83 355 82 353 82 354 80 355 78 353 76Z"/><path d="M314 123 316 123 322 124 323 124 325 123 327 123 329 123 331 119 330 116 327 113 324 114 323 113 324 112 325 111 325 110 329 108 329 110 331 112 334 111 337 110 340 109 343 109 345 108 348 108 347 104 349 101 349 99 348 99 348 97 346 97 344 97 343 95 343 93 341 92 344 91 345 92 348 87 347 86 345 85 343 87 341 87 340 85 342 83 345 82 348 79 350 78 353 76 355 78 354 80 353 82 355 82 359 83 360 83 359 86 361 88 361 90 362 90 363 88 366 84 368 84 368 81 367 79 367 78 369 77 370 77 372 79 373 81 376 82 377 84 379 85 381 86 384 86 388 84 388 85 390 85 391 86 392 86 393 88 399 89 405 90 404 94 405 95 405 98 408 97 410 95 414 92 414 89 414 86 417 86 418 85 420 86 421 89 422 90 424 89 423 92 425 94 428 94 429 98 430 99 430 101 433 102 436 102 439 101 438 108 439 108 441 109 441 110 442 111 439 113 440 118 442 121 440 122 437 124 436 126 431 128 430 127 429 127 427 125 425 126 425 127 424 127 422 129 423 130 424 131 422 133 421 133 418 134 415 136 414 138 412 139 407 139 406 142 406 146 400 146 399 145 397 145 394 143 392 141 391 137 385 136 373 138 372 133 371 133 371 132 370 124 375 125 377 124 380 122 382 117 381 115 382 113 383 110 384 110 385 108 387 106 385 102 378 101 377 99 377 97 374 98 373 99 375 100 373 101 372 102 369 101 366 99 364 99 365 104 364 105 367 106 369 108 368 108 368 110 366 113 366 117 363 118 361 117 359 118 358 117 356 116 356 120 356 121 359 123 355 123 350 123 346 124 348 127 345 131 343 131 342 132 339 132 337 131 336 130 336 127 333 127 331 127 330 126 330 127 328 127 328 131 328 132 327 133 326 134 322 133 322 132 322 129 319 128 318 126 316 127 315 123 314 123Z"/><path d="M303 115 306 115 307 116 309 117 312 117 315 118 314 123 310 123 309 122 306 119 306 118 303 118 303 115Z"/><path d="M584 44 584 43 582 42 581 44 580 44 578 46 575 45 575 43 573 43 570 45 570 47 568 46 568 45 567 46 568 50 568 51 566 51 564 50 559 51 559 52 557 51 557 50 555 50 556 51 554 52 556 53 555 53 553 52 553 50 553 47 551 49 550 48 549 48 547 47 546 46 544 44 541 44 540 42 541 41 542 40 543 39 541 36 540 35 542 31 544 30 549 27 551 27 551 24 550 24 550 22 551 21 551 19 553 17 555 14 558 11 560 12 563 10 565 12 566 9.7 568 9.7 572 7.5 574 8.7 575 9.7 578 8.4 577 5.9 574 5.0 574 2.2 576 0.0 577 0.9 577 2.8 580 1.9 581 3.1 583 1.9 586 2.2 588 4.4 587 6.2 586 7.8 588 10 587 13 590 16 594 11 593 11 594 8.4 593 6.9 593 3.1 595 2.5 596 5.3 598 6.5 600 6.9 601 10 602 11 601 12 603 17 606 14 608 13 611 14 611 16 614 18 613 19 610 20 608 22 607 24 608 27 612 28 613 29 612 30 611 35 611 36 608 37 608 36 607 35 607 33 606 30 605 29 601 31 600 30 599 31 597 30 597 32 599 32 600 34 598 37 596 37 597 38 596 38 593 36 588 37 589 40 587 42 586 41 584 44Z"/><path d="M626 41 625 40 627 37 629 36 628 35 626 35 626 33 620 32 621 28 622 27 623 25 625 25 626 26 626 23 628 22 629 25 628 26 630 27 631 28 632 29 631 30 632 31 634 29 637 30 637 33 639 32 642 32 643 35 642 36 640 36 640 34 638 35 638 36 639 37 638 39 638 40 640 40 642 41 643 43 643 48 641 48 639 50 638 49 637 48 639 46 636 45 635 43 630 41 627 41 626 41Z"/><path d="M575 65 579 66 579 65 582 63 582 66 578 68 578 70 578 72 577 73 575 77 574 80 572 79 572 77 570 75 571 73 568 73 569 72 568 70 569 69 571 67 572 67 573 66 575 65Z"/><path d="M746 174 744 174 742 175 740 175 738 172 738 171 736 172 734 171 733 169 731 168 729 168 727 170 726 169 722 169 719 168 716 166 716 165 718 164 720 161 718 159 718 156 717 152 720 151 722 149 720 146 717 146 714 144 716 141 714 141 713 139 714 139 717 138 717 137 719 136 719 134 719 132 720 131 722 131 722 128 723 128 724 127 727 127 727 128 730 127 737 129 741 128 743 127 744 127 754 125 756 126 757 127 758 127 764 125 765 124 766 120 766 118 766 117 768 117 770 118 773 116 773 115 777 115 781 113 782 112 786 111 787 111 786 108 788 106 790 106 791 106 791 108 793 107 794 108 798 108 802 109 802 110 805 112 807 113 809 113 809 115 806 116 803 116 801 117 796 117 796 115 793 117 794 118 796 118 797 119 796 121 799 121 798 123 799 123 799 124 797 126 793 128 793 128 790 125 795 125 795 126 797 125 797 122 795 122 793 121 793 119 789 118 789 119 786 121 786 122 786 123 788 124 786 125 784 126 783 127 782 129 782 131 781 135 780 137 780 139 781 144 778 143 776 144 773 144 768 141 767 141 765 138 765 137 763 137 761 137 759 136 759 135 757 133 757 134 754 133 754 132 752 132 750 132 748 133 750 134 749 136 750 139 751 141 747 141 746 142 747 145 744 146 743 149 739 151 740 153 740 156 740 156 740 158 739 160 739 161 742 164 744 168 744 170 746 174Z"/><path d="M746 174 744 170 744 168 742 164 739 161 739 160 740 158 740 156 740 156 740 153 739 151 743 149 744 146 747 145 746 142 747 141 751 141 750 139 749 136 750 134 748 133 750 132 752 132 754 132 754 133 757 134 757 133 759 135 759 136 761 137 763 137 765 137 765 138 767 141 768 141 773 144 776 144 778 143 781 144 781 149 780 153 779 154 780 157 779 158 777 164 776 164 775 168 770 171 767 174 764 175 763 175 761 176 759 178 757 178 755 179 753 178 750 176 748 176 746 174Z"/><path d="M782 129 783 127 784 126 786 125 788 124 786 123 786 122 786 121 789 119 789 118 793 119 793 121 795 122 797 122 797 125 795 126 795 125 790 125 793 128 793 128 791 130 791 128 789 127 782 129Z"/><path d="M806 116 804 118 800 119 800 121 804 123 802 124 799 124 799 123 798 123 799 121 796 121 797 119 796 118 794 118 793 117 796 115 796 117 801 117 803 116 806 116Z"/><path d="M725 278 726 275 726 272 723 271 723 269 723 266 725 265 724 263 725 259 724 258 725 256 725 255 726 253 724 249 724 247 723 245 721 244 719 242 716 241 715 241 710 244 709 243 708 244 705 243 701 240 704 237 708 237 711 233 713 229 712 226 712 224 711 222 712 218 712 213 703 212 700 211 696 211 695 211 693 211 691 211 686 212 683 209 672 198 672 198 669 196 666 195 664 196 662 196 661 190 663 190 664 186 665 186 664 184 661 185 658 184 637 187 635 187 631 186 628 183 626 178 627 175 633 174 635 175 637 175 638 174 639 176 641 176 643 175 643 174 647 173 650 172 651 173 657 171 659 168 658 167 659 166 659 165 658 164 657 162 659 161 661 157 665 156 667 152 666 150 666 147 665 146 664 143 663 141 662 142 660 137 660 136 658 135 660 133 661 132 663 132 664 130 665 127 664 126 666 124 668 124 669 120 668 118 671 118 670 117 673 116 673 117 676 115 677 116 679 114 680 115 681 113 684 114 684 113 683 112 682 111 677 109 677 107 672 105 673 103 671 102 673 101 673 99 677 100 680 98 682 99 683 100 684 99 685 99 689 98 689 100 690 102 692 101 695 101 696 103 698 102 698 101 701 101 702 101 705 100 706 97 706 96 707 95 709 98 710 97 711 99 712 98 716 100 717 102 719 101 722 101 722 102 724 102 725 104 728 104 732 103 732 102 736 103 739 102 741 99 741 97 740 96 739 97 739 93 737 91 735 94 732 94 730 94 730 93 732 92 733 90 733 90 737 89 737 88 739 89 740 87 740 86 743 87 745 87 745 89 746 90 749 90 748 91 746 94 745 94 744 96 746 95 749 96 749 95 753 96 753 98 752 98 753 99 751 101 754 101 756 102 758 104 760 98 762 97 763 98 764 96 767 94 781 81 784 85 788 85 792 85 794 95 794 97 795 98 799 102 801 108 803 108 804 108 804 106 805 105 806 108 808 110 813 110 815 111 815 113 813 115 812 117 813 121 814 126 815 128 819 130 819 133 816 137 813 137 808 138 803 143 802 145 800 153 799 155 795 157 793 159 792 163 791 165 788 167 787 168 787 170 785 177 782 182 780 186 778 191 777 196 779 201 780 205 782 208 783 212 785 219 785 222 784 225 779 229 775 231 774 233 775 236 776 238 782 246 783 249 785 252 791 259 790 260 786 261 784 262 785 266 782 266 780 268 780 270 778 272 777 274 775 277 776 278 778 279 775 281 773 283 774 286 773 288 770 288 771 289 769 292 767 289 766 288 762 286 757 285 754 284 751 284 747 283 746 284 745 283 741 283 739 281 735 281 734 282 731 281 729 282 727 280 725 278Z"/><path d="M806 116 809 115 809 113 807 113 805 112 802 110 802 109 798 108 794 108 793 107 791 108 791 106 790 106 788 106 786 108 787 111 786 111 782 112 781 113 777 115 773 115 773 116 770 118 768 117 766 117 766 118 766 120 765 124 764 125 758 127 757 127 756 126 754 125 744 127 743 127 741 128 737 129 730 127 727 128 727 127 724 127 723 128 722 128 722 131 720 131 719 132 719 134 719 136 717 137 717 138 714 139 713 139 714 141 716 141 714 144 717 146 720 146 722 149 720 151 717 152 718 156 718 159 720 161 718 164 716 165 716 166 719 168 722 169 726 169 727 170 729 168 731 168 733 169 734 171 736 172 738 171 738 172 740 175 742 175 744 174 746 174 748 176 750 176 753 178 755 179 757 178 759 178 761 176 763 175 764 175 767 174 770 171 775 168 776 164 777 164 779 158 780 157 779 154 780 153 781 149 781 144 780 139 780 137 781 135 782 131 782 129 789 127 791 128 791 130 793 128 793 128 797 126 799 124 802 124 804 123 800 121 800 119 804 118 806 116Z"/><path d="M769 98 770 99 773 100 773 101 775 99 773 98 770 96 769 98Z"/><path d="M600 383 601 380 600 378 600 377 600 375 600 372 600 370 598 370 595 369 595 367 594 366 595 364 595 362 595 361 596 359 597 359 600 356 599 355 599 351 599 348 600 347 602 347 603 345 605 344 607 346 608 345 608 344 611 343 615 339 614 337 615 334 619 332 620 332 622 335 623 337 625 336 626 336 630 334 629 332 630 330 630 328 631 326 632 325 633 326 634 325 633 323 633 318 633 317 634 316 637 316 637 315 638 314 640 313 642 312 644 310 648 310 650 311 652 311 651 314 652 315 655 315 657 315 660 313 669 312 673 311 675 309 677 305 678 304 678 302 679 300 681 299 680 297 681 294 683 293 685 291 687 291 691 292 691 293 693 296 694 298 695 299 699 296 702 295 703 292 705 291 704 289 710 290 712 290 715 289 716 287 718 286 719 284 720 281 723 281 725 278 727 280 729 282 731 281 734 282 735 281 739 281 741 283 745 283 746 284 747 283 751 284 754 284 757 285 762 286 766 288 767 289 769 292 771 289 770 288 773 288 774 286 773 283 775 281 778 279 776 278 775 277 777 274 778 272 780 270 780 268 782 266 785 266 784 262 786 261 790 260 791 259 785 252 783 249 782 246 776 238 775 236 777 234 777 237 779 234 780 235 783 234 784 233 789 232 792 234 793 237 797 235 799 236 802 234 803 233 808 236 810 236 811 235 812 233 815 234 820 233 820 234 824 236 826 235 826 237 829 238 830 238 834 239 835 241 841 240 844 241 844 242 849 245 850 245 854 248 855 247 858 247 860 245 863 246 864 247 862 248 863 250 866 252 867 256 865 257 865 258 863 260 863 262 862 264 864 266 863 267 863 270 864 270 863 272 867 273 868 275 870 275 871 275 873 278 877 279 879 279 881 278 882 279 886 278 887 281 891 284 895 283 896 285 898 287 899 288 900 289 902 290 902 294 903 295 907 295 910 295 911 296 911 299 913 302 917 301 918 299 921 300 922 299 925 299 928 299 928 298 930 298 933 294 937 294 938 293 942 294 941 291 942 288 940 286 940 284 942 282 942 278 944 277 943 274 949 274 954 276 956 277 957 275 960 275 960 274 958 270 959 268 962 267 963 265 963 263 964 261 966 257 967 255 968 255 972 255 975 252 976 252 978 253 979 255 981 257 984 260 983 265 985 266 990 267 993 268 995 270 998 271 997 273 998 275 997 279 995 280 995 283 995 285 993 288 994 289 994 292 993 295 994 299 992 301 993 303 991 305 991 307 991 308 991 309 990 313 987 315 985 315 984 317 983 318 986 320 988 323 988 327 988 329 986 329 981 333 979 335 980 337 981 339 982 340 982 343 980 344 979 344 977 349 975 349 975 351 977 355 976 356 977 360 979 362 979 365 980 366 983 365 988 364 989 364 992 366 999 373 997 375 997 376 997 380 998 380 997 382 997 384 995 385 995 388 995 389 994 393 994 394 991 395 991 396 990 398 986 396 986 395 982 392 980 393 978 394 970 390 968 390 967 393 966 394 964 394 962 392 959 393 958 393 956 393 955 392 955 389 954 388 953 386 951 385 950 384 948 384 946 385 944 384 944 380 945 376 947 373 944 370 943 368 943 366 941 367 939 368 938 371 936 370 933 370 933 369 931 369 926 372 924 372 920 374 919 375 917 375 913 373 912 375 913 376 912 379 913 380 913 382 911 384 908 385 909 387 908 389 906 390 905 392 904 394 901 394 900 395 900 397 902 398 902 399 902 402 902 404 900 405 900 407 901 408 900 411 901 412 900 414 902 417 902 420 901 421 899 424 900 426 902 427 903 426 903 430 905 431 907 430 908 431 908 432 910 432 913 432 914 430 916 431 917 430 919 429 920 430 922 430 923 432 923 435 925 434 927 437 926 439 926 442 925 443 922 443 919 446 918 448 919 451 917 452 915 454 915 454 914 456 914 457 913 460 915 464 916 466 921 469 921 470 922 471 924 472 925 474 924 475 926 475 926 479 928 481 929 483 929 484 924 489 922 492 919 494 918 494 914 493 913 492 910 493 908 493 906 496 904 495 903 494 900 492 902 490 902 488 904 486 903 481 900 480 897 477 893 476 890 475 889 471 890 471 891 469 890 468 890 466 889 466 887 464 886 463 887 460 890 457 889 454 887 454 886 452 882 450 881 447 881 446 880 445 876 447 875 448 875 449 874 450 873 448 872 448 870 445 866 447 864 449 862 451 861 450 857 451 854 451 851 455 848 455 847 456 843 457 842 459 840 459 838 458 837 456 835 455 834 454 833 454 830 457 830 460 828 462 828 463 830 464 830 467 828 468 828 472 825 473 822 472 820 471 819 469 818 470 818 471 816 471 813 473 813 473 810 475 808 474 807 474 805 472 802 471 798 471 797 471 793 468 791 470 787 466 784 460 782 456 782 454 780 452 779 450 777 449 773 447 772 446 773 444 773 442 773 442 773 437 772 435 770 433 771 427 772 426 771 421 771 419 773 417 772 414 770 414 769 413 772 413 772 409 771 405 771 406 766 409 764 411 764 415 761 418 760 418 757 416 755 413 754 413 752 411 752 409 753 408 753 407 750 405 749 407 745 407 745 406 739 407 735 409 733 409 732 412 731 413 731 414 731 417 731 419 732 420 730 422 728 423 726 423 725 424 725 429 730 433 731 433 732 434 733 437 732 439 731 441 733 444 732 446 731 447 733 452 736 453 736 455 737 456 735 459 735 460 737 461 736 463 735 465 733 466 732 467 733 471 730 473 730 476 728 477 727 480 726 480 726 482 725 484 726 485 725 491 723 491 719 492 720 494 719 497 718 498 715 499 713 503 714 505 713 508 710 511 708 510 706 511 704 511 702 508 700 508 699 505 697 501 694 499 690 497 689 495 688 491 687 491 686 490 687 490 688 482 687 480 684 478 683 476 682 472 684 471 686 468 686 467 687 466 685 462 686 460 685 459 686 456 689 455 690 455 691 450 691 448 692 447 690 443 690 442 692 439 690 437 693 436 693 435 691 431 690 429 690 425 691 424 691 420 689 417 689 415 687 414 684 415 683 415 681 413 681 413 680 411 680 410 678 407 676 405 675 404 676 402 675 399 674 398 675 397 675 393 676 391 676 390 677 386 678 385 679 382 680 382 680 380 678 379 678 377 677 377 674 375 671 373 670 373 667 374 665 376 662 376 662 373 662 371 661 367 660 367 660 369 658 371 654 370 651 371 650 372 650 375 652 378 652 379 650 382 646 383 644 384 644 385 640 385 636 388 633 387 633 385 627 388 618 385 616 384 614 385 611 384 608 386 606 385 604 383 600 383Z"/><path d="M658 135 657 134 658 132 655 129 653 127 649 127 651 123 651 120 651 119 650 118 651 117 655 118 656 116 653 117 651 116 649 114 650 112 648 109 647 106 645 106 645 102 648 101 647 100 647 96 648 94 648 89 645 87 644 88 642 87 639 87 636 86 636 85 634 83 633 79 635 78 636 78 638 77 638 76 635 76 635 74 633 73 631 74 630 75 628 74 628 70 619 67 615 67 615 65 614 64 613 61 615 61 615 58 617 60 618 60 621 60 624 62 624 64 627 65 628 61 629 60 630 58 630 56 631 56 633 53 633 51 628 49 627 45 624 45 624 48 621 50 620 49 617 52 614 53 614 52 612 52 610 52 609 52 608 51 607 52 605 51 602 50 602 48 600 46 600 43 598 42 598 39 600 38 603 35 606 37 608 37 611 36 616 37 619 38 621 40 623 41 626 41 627 41 630 41 635 43 636 45 639 46 637 48 638 49 639 50 641 48 643 48 645 48 648 50 655 48 658 47 659 46 663 45 667 41 673 39 675 38 677 38 684 40 691 41 693 41 696 43 702 45 704 44 705 45 708 48 709 48 712 47 715 48 722 47 725 46 727 46 730 48 742 53 768 67 770 68 781 81 767 94 764 96 763 98 762 97 760 98 758 104 756 102 754 101 751 101 753 99 752 98 753 98 753 96 749 95 749 96 746 95 744 96 745 94 746 94 748 91 749 90 746 90 745 89 745 87 743 87 740 86 740 87 739 89 737 88 737 89 733 90 733 90 732 92 730 93 730 94 732 94 735 94 737 91 739 93 739 97 740 96 741 97 741 99 739 102 736 103 732 102 732 103 728 104 725 104 724 102 722 102 722 101 719 101 717 102 716 100 712 98 711 99 710 97 709 98 707 95 706 96 706 97 705 100 702 101 701 101 698 101 698 102 696 103 695 101 692 101 690 102 689 100 689 98 685 99 684 99 683 100 682 99 680 98 677 100 673 99 673 101 671 102 673 103 672 105 677 107 677 109 682 111 683 112 684 113 684 114 681 113 680 115 679 114 677 116 676 115 673 117 673 116 670 117 671 118 668 118 669 120 668 124 666 124 664 126 665 127 664 130 663 132 661 132 660 133 658 135Z"/><path d="M769 98 770 96 773 98 775 99 773 101 773 100 770 99 769 98Z"/><path d="M556 399 557 398 562 397 565 396 565 394 564 392 564 389 565 387 565 384 567 382 569 381 572 383 575 383 577 382 579 384 580 385 585 385 587 384 589 385 590 387 591 388 595 386 596 385 599 383 600 383 604 383 606 385 608 386 611 384 614 385 616 384 618 385 627 388 633 385 633 387 636 388 640 385 644 385 644 384 646 383 650 382 652 379 652 378 650 375 650 372 651 371 654 370 658 371 660 369 660 367 661 367 662 371 662 373 662 376 665 376 667 374 670 373 671 373 674 375 677 377 678 377 678 379 680 380 680 382 679 382 678 385 677 386 676 390 676 391 675 393 675 397 674 398 675 399 676 402 675 404 676 405 678 407 680 410 680 411 681 413 681 413 683 415 684 415 687 414 689 415 689 417 691 420 691 424 690 425 690 429 691 431 693 435 693 436 690 437 692 439 690 442 690 443 692 447 691 448 691 450 690 455 689 455 686 456 685 459 686 460 685 462 687 466 686 467 686 468 684 471 682 472 683 476 684 478 687 480 688 482 687 490 686 490 687 491 688 491 689 495 690 497 694 499 697 501 699 505 700 508 702 508 704 511 706 511 705 513 704 513 702 515 700 516 697 522 695 522 692 524 690 525 687 527 688 532 690 536 690 537 689 539 688 540 688 543 687 544 684 545 682 544 679 545 677 547 676 547 674 548 674 550 673 552 672 554 673 555 676 558 676 563 677 566 676 566 675 567 673 567 673 569 671 570 670 570 670 571 668 573 669 574 674 576 674 580 673 581 676 583 675 586 679 587 680 586 681 588 684 588 684 590 688 592 687 593 688 595 690 594 690 596 688 597 687 600 685 602 683 603 681 606 682 610 680 611 679 613 679 615 677 618 678 619 676 619 675 620 669 619 670 616 668 614 667 615 666 614 664 616 662 614 662 614 659 612 657 613 656 614 655 616 653 615 651 616 652 613 656 607 659 605 658 604 657 605 656 602 656 599 655 597 653 596 654 595 654 593 652 589 650 589 648 586 647 585 648 582 648 577 647 576 644 577 642 576 638 572 635 569 633 567 631 567 630 567 625 566 624 567 625 561 628 557 631 556 633 553 633 551 634 550 633 549 634 547 637 548 639 544 638 540 634 537 631 534 628 532 627 534 623 534 620 532 617 532 614 526 610 529 608 533 604 532 602 532 600 531 600 529 598 530 595 528 595 528 593 525 587 526 585 526 585 522 582 519 581 518 583 517 583 515 580 515 579 513 578 513 577 512 576 509 575 506 573 506 573 504 570 502 569 500 568 496 565 494 563 494 559 492 556 492 553 491 553 488 548 485 548 485 549 482 551 481 550 478 546 474 546 473 545 471 548 469 547 467 548 464 550 464 551 462 553 460 553 459 553 456 552 453 554 451 553 449 553 445 552 443 554 440 553 438 553 437 554 435 551 433 551 431 552 430 551 428 553 426 552 425 552 423 550 422 550 421 549 419 547 419 541 421 537 423 535 423 535 421 535 418 537 418 536 415 537 412 537 409 539 410 543 410 546 409 548 409 550 405 552 404 556 399Z"/><path d="M664 575 665 575 666 573 666 571 666 569 663 569 662 575 664 575Z"/><path d="M191 431 161 422 125 422 105 434 85 438 67 451 64 456 57 453 55 453 54 451 52 451 51 450 49 452 50 453 52 455 54 455 54 456 62 461 59 466 55 475 49 472 45 471 42 469 39 465 42 460 42 458 44 457 46 455 46 452 48 449 47 447 46 445 44 446 41 442 36 439 36 440 34 439 33 436 26 434 25 434 28 429 30 426 30 424 28 422 28 421 27 420 27 418 28 418 32 413 36 405 42 398 43 399 45 396 44 396 46 394 35 384 38 382 39 380 44 376 45 375 47 374 48 374 50 372 51 370 54 368 56 366 57 366 59 363 61 361 62 360 68 355 71 352 70 351 73 348 77 347 80 345 86 342 88 341 90 338 91 339 93 338 93 336 95 336 97 333 97 332 98 330 103 329 106 328 108 326 108 325 111 323 110 321 112 318 107 314 106 311 108 309 108 307 108 304 112 299 114 299 117 300 121 298 126 297 128 296 129 294 131 293 132 292 134 291 138 289 140 288 143 288 146 287 149 287 153 281 153 280 158 277 170 272 170 274 169 278 169 281 174 285 173 288 174 289 172 293 174 292 177 292 183 298 174 306 182 314 184 313 184 314 182 316 182 318 183 316 186 320 188 319 190 321 193 323 193 322 194 322 196 320 197 321 198 319 200 318 201 320 204 322 206 321 208 322 211 319 211 321 213 319 213 318 214 315 216 313 213 311 211 313 210 313 211 310 210 307 211 304 213 299 216 298 215 297 212 294 208 295 207 294 211 293 211 294 214 292 211 289 211 290 207 287 201 280 208 275 214 281 216 283 214 285 217 286 218 288 219 289 223 294 224 293 222 289 225 287 229 291 226 294 226 295 227 296 226 299 227 300 229 301 228 304 229 305 228 308 225 307 223 305 222 308 222 311 224 313 221 316 222 318 220 320 219 319 217 320 216 322 217 323 213 327 212 326 211 328 211 328 213 329 214 329 216 329 218 331 216 336 213 340 210 341 207 345 208 345 207 347 205 349 203 351 202 350 201 351 201 353 203 354 201 356 202 358 200 358 199 359 196 358 197 358 194 357 193 358 191 362 189 361 187 362 188 362 187 364 186 366 187 367 188 370 188 374 187 376 187 377 187 379 187 382 186 384 188 385 188 384 190 384 190 381 191 382 192 384 195 384 197 382 200 383 202 384 203 388 204 387 206 389 206 387 209 386 210 389 206 390 202 395 200 398 200 397 199 395 196 396 193 396 193 395 191 396 191 398 189 400 192 404 194 404 194 406 195 408 198 410 201 410 201 408 205 404 208 401 209 403 208 405 209 404 211 404 215 405 216 407 221 407 223 410 225 411 225 414 227 415 226 416 226 420 229 423 229 424 227 427 230 427 234 424 235 424 235 420 240 416 242 413 245 411 247 412 248 411 251 412 254 411 255 409 258 408 261 405 262 402 264 399 266 399 271 396 273 393 275 395 277 398 278 396 280 393 283 391 283 393 285 396 285 398 285 400 286 403 285 408 284 409 282 409 283 412 280 412 280 415 282 418 281 421 282 422 281 423 280 425 278 427 274 426 273 429 275 430 276 432 277 434 277 436 277 438 274 444 273 446 277 446 277 447 279 451 281 450 282 451 279 452 280 455 280 461 272 469 273 472 274 474 274 475 272 475 273 478 271 480 270 480 266 485 265 485 264 488 262 490 259 490 258 492 258 494 255 497 252 499 250 501 249 501 247 501 245 501 240 504 238 505 235 501 233 499 233 495 231 494 231 492 229 488 228 485 226 483 223 479 222 476 220 473 217 471 217 469 216 465 216 463 215 461 213 458 210 458 208 457 206 455 205 453 206 450 206 447 204 445 200 440 191 431Z"/><path d="M48 457 49 457 50 456 51 456 52 456 50 454 48 457Z"/><path d="M176 336 178 337 179 340 180 339 182 337 182 337 183 335 184 331 181 329 180 331 178 334 177 334 176 336Z"/><path d="M184 337 186 337 190 337 191 335 194 335 197 337 201 338 202 337 201 335 205 330 204 328 201 326 199 323 198 322 197 325 193 328 194 329 190 333 191 334 186 335 186 334 184 337Z"/><path d="M215 267 230 257 231 256 240 258 242 259 245 261 244 265 244 266 244 270 244 271 250 280 251 282 249 285 244 288 244 289 246 290 246 292 245 294 243 297 242 297 240 300 239 300 238 299 238 297 239 296 238 294 239 292 237 290 236 290 235 289 234 290 233 292 231 291 230 290 233 287 230 284 227 280 227 279 228 278 226 276 225 276 223 275 222 274 215 267Z"/><path d="M535 423 531 423 529 424 528 426 526 428 523 430 522 431 520 432 519 431 517 433 517 434 515 437 518 438 519 438 520 439 520 442 521 443 520 446 517 447 515 449 513 450 511 449 509 450 508 451 509 454 508 455 508 456 506 456 506 457 503 457 500 459 500 461 500 462 498 464 497 467 494 470 493 469 490 471 486 471 483 470 481 470 479 472 477 473 476 476 474 476 473 478 470 480 470 482 468 482 470 485 473 485 473 486 475 486 475 489 476 490 477 490 479 493 481 493 482 498 484 500 484 504 487 507 487 509 486 509 484 512 484 515 485 518 484 520 482 521 480 521 479 521 476 523 476 527 475 529 468 531 465 531 463 532 460 533 459 532 457 536 457 538 456 540 456 544 458 547 458 550 456 551 453 554 455 556 453 558 453 560 451 560 451 561 448 565 446 564 442 565 438 564 436 565 431 565 430 567 428 569 428 570 424 571 424 572 425 575 423 576 424 580 422 580 422 583 424 586 422 589 421 590 420 588 415 588 414 587 411 586 407 590 406 589 404 586 402 586 400 583 395 582 395 584 393 586 393 587 389 588 386 584 387 580 385 578 381 577 378 572 375 571 371 573 367 572 365 573 360 573 359 571 359 570 358 568 355 567 354 568 351 568 350 571 351 575 349 578 349 577 346 577 344 575 343 576 341 575 340 577 336 578 335 580 335 584 334 584 332 584 331 585 328 585 326 589 324 591 321 592 319 591 317 595 315 596 311 594 310 594 309 591 307 590 304 591 301 591 300 590 297 590 296 588 294 590 292 595 291 595 287 599 286 597 283 598 282 597 279 599 278 600 276 601 274 604 275 606 273 608 270 606 270 606 267 604 267 602 266 602 264 602 260 603 260 604 257 608 253 608 252 606 251 604 252 602 248 599 248 596 245 595 245 592 244 590 243 590 241 588 240 585 239 583 239 580 239 578 236 577 233 573 233 572 236 571 236 570 235 568 234 568 233 564 232 563 231 564 228 562 227 557 224 556 224 554 223 554 221 551 220 547 219 548 217 546 217 544 217 543 214 543 211 548 208 548 207 551 204 549 203 548 204 542 207 541 206 539 207 537 205 534 208 531 208 530 208 528 209 525 207 524 205 525 203 524 200 524 198 524 196 523 194 522 190 523 189 521 186 521 186 518 185 516 185 513 188 510 188 508 190 507 189 504 188 500 189 497 192 494 191 491 194 490 195 489 196 486 199 485 199 483 200 480 200 478 201 476 200 473 198 473 195 470 193 470 193 468 193 466 189 464 187 464 186 460 184 460 182 456 181 454 181 451 183 449 185 449 187 447 188 446 188 444 187 443 188 441 191 431 200 440 204 445 206 447 206 450 205 453 206 455 208 457 210 458 213 458 215 461 216 463 216 465 217 469 217 471 220 473 222 476 223 479 226 483 228 485 229 488 231 492 231 494 233 495 233 499 235 501 238 505 240 504 245 501 247 501 249 501 250 501 252 499 255 497 258 494 258 492 259 490 262 490 264 488 265 485 266 485 270 480 271 480 273 478 272 475 274 475 274 474 273 472 272 469 280 461 282 462 285 461 287 461 288 459 289 452 295 449 297 449 299 447 300 450 299 452 299 454 300 456 305 456 308 454 309 454 311 452 313 451 319 446 320 447 323 445 325 445 327 443 328 444 331 444 333 446 334 446 335 444 337 444 338 446 338 448 341 448 342 447 347 447 350 446 350 444 353 442 351 441 350 441 347 439 349 436 353 435 355 435 358 434 362 436 363 434 363 432 364 432 365 430 365 428 367 427 369 425 371 426 383 431 384 433 387 435 388 434 390 432 392 432 398 428 399 427 402 425 404 423 406 421 412 418 413 417 416 415 420 415 422 415 428 413 430 412 431 412 432 411 434 410 434 409 436 409 437 407 438 405 441 405 444 403 445 400 442 396 444 394 446 393 448 393 449 390 451 390 454 388 458 388 460 390 463 390 464 392 465 391 468 390 470 392 476 393 479 396 480 396 484 398 489 398 489 400 491 401 493 401 500 399 504 399 508 399 508 397 513 396 514 394 518 394 520 391 520 389 525 389 528 386 528 385 531 382 530 381 531 379 530 377 532 372 532 368 533 366 534 366 537 363 537 362 539 360 541 360 543 360 544 362 543 365 543 367 543 372 542 375 540 377 541 378 540 381 541 384 542 386 545 394 549 397 551 397 553 397 555 399 556 399 552 404 550 405 548 409 546 409 543 410 539 410 537 409 537 412 536 415 537 418 535 418 535 421 535 423Z"/><path d="M201 280 183 298 177 292 174 292 172 293 174 289 173 288 174 285 169 281 169 278 170 274 170 272 158 277 153 280 153 281 149 287 146 287 143 288 140 288 138 289 134 291 132 292 131 293 129 294 128 296 126 297 121 298 117 300 114 299 112 299 113 286 112 283 108 278 107 276 106 274 109 273 112 270 113 269 116 264 120 260 122 263 126 261 129 260 133 259 135 259 139 257 142 254 145 255 147 255 150 252 152 251 153 248 155 245 157 243 160 241 162 240 164 241 166 238 169 236 167 234 165 234 163 231 165 230 167 229 167 227 166 227 167 226 168 224 174 223 175 221 174 219 174 218 175 218 177 216 180 214 182 214 182 213 188 211 189 210 190 210 191 208 196 205 196 204 198 203 200 200 200 200 205 208 207 211 205 218 203 220 202 226 206 223 208 222 212 220 215 218 216 217 217 218 220 217 224 216 230 215 233 213 237 213 238 212 240 213 238 215 236 217 237 220 240 218 244 221 248 222 250 225 250 227 248 228 249 229 249 231 250 233 248 236 245 238 242 239 240 241 239 242 239 247 237 250 240 258 240 258 231 256 230 257 215 267 208 275 201 280Z"/><path d="M59 466 66 470 66 472 66 474 64 475 63 478 65 479 66 482 69 484 68 485 70 486 73 485 76 481 76 484 78 484 79 484 78 485 79 486 79 488 76 494 72 496 67 498 66 500 63 499 59 502 58 504 56 504 55 507 53 507 52 509 53 512 50 514 48 515 44 517 43 518 40 520 37 519 33 519 31 516 28 517 27 517 22 516 21 520 20 519 19 522 19 520 15 519 12 519 9.9 518 7.5 519 7.0 521 5.9 522 1.8 523 1.8 522 3.5 521 3.1 518 6.8 512 7.5 509 8.6 510 9.0 508 10 507 9.5 505 7.3 504 3.1 502 5.3 500 4.4 499 5.5 497 6.8 496 9.5 497 9.0 494 11 495 13 494 13 493 14 492 17 491 19 489 21 492 23 489 25 487 26 488 27 489 30 487 33 490 35 489 39 485 38 483 35 479 36 479 34 477 34 475 36 472 37 472 37 466 39 465 39 465 42 469 45 471 49 472 55 475 59 466Z"/><path d="M49 452 51 450 53 451 54 451 55 453 57 453 64 456 62 461 54 456 54 455 52 455 50 453 49 452Z"/><path d="M48 457 50 454 52 456 51 456 50 456 49 457 48 457Z"/><path d="M200 200 200 200 197 200 196 199 201 196 202 194 203 194 203 193 205 189 211 185 211 184 214 183 216 180 218 180 218 178 221 176 219 174 219 173 220 171 220 168 218 163 220 161 226 161 226 160 230 160 232 158 233 158 235 154 233 151 239 150 241 150 244 148 243 147 244 146 245 145 242 144 243 142 242 139 240 138 239 139 239 137 235 137 233 136 233 137 230 139 228 139 225 140 224 140 220 140 219 141 216 141 214 141 209 140 206 142 204 142 204 141 206 137 205 136 208 134 210 133 212 131 211 129 212 128 213 127 212 126 217 126 218 122 218 118 218 117 221 116 222 117 224 116 224 113 227 112 229 113 231 111 230 110 231 108 231 107 229 107 230 105 228 103 228 100 228 98 232 96 235 95 237 95 239 97 241 97 242 98 244 98 247 99 248 100 252 98 253 98 256 98 259 95 261 96 264 97 267 99 268 99 272 99 275 98 276 99 273 100 271 105 270 106 270 108 268 114 273 115 274 116 276 117 281 115 283 117 283 118 285 119 285 121 287 120 290 119 293 117 295 117 298 115 300 116 303 115 303 118 306 118 306 119 309 122 310 123 314 123 315 123 316 127 318 126 319 128 322 129 322 132 322 133 326 134 327 133 332 137 336 136 338 137 342 136 346 136 346 138 350 140 350 141 350 144 352 145 351 146 349 148 347 151 348 152 354 151 352 152 348 153 340 158 338 158 336 156 332 156 328 156 324 156 322 156 322 154 320 155 315 154 314 154 311 156 307 157 305 157 304 159 302 160 300 161 298 162 292 163 288 163 288 163 284 163 282 162 280 162 277 161 277 160 274 160 267 161 268 161 267 162 268 163 268 166 264 168 263 171 262 172 264 173 265 175 262 176 259 176 255 177 254 176 252 178 250 178 250 175 249 176 248 175 244 176 243 177 244 180 241 181 239 185 238 189 236 191 230 192 230 194 228 197 226 198 224 195 221 196 220 194 218 194 217 197 216 199 212 201 210 203 205 205 204 204 203 198 200 200Z"/></g><g fill="#eef0f3" stroke="#fff" stroke-width="1.2" stroke-linejoin="round"><path d="M280 461 280 455 279 452 282 451 281 450 279 451 277 447 277 446 273 446 274 444 277 438 277 436 277 434 276 432 275 430 273 429 274 426 278 427 280 425 281 423 282 422 281 421 282 418 280 415 280 412 283 412 282 409 284 409 285 408 286 403 285 400 285 398 285 396 283 393 283 391 285 391 287 389 289 387 290 385 293 382 297 383 299 382 300 380 301 379 300 376 301 371 300 370 300 365 302 365 304 364 302 360 307 359 308 361 308 361 310 363 314 359 312 359 314 353 313 352 314 351 314 349 315 349 314 348 312 348 311 346 307 346 308 344 308 342 303 341 299 340 299 340 296 337 297 333 298 331 298 327 296 325 295 323 298 319 297 317 299 315 299 312 301 309 301 306 304 305 304 304 302 302 299 300 297 298 300 297 300 295 302 295 304 296 302 297 303 298 304 298 305 299 308 298 310 295 310 293 308 290 309 287 308 286 303 285 299 286 296 285 294 285 293 286 290 285 288 284 285 283 283 284 281 282 280 283 279 284 278 283 275 282 274 284 272 283 275 282 277 280 276 279 277 275 278 274 276 270 277 270 277 268 277 265 277 265 275 265 274 263 277 263 277 262 278 262 278 261 281 259 283 256 280 254 280 253 279 250 277 251 276 250 275 251 265 256 264 256 251 260 244 259 240 258 237 250 239 247 239 242 240 241 242 239 245 238 248 236 250 233 249 231 249 229 248 228 250 227 250 225 248 222 244 221 240 218 237 220 236 217 238 215 240 213 238 212 237 213 233 213 230 215 224 216 220 217 217 218 216 217 215 218 212 220 208 222 206 223 202 226 203 220 205 218 207 211 205 208 200 200 203 198 204 204 205 205 210 203 212 201 216 199 217 197 218 194 220 194 221 196 224 195 226 198 228 197 230 194 230 192 236 191 238 189 239 185 241 181 244 180 243 177 244 176 248 175 249 176 250 175 250 178 252 178 254 176 255 177 259 176 262 176 265 175 264 173 262 172 263 171 264 168 268 166 268 163 267 162 268 161 267 161 274 160 277 160 277 161 280 162 282 162 284 163 288 163 288 163 292 163 298 162 300 161 302 160 304 159 305 157 307 157 311 156 314 154 315 154 320 155 322 154 322 156 324 156 328 156 332 156 336 156 338 158 340 158 348 153 352 152 354 151 351 153 351 157 350 158 349 160 348 160 346 161 338 164 335 166 335 168 333 170 328 170 322 174 323 176 321 178 318 180 313 181 311 183 310 183 306 184 307 188 309 192 311 191 312 193 314 194 315 196 317 200 315 201 315 202 317 202 319 201 321 202 322 200 323 199 326 197 326 196 326 194 328 196 330 195 330 193 331 193 335 193 335 195 335 195 336 197 337 199 338 198 340 199 339 200 339 201 337 203 336 204 334 205 331 203 330 204 328 205 328 207 325 208 324 210 326 212 327 211 326 213 327 214 325 213 324 214 322 214 320 215 318 214 317 215 316 213 312 214 312 216 315 222 317 223 322 222 323 221 324 222 326 221 327 223 326 225 327 227 328 229 329 229 334 227 335 225 335 224 332 220 332 218 339 216 342 214 344 212 344 211 346 207 348 206 345 203 349 201 351 202 353 200 355 199 356 201 357 201 359 202 360 206 361 204 362 205 366 204 371 205 371 204 373 206 375 205 374 202 376 199 379 199 380 195 379 194 379 193 377 189 373 189 374 188 373 185 373 184 371 182 373 182 372 180 369 181 367 181 366 178 364 178 362 175 362 173 361 169 360 168 359 166 366 165 373 164 376 163 378 162 382 161 382 161 385 163 388 167 388 166 390 168 390 169 392 171 393 171 395 172 397 172 399 169 401 169 402 170 404 172 407 169 408 169 408 170 410 171 412 169 413 172 413 174 413 176 415 179 415 179 415 183 417 184 418 186 419 189 420 190 421 193 424 195 425 199 424 200 424 203 424 206 427 208 427 211 425 212 422 214 421 216 422 217 423 218 423 222 424 222 425 224 424 229 424 230 421 235 423 239 425 240 425 242 427 242 428 244 429 246 428 248 429 250 434 249 436 251 440 250 441 251 439 254 440 258 439 259 439 262 436 264 436 267 434 269 433 270 431 273 428 272 423 275 422 279 424 280 425 282 423 285 423 286 420 288 419 289 419 292 421 293 422 294 422 299 424 303 428 305 434 308 439 313 441 316 441 317 444 319 445 321 448 322 450 321 450 320 452 320 455 318 458 317 461 318 463 318 464 318 466 318 468 319 471 318 471 319 473 322 473 323 475 323 479 325 483 328 486 327 488 325 489 326 493 323 493 324 497 324 500 327 502 326 503 324 508 326 510 329 513 329 517 326 524 320 530 320 532 318 534 319 535 320 537 321 538 323 538 325 542 323 544 323 547 323 549 323 549 326 549 327 547 329 548 331 548 332 548 334 550 336 549 337 549 341 550 342 550 345 551 346 550 349 548 350 542 349 541 348 539 348 538 354 539 355 540 356 541 360 539 360 537 362 537 363 534 366 533 366 532 368 532 372 530 377 531 379 530 381 531 382 528 385 528 386 525 389 520 389 520 391 518 394 514 394 513 396 508 397 508 399 504 399 500 399 493 401 491 401 489 400 489 398 484 398 480 396 479 396 476 393 470 392 468 390 465 391 464 392 463 390 460 390 458 388 454 388 451 390 449 390 448 393 446 393 444 394 442 396 445 400 444 403 441 405 438 405 437 407 436 409 434 409 434 410 432 411 431 412 430 412 428 413 422 415 420 415 416 415 413 417 412 418 406 421 404 423 402 425 399 427 398 428 392 432 390 432 388 434 387 435 384 433 383 431 371 426 369 425 367 427 365 428 365 430 364 432 363 432 363 434 362 436 358 434 355 435 353 435 349 436 347 439 350 441 351 441 353 442 350 444 350 446 347 447 342 447 341 448 338 448 338 446 337 444 335 444 334 446 333 446 331 444 328 444 327 443 325 445 323 445 320 447 319 446 313 451 311 452 309 454 308 454 305 456 300 456 299 454 299 452 300 450 299 447 297 449 295 449 289 452 288 459 287 461 285 461 282 462 280 461Z"/><path d="M278 274 279 275 282 274 283 271 279 273 278 274Z"/><path d="M379 204 383 204 384 203 385 202 384 202 382 200 380 202 379 204Z"/><path d="M354 151 348 152 347 151 349 148 351 146 352 145 354 145 357 150 356 151 354 151Z"/><path d="M256 280 256 278 259 277 260 277 260 281 257 283 257 281 256 280Z"/><path d="M249 285 251 282 252 283 254 283 251 286 249 285 249 285Z"/><path d="M461 318 458 317 455 318 452 320 450 320 450 321 448 322 445 321 444 319 441 317 441 316 439 313 434 308 428 305 424 303 422 299 422 294 421 293 419 292 419 289 420 288 423 286 423 285 425 282 424 280 422 279 423 275 428 272 431 273 433 270 434 269 436 267 436 264 439 262 439 259 440 258 439 254 441 251 440 250 436 251 434 249 429 250 428 248 429 246 428 244 427 242 425 242 425 240 423 239 421 235 424 230 424 229 425 224 424 222 423 222 423 218 422 217 421 216 422 214 425 212 427 211 427 208 424 206 424 203 424 200 425 199 424 195 421 193 420 190 419 189 418 186 417 184 415 183 415 179 415 179 419 180 422 178 428 176 431 176 433 178 436 179 439 176 442 173 440 169 440 167 441 166 444 166 445 166 448 166 450 164 452 166 452 168 455 171 454 176 457 177 457 177 462 176 465 175 463 172 465 172 466 173 468 171 470 170 473 171 474 173 475 176 477 176 478 177 481 175 483 175 487 174 489 173 490 174 490 175 490 177 486 177 485 178 486 179 486 180 487 181 489 181 490 183 492 183 493 181 496 182 495 180 496 176 497 175 499 174 501 167 504 167 505 165 505 165 506 163 508 163 508 164 510 164 510 165 512 164 513 165 516 167 517 167 515 169 516 171 517 173 518 173 519 175 520 182 521 183 521 185 522 185 523 191 525 193 525 197 526 198 527 201 530 203 530 207 533 208 533 208 537 208 538 209 540 209 541 208 542 211 542 213 543 214 546 213 548 212 550 212 551 217 553 216 557 213 559 217 559 221 555 219 555 218 553 218 550 216 550 218 547 218 547 219 544 220 541 223 541 225 540 227 536 230 537 233 539 233 545 232 548 232 549 234 550 235 553 237 554 237 556 240 557 240 561 244 564 245 564 248 563 251 561 252 557 253 554 253 554 249 545 247 544 253 542 252 538 252 536 252 535 246 532 246 524 256 521 252 519 253 515 253 514 254 512 253 509 252 507 254 504 256 503 255 501 254 499 258 501 261 501 261 495 262 492 261 487 263 484 265 484 267 487 271 480 276 478 280 475 285 474 285 474 283 475 281 472 280 470 280 469 284 466 285 465 287 466 291 465 294 465 296 464 296 464 298 462 300 461 301 460 303 461 305 465 312 465 313 463 315 463 316 461 318Z"/><path d="M556 399 555 399 553 397 551 397 549 397 545 394 542 386 541 384 540 381 541 378 540 377 542 375 543 372 543 367 543 365 544 362 543 360 541 360 540 356 539 355 538 354 539 348 541 348 542 349 548 350 550 349 551 346 550 345 550 342 549 341 549 337 550 336 548 334 548 332 548 331 547 329 549 327 549 326 552 324 556 324 559 323 558 320 556 318 557 315 555 316 553 314 555 315 557 313 557 312 556 310 557 308 557 306 559 303 561 302 562 300 560 298 558 298 556 296 554 297 553 295 555 293 553 291 556 289 553 284 551 284 553 282 557 280 558 277 560 277 561 279 565 277 565 276 568 276 570 275 571 273 571 271 573 271 573 264 574 263 574 261 575 260 577 257 576 255 579 254 582 255 583 256 583 260 583 262 584 267 588 267 589 268 593 268 595 269 598 270 603 269 604 270 605 273 604 274 605 276 606 278 609 277 611 274 615 273 620 270 622 273 625 274 626 272 629 270 630 271 633 272 633 273 633 277 635 281 637 279 638 283 637 286 638 288 640 286 640 285 643 285 646 282 648 282 650 280 650 281 656 277 658 281 660 284 661 287 661 291 658 292 656 294 652 296 651 295 648 299 646 299 643 301 643 304 645 305 644 308 643 309 644 310 642 312 640 313 638 314 637 315 637 316 634 316 633 317 633 318 633 323 634 325 633 326 632 325 631 326 630 328 630 330 629 332 630 334 626 336 625 336 623 337 622 335 620 332 619 332 615 334 614 337 615 339 611 343 608 344 608 345 607 346 605 344 603 345 602 347 600 347 599 348 599 351 599 355 600 356 597 359 596 359 595 361 595 362 595 364 594 366 595 367 595 369 598 370 600 370 600 372 600 375 600 377 600 378 601 380 600 383 599 383 596 385 595 386 591 388 590 387 589 385 587 384 585 385 580 385 579 384 577 382 575 383 572 383 569 381 567 382 565 384 565 387 564 389 564 392 565 394 565 396 562 397 557 398 556 399Z"/><path d="M656 277 650 281 650 280 648 282 646 282 643 285 640 285 640 286 638 288 637 286 638 283 637 279 635 281 633 277 633 273 633 272 630 271 629 270 626 272 625 274 622 273 620 270 615 273 611 274 609 277 606 278 605 276 604 274 605 273 604 270 603 269 598 270 595 269 593 268 589 268 588 267 584 267 583 262 583 260 583 256 582 255 579 254 576 255 570 258 565 258 560 259 553 257 554 253 557 253 561 252 563 251 564 248 564 245 561 244 557 240 556 240 554 237 553 237 550 235 549 234 548 232 545 232 539 233 537 233 536 230 540 227 541 225 541 223 544 220 547 219 547 218 550 218 550 216 553 218 555 218 555 219 559 221 565 224 566 223 571 223 574 223 575 227 577 226 580 225 582 223 584 223 585 223 591 223 593 222 593 221 595 218 596 217 596 216 599 216 599 215 600 213 601 209 601 208 603 206 605 205 604 204 604 201 603 201 603 199 602 199 600 196 600 195 602 193 603 191 605 190 605 189 607 189 614 186 622 184 625 183 628 183 631 186 635 187 637 187 658 184 661 185 664 184 665 186 664 186 663 190 661 190 662 196 664 196 666 195 669 196 672 198 669 201 665 207 663 209 664 212 663 214 665 216 664 218 664 220 662 221 660 223 665 226 663 228 659 234 659 237 658 237 657 238 654 240 652 240 649 241 650 244 647 245 651 247 651 249 652 251 655 253 656 255 658 257 656 258 659 262 660 262 661 264 664 265 662 267 662 268 661 271 662 275 659 275 656 277Z"/><path d="M532 318 530 320 524 320 517 326 513 329 510 329 508 326 503 324 502 326 500 327 497 324 493 324 493 323 489 326 488 325 486 327 483 328 479 325 475 323 473 323 473 322 471 319 471 318 468 319 466 318 464 318 463 318 461 318 463 316 463 315 465 313 465 312 461 305 460 303 461 301 462 300 464 298 464 296 465 296 465 294 466 291 465 287 466 285 469 284 470 280 472 280 475 281 474 283 474 285 475 285 478 280 480 276 487 271 484 267 484 265 487 263 492 261 495 262 501 261 501 261 504 260 507 258 510 259 514 260 517 259 518 260 519 262 518 266 519 267 517 268 515 271 514 273 517 274 519 275 522 275 525 274 526 275 525 277 526 279 525 282 525 285 525 286 523 290 523 292 524 293 524 295 524 297 523 300 523 301 524 304 524 306 522 308 522 310 526 313 527 314 530 316 532 318Z"/><path d="M549 326 549 323 547 323 544 323 542 323 538 325 538 323 542 321 545 322 544 320 543 318 540 317 539 316 538 316 535 313 536 310 533 309 534 308 532 304 532 296 531 296 531 293 532 293 533 291 534 291 535 294 533 296 533 299 535 297 535 297 539 294 540 294 542 293 543 295 543 298 545 299 547 298 554 297 556 296 558 298 560 298 562 300 561 302 559 303 557 306 557 308 556 310 557 312 557 313 555 315 553 314 555 316 557 315 556 318 558 320 559 323 556 324 552 324 549 326Z"/><path d="M538 323 537 321 535 320 534 319 532 318 530 316 527 314 526 313 522 310 522 308 524 306 524 304 523 301 523 300 524 297 524 295 524 293 523 292 523 290 525 286 525 285 525 282 526 279 525 277 526 275 525 274 522 275 519 275 517 274 514 273 515 271 517 268 519 267 518 266 519 262 518 260 517 259 514 260 510 259 507 258 504 260 501 261 499 258 501 254 503 255 504 256 507 254 509 252 512 253 514 254 515 253 519 253 521 252 524 256 532 246 535 246 536 252 538 252 542 252 544 253 545 247 554 249 554 253 553 257 560 259 565 258 570 258 576 255 577 257 575 260 574 261 574 263 573 264 573 271 571 271 571 273 570 275 568 276 565 276 565 277 561 279 560 277 558 277 557 280 553 282 551 284 553 284 556 289 553 291 555 293 553 295 554 297 547 298 545 299 543 298 543 295 542 293 540 294 539 294 535 297 535 297 533 299 533 296 535 294 534 291 533 291 532 293 531 293 531 296 532 296 532 304 534 308 533 309 536 310 535 313 538 316 539 316 540 317 543 318 544 320 545 322 542 321 538 323Z"/><path d="M559 221 559 217 557 213 553 216 551 217 550 212 548 212 546 213 543 214 542 213 542 211 541 208 542 207 541 204 542 203 542 200 541 198 539 197 539 195 539 193 540 192 539 188 539 185 538 184 538 181 540 178 541 175 542 177 543 182 543 182 548 182 549 184 551 184 552 185 553 185 555 186 557 187 558 186 561 186 564 185 564 184 568 184 568 183 571 183 573 182 574 184 579 184 579 186 582 186 582 187 582 189 584 188 586 190 587 194 589 196 588 198 591 199 592 199 594 199 596 199 596 202 599 202 600 202 603 201 604 201 604 204 605 205 603 206 601 208 601 209 600 213 599 215 599 216 596 216 596 217 595 218 593 221 593 222 591 223 585 223 584 223 582 223 580 225 577 226 575 227 574 223 571 223 566 223 565 224 559 221Z"/><path d="M412 169 414 168 416 166 417 164 418 162 420 157 423 155 426 155 428 152 428 150 431 146 433 148 439 148 439 153 442 152 446 151 448 150 449 148 451 148 452 146 451 145 453 143 453 141 457 137 458 133 457 129 453 129 452 125 449 124 448 123 447 123 443 121 447 119 448 119 447 112 445 111 445 109 444 108 441 110 441 109 439 108 438 108 439 101 436 102 433 102 430 101 430 99 429 98 428 94 425 94 423 92 424 89 422 90 421 89 420 86 418 85 417 86 414 86 414 89 414 92 410 95 408 97 405 98 405 95 404 94 405 90 399 89 393 88 392 86 391 86 390 85 388 85 388 84 389 83 396 82 398 81 401 80 403 79 406 78 408 76 409 75 410 71 411 69 414 69 415 70 417 71 420 69 425 69 428 69 430 71 431 75 430 77 431 80 433 81 435 82 438 83 439 82 440 79 442 78 446 79 450 79 453 79 454 80 456 80 461 79 464 77 466 76 468 78 471 78 472 77 473 75 473 73 474 71 476 70 480 70 481 68 483 66 486 67 488 66 489 65 492 63 493 60 494 59 496 59 498 59 500 60 500 63 502 63 503 61 505 61 508 60 510 62 513 61 516 63 516 67 517 69 520 71 521 73 523 74 525 74 530 75 535 76 537 73 538 72 540 73 544 75 543 76 542 79 543 82 541 82 540 84 540 86 537 86 537 89 536 87 535 88 534 92 533 93 532 93 530 93 530 97 531 99 531 102 533 102 533 105 532 105 533 109 535 110 536 112 535 112 535 115 535 116 535 117 534 117 533 118 536 119 537 121 535 124 535 126 534 127 533 126 531 127 531 128 534 127 535 129 538 129 537 133 539 136 539 137 540 137 540 138 541 141 540 144 540 146 542 148 541 150 542 151 545 150 546 151 551 148 549 151 550 151 547 154 545 156 545 158 543 160 539 161 538 162 536 162 537 165 539 167 539 170 540 170 539 173 541 175 540 178 538 181 538 184 539 185 539 188 540 192 539 193 539 195 539 197 541 198 542 200 542 203 541 204 542 207 541 208 540 209 538 209 537 208 533 208 533 208 530 207 530 203 527 201 526 198 525 197 525 193 523 191 522 185 521 185 521 183 520 182 519 175 518 173 517 173 516 171 515 169 517 167 516 167 513 165 512 164 510 165 510 164 508 164 508 163 506 163 505 165 505 165 504 167 501 167 499 174 497 175 496 176 495 180 496 182 493 181 492 183 490 183 489 181 487 181 486 180 486 179 485 178 486 177 490 177 490 175 490 174 489 173 487 174 483 175 481 175 478 177 477 176 475 176 474 173 473 171 470 170 468 171 466 173 465 172 463 172 465 175 462 176 457 177 457 177 454 176 455 171 452 168 452 166 450 164 448 166 445 166 444 166 441 166 440 167 440 169 442 173 439 176 436 179 433 178 431 176 428 176 422 178 419 180 415 179 415 179 413 176 413 174 413 172 412 169Z"/></g><g><circle cx="354" cy="423" r="7" fill="#eef0f3" stroke="#fff" stroke-width="2.5"/><circle cx="476" cy="336" r="7" fill="#eef0f3" stroke="#fff" stroke-width="2.5"/><circle cx="485" cy="352" r="7" fill="#eef0f3" stroke="#fff" stroke-width="2.5"/><circle cx="485" cy="352" r="7" fill="#eef0f3" stroke="#fff" stroke-width="2.5"/><circle cx="485" cy="352" r="7" fill="#eef0f3" stroke="#fff" stroke-width="2.5"/><circle cx="529" cy="348" r="7" fill="#eef0f3" stroke="#fff" stroke-width="2.5"/><circle cx="530" cy="349" r="7" fill="#eef0f3" stroke="#fff" stroke-width="2.5"/><circle cx="523" cy="372" r="7" fill="#eef0f3" stroke="#fff" stroke-width="2.5"/><circle cx="518" cy="373" r="7" fill="#eef0f3" stroke="#fff" stroke-width="2.5"/><circle cx="514" cy="360" r="7" fill="#eef0f3" stroke="#fff" stroke-width="2.5"/><circle cx="497" cy="340" r="7" fill="#eef0f3" stroke="#fff" stroke-width="2.5"/><circle cx="461" cy="319" r="7" fill="#eef0f3" stroke="#fff" stroke-width="2.5"/><circle cx="429" cy="338" r="7" fill="#eef0f3" stroke="#fff" stroke-width="2.5"/><circle cx="447" cy="323" r="7" fill="#eef0f3" stroke="#fff" stroke-width="2.5"/><circle cx="435" cy="333" r="7" fill="#eef0f3" stroke="#fff" stroke-width="2.5"/><circle cx="547" cy="248" r="7" fill="#eef0f3" stroke="#fff" stroke-width="2.5"/><circle cx="591" cy="262" r="7" fill="#eef0f3" stroke="#fff" stroke-width="2.5"/><circle cx="569" cy="273" r="7" fill="#eef0f3" stroke="#fff" stroke-width="2.5"/><circle cx="328" cy="436" r="7" fill="#eef0f3" stroke="#fff" stroke-width="2.5"/><circle cx="447" cy="301" r="7" fill="#eef0f3" stroke="#fff" stroke-width="2.5"/><circle cx="456" cy="355" r="7" fill="#eef0f3" stroke="#fff" stroke-width="2.5"/><circle cx="460" cy="370" r="7" fill="#eef0f3" stroke="#fff" stroke-width="2.5"/><circle cx="443" cy="342" r="7" fill="#eef0f3" stroke="#fff" stroke-width="2.5"/><circle cx="389" cy="347" r="7" fill="#eef0f3" stroke="#fff" stroke-width="2.5"/><circle cx="391" cy="409" r="7" fill="#eef0f3" stroke="#fff" stroke-width="2.5"/><circle cx="414" cy="390" r="7" fill="#eef0f3" stroke="#fff" stroke-width="2.5"/><circle cx="431" cy="379" r="7" fill="#eef0f3" stroke="#fff" stroke-width="2.5"/></g></svg>